<svg width="24" height="24" viewBox="0 0 24 24" fill="none" xmlns="http://www.w3.org/2000/svg">
<path d="M3.51975 4.58025L1.5 2.5605L2.5605 1.5L4.58025 3.51975L5.4 2.7C5.53541 2.55777 5.6983 2.44453 5.87879 2.36716C6.05929 2.28978 6.25362 2.24989 6.45 2.24989C6.64638 2.24989 6.84071 2.28978 7.0212 2.36716C7.2017 2.44453 7.36459 2.55777 7.5 2.7L21 16.2V21H16.2L2.7 7.5C2.55777 7.36459 2.44453 7.2017 2.36716 7.0212C2.28979 6.84071 2.24989 6.64638 2.24989 6.45C2.24989 6.25362 2.28979 6.05929 2.36716 5.87879C2.44453 5.6983 2.55777 5.53541 2.7 5.4L3.51975 4.58025ZM16.8 19.5H19.5V16.8L6.45 3.75L3.75 6.45L16.8 19.5Z" fill="#E5262C"/>
<path d="M17.25 8.6895L11.5605 3L10.5 4.0605L16.1895 9.75L17.25 8.6895Z" fill="#E5262C"/>
</svg>
