<svg width="39" height="34" fill="none" xmlns="http://www.w3.org/2000/svg"><path d="M18.431 33.313a1 1 0 001.6-1.2l-1.6 1.2zM5.15 13.937l-.848.53a.99.99 0 00.048.07l.8-.6zm13.518-3.869a1 1 0 001.129-1.65l-1.13 1.65zm1.364 22.045L5.95 13.337l-1.6 1.2 14.082 18.776 1.6-1.2zM5.997 13.407c-1.284-2.054-2.505-4.345-3.255-6.361-.376-1.01-.62-1.915-.707-2.667-.089-.77.001-1.259.155-1.536.118-.212.33-.411.872-.473.593-.067 1.517.047 2.878.514 2.71.93 6.799 3.128 12.727 7.184l1.129-1.65C13.832 4.338 9.563 2.012 6.588.992 5.106.484 3.856.267 2.836.383 1.765.505.923 1.003.44 1.873c-.446.805-.503 1.784-.393 2.736.112.97.413 2.042.82 3.134.814 2.189 2.109 4.606 3.433 6.724l1.696-1.06z" fill="#EC6C5A"/><path d="M20.034 33.313a1 1 0 01-1.6-1.2l1.6 1.2zm13.282-19.376l.848.53a.984.984 0 01-.048.07l-.8-.6zm-13.518-3.869a1 1 0 01-1.13-1.65l1.13 1.65zm-1.364 22.045l14.082-18.776 1.6 1.2-14.082 18.776-1.6-1.2zm14.034-18.706c1.284-2.054 2.505-4.345 3.255-6.361.376-1.01.62-1.915.707-2.667.089-.77-.002-1.259-.155-1.536-.118-.212-.33-.411-.872-.473-.593-.067-1.517.047-2.878.514-2.71.93-6.799 3.128-12.727 7.184l-1.13-1.65c5.965-4.08 10.234-6.406 13.209-7.426 1.482-.508 2.732-.725 3.752-.609 1.071.122 1.913.62 2.395 1.49.446.805.502 1.784.392 2.736-.111.97-.412 2.042-.818 3.134-.815 2.189-2.11 4.606-3.434 6.724l-1.696-1.06z" fill="#EC6C5A"/><path d="M18.586 24.427a1 1 0 001.546-1.27l-1.546 1.27zm-4.741-7.352l-.826.564c.017.024.034.047.053.07l.773-.634zm4.984-.832a1 1 0 101.06-1.696l-1.06 1.696zm1.303 6.915l-5.515-6.718-1.545 1.27 5.514 6.717 1.546-1.27zM14.67 16.51c-.489-.715-.94-1.491-1.21-2.153a3.313 3.313 0 01-.232-.786c-.026-.206.02-.203-.03-.12-.082.136-.197.133-.112.125.122-.013.397.004.896.16.988.31 2.538 1.064 4.847 2.507l1.06-1.696c-2.347-1.467-4.071-2.332-5.309-2.72-.614-.192-1.19-.294-1.7-.24-.547.056-1.074.303-1.392.826-.285.47-.296.998-.244 1.409.054.427.194.87.365 1.29.343.842.878 1.749 1.41 2.527l1.65-1.13z" fill="#5E68DF"/><path d="M20.132 24.427a1 1 0 01-1.546-1.27l1.546 1.27zm4.741-7.352l.826.564a1.045 1.045 0 01-.053.07l-.773-.634zm-4.984-.832a1 1 0 11-1.06-1.696l1.06 1.696zm-1.303 6.915L24.1 16.44l1.546 1.27-5.514 6.717-1.546-1.27zm5.462-6.648c.489-.715.94-1.491 1.209-2.153.135-.333.209-.597.233-.786.026-.206-.02-.203.03-.12.082.136.197.133.112.125-.122-.013-.398.004-.896.16-.989.31-2.538 1.064-4.847 2.507l-1.06-1.696c2.347-1.467 4.07-2.332 5.309-2.72.614-.192 1.19-.294 1.7-.24.547.056 1.074.303 1.392.826.285.47.296.998.244 1.409-.054.427-.194.87-.365 1.29-.343.842-.878 1.749-1.41 2.527l-1.651-1.13z" fill="#5E68DF"/></svg>