<svg width="62" height="64" fill="none" xmlns="http://www.w3.org/2000/svg"><path d="M9.809 50.356l6.448-5.987a2.308 2.308 0 013.202.06l.429.428c.831.831.905 2.155.17 3.074l-5.633 7.041" stroke="#5E68DF" stroke-width="2" stroke-linejoin="round"/><path d="M13.419 34.572c-1.078-1.176-2.193-2.335-2.625-2.61-.125-.08-.251.048-.365.143-5.625 4.725-6.033 13.238-.888 18.48l1.81 1.844.828.843c5.694 5.801 15.109 5.573 20.516-.496a.562.562 0 00-.079-.821l-2.075-1.581a2.308 2.308 0 01-.39-3.295l3.669-4.497a2.308 2.308 0 013.173-.387l.495.371a2.308 2.308 0 003.32-.59l6.099-9.394c.25-.386.268-.88.045-1.283a31.21 31.21 0 00-15.805-13.92l-.55-.218a1.314 1.314 0 00-1.27.167l-7.241 5.393a2.308 2.308 0 00-.254 3.483l.087.087a2.308 2.308 0 010 3.264l-5.11 5.11c-.945.944-2.489.891-3.39-.093z" stroke="#EC6C5A" stroke-width="2" stroke-linejoin="round"/><path d="M42.828 10.99a1 1 0 00-1.414 1.415l1.414-1.414zm7.241 10.07a1 1 0 001.414-1.414L50.07 21.06zm-10.126-7.184a1 1 0 10-1.414 1.414l1.414-1.414zm7.241 10.069A1 1 0 0048.6 22.53l-1.415 1.414zm-5.77-11.54l8.655 8.655 1.414-1.414-8.655-8.655-1.414 1.414zM38.53 15.29l8.655 8.655L48.6 22.53l-8.656-8.655-1.414 1.414z" fill="#5E68DF"/><path d="M33.942 33.243l4.06-3.82a57.695 57.695 0 007.406-8.48l4.485-6.278A1.793 1.793 0 0047.2 12.32l-9.696 9.186-7.22 8.183a2.308 2.308 0 00.098 3.159l.345.345a2.308 2.308 0 003.214.049z" fill="#fff" stroke="#5E68DF" stroke-width="2" stroke-linejoin="round"/><path d="M52.478 10.172l2.926-.77c2.39-.629 3.034-3.715 1.098-5.248-1.747-1.384-4.339-.445-4.795 1.736l-.62 2.961c-.17.82.58 1.535 1.391 1.321z" stroke="#5E68DF" stroke-width="2" stroke-linejoin="round"/></svg>