<svg width="158" height="112" fill="none" xmlns="http://www.w3.org/2000/svg"><rect x="36" y="26" width="86" height="86" rx="4" fill="#FF6333"/><path d="M86.917 85.326l-7.5 1.59-7.5-1.666v-12.5l7.5 1.667 7.5-1.667v12.576zm-7.5-22.576a5.833 5.833 0 110-11.667v0a5.833 5.833 0 015.833 5.833v0a5.833 5.833 0 01-5.833 5.834v0z" stroke="#fff" stroke-width="2" stroke-miterlimit="10" stroke-linecap="square"/><path d="M75.25 78.583l-10.878 2.175a.833.833 0 01-.917-1.172l5.512-11.713a1.666 1.666 0 011.507-.957H88.36a1.667 1.667 0 011.508.957l5.523 11.736a.833.833 0 01-.908 1.174l-11.732-2.2" stroke="#fff" stroke-width="2" stroke-miterlimit="10" stroke-linecap="square"/><circle cx="2" cy="110" r="2" fill="#EE7968"/><circle cx="2" cy="74" r="2" fill="#EE7968"/><circle cx="2" cy="38" r="2" fill="#EE7968"/><circle cx="156" cy="38" r="2" fill="#EE7968"/><circle cx="156" cy="74" r="2" fill="#EE7968"/><circle cx="156" cy="110" r="2" fill="#EE7968"/><circle cx="2" cy="2" r="2" fill="#EE7968"/><circle cx="36" cy="2" r="2" fill="#EE7968"/><circle cx="79" cy="2" r="2" fill="#EE7968"/><circle cx="120" cy="2" r="2" fill="#EE7968"/><circle cx="156" cy="2" r="2" fill="#EE7968"/></svg>