<svg width="158" height="112" fill="none" xmlns="http://www.w3.org/2000/svg"><rect x="36" y="26" width="86" height="86" rx="4" fill="#FF6333"/><path d="M61.083 84.417h1.667a3.333 3.333 0 003.333-3.334v-1.666l-3.709-1.932c-1.218-.634-1.189-2.388.05-2.98l3.66-1.755v-3.333l3.81-.953c1.257-.314 1.69-1.879.774-2.795l-4.585-4.586V52.75m6.667 23.333l5-6.667v-10a3.333 3.333 0 013.333-3.333h13.334a3.333 3.333 0 013.333 3.333V72.75a3.333 3.333 0 01-3.333 3.333H72.75zM84.417 62.75h6.666m-6.666 6.667h6.666" stroke="#fff" stroke-width="2" stroke-miterlimit="10" stroke-linecap="square"/><circle cx="2" cy="110" r="2" fill="#EE7968"/><circle cx="2" cy="74" r="2" fill="#EE7968"/><circle cx="2" cy="38" r="2" fill="#EE7968"/><circle cx="156" cy="38" r="2" fill="#EE7968"/><circle cx="156" cy="74" r="2" fill="#EE7968"/><circle cx="156" cy="110" r="2" fill="#EE7968"/><circle cx="2" cy="2" r="2" fill="#EE7968"/><circle cx="36" cy="2" r="2" fill="#EE7968"/><circle cx="79" cy="2" r="2" fill="#EE7968"/><circle cx="120" cy="2" r="2" fill="#EE7968"/><circle cx="156" cy="2" r="2" fill="#EE7968"/></svg>