<svg width="158" height="112" fill="none" xmlns="http://www.w3.org/2000/svg"><rect x="36" y="26" width="86" height="86" rx="4" fill="#FF6333"/><g clip-path="url(#clip0_308_17)"><path d="M78.541 63.421l-5.166-12.546h-11.25l7.311 17.756m11.273-5.21l5.166-12.546h11.25l-7.311 17.756" stroke="#fff" stroke-width="2" stroke-miterlimit="10"/><path d="M79.625 88.375c6.904 0 12.5-5.596 12.5-12.5s-5.596-12.5-12.5-12.5-12.5 5.596-12.5 12.5 5.596 12.5 12.5 12.5z" stroke="#fff" stroke-width="2" stroke-miterlimit="10" stroke-linecap="square"/><path d="M79.625 69.697l2.007 4.068 4.488.651-3.248 3.166.767 4.47-4.014-2.11-4.014 2.11.766-4.47-3.247-3.166 4.488-.651 2.007-4.068z" fill="#fff"/></g><circle cx="2" cy="110" r="2" fill="#EE7968"/><circle cx="2" cy="74" r="2" fill="#EE7968"/><circle cx="2" cy="38" r="2" fill="#EE7968"/><circle cx="156" cy="38" r="2" fill="#EE7968"/><circle cx="156" cy="74" r="2" fill="#EE7968"/><circle cx="156" cy="110" r="2" fill="#EE7968"/><circle cx="2" cy="2" r="2" fill="#EE7968"/><circle cx="36" cy="2" r="2" fill="#EE7968"/><circle cx="79" cy="2" r="2" fill="#EE7968"/><circle cx="120" cy="2" r="2" fill="#EE7968"/><circle cx="156" cy="2" r="2" fill="#EE7968"/><defs><clipPath id="clip0_308_17"><path fill="#fff" transform="translate(59 49)" d="M0 0h40v40H0z"/></clipPath></defs></svg>