<svg width="86" height="86" fill="none" xmlns="http://www.w3.org/2000/svg"><path d="M86 43c0 23.748-19.252 43-43 43C29.95 86 0 66.748 0 43S13.252 0 37 0c23.748 0 49 12 49 43z" fill="url(#paint0_linear_26_52)"/><path d="M27.25 23.75h31.5v38.5h-31.5v-38.5zm25.375 8.75h-8.75m8.75 10.5h-8.75m8.75 10.5h-8.75" stroke="#fff" stroke-width="2" stroke-miterlimit="10" stroke-linecap="square"/><path d="M33.375 32.5l1.75 1.75 4.375-4.375M33.375 43l1.75 1.75 4.375-4.375M36 56.125a2.625 2.625 0 100-5.25 2.625 2.625 0 000 5.25z" stroke="#fff" stroke-width="2" stroke-miterlimit="10" stroke-linecap="square"/><defs><linearGradient id="paint0_linear_26_52" x1="84.882" y1="2.08" x2="-11.669" y2="30.538" gradientUnits="userSpaceOnUse"><stop stop-color="#E52D27"/><stop offset="1" stop-color="#B31217"/></linearGradient></defs></svg>