<svg width="86" height="86" fill="none" xmlns="http://www.w3.org/2000/svg"><path d="M86 43c0 23.748-19.252 43-43 43C29.95 86 0 66.748 0 43S13.252 0 37 0c23.748 0 49 12 49 43z" fill="url(#paint0_linear_26_84)"/><path d="M50.875 56.705L43 58.375l-7.875-1.75V43.5L43 45.25l7.875-1.75v13.205zM43 33a6.125 6.125 0 110-12.25v0a6.125 6.125 0 016.125 6.125v0A6.125 6.125 0 0143 33v0z" stroke="#fff" stroke-width="2" stroke-miterlimit="10" stroke-linecap="square"/><path d="M38.625 49.625L27.203 51.91a.874.874 0 01-.963-1.231l5.788-12.3a1.75 1.75 0 011.582-1.004h18.78a1.751 1.751 0 011.582 1.005l5.8 12.322a.876.876 0 01-.954 1.233L46.5 49.625" stroke="#fff" stroke-width="2" stroke-miterlimit="10" stroke-linecap="square"/><defs><linearGradient id="paint0_linear_26_84" x1="84.882" y1="2.08" x2="-11.669" y2="30.538" gradientUnits="userSpaceOnUse"><stop stop-color="#E52D27"/><stop offset="1" stop-color="#B31217"/></linearGradient></defs></svg>