<svg width="86" height="86" fill="none" xmlns="http://www.w3.org/2000/svg"><path d="M86 43c0 23.748-19.252 43-43 43C29.95 86 0 66.748 0 43S13.252 0 37 0c23.748 0 49 12 49 43z" fill="url(#paint0_linear_26_66)"/><path d="M55.25 62.25V51.216A15.743 15.743 0 1029 39.5v1.75l-3.5 7L29 50v5.25a3.5 3.5 0 003.5 3.5h7v3.5" stroke="#fff" stroke-width="2" stroke-miterlimit="10" stroke-linecap="square"/><path d="M44.75 45.625a6.125 6.125 0 100-12.25 6.125 6.125 0 000 12.25zm0-12.25V30.75m4.331 4.419l1.856-1.856m-.062 6.187H53.5m-4.419 4.331l1.856 1.856m-6.187-.062v2.625m-4.331-4.419l-1.856 1.856m.062-6.187H36m4.419-4.331l-1.856-1.856" stroke="#fff" stroke-width="2" stroke-miterlimit="10" stroke-linecap="square"/><path d="M44.75 41.25a1.75 1.75 0 100-3.5 1.75 1.75 0 000 3.5z" stroke="#fff" stroke-width="2" stroke-miterlimit="10" stroke-linecap="square"/><defs><linearGradient id="paint0_linear_26_66" x1="84.882" y1="2.08" x2="-11.669" y2="30.538" gradientUnits="userSpaceOnUse"><stop stop-color="#E52D27"/><stop offset="1" stop-color="#B31217"/></linearGradient></defs></svg>