<svg width="28" height="29" fill="none" xmlns="http://www.w3.org/2000/svg"><path d="M14.005 1c-5.845 0-7.555.006-7.887.033a6.94 6.94 0 00-2.758.694 5.58 5.58 0 00-1.61 1.178A6.01 6.01 0 00.129 6.311c-.095.655-.122.788-.128 4.133v4.55c0 5.842.007 7.55.035 7.882.04.937.266 1.857.666 2.705a5.899 5.899 0 003.823 3.124 9.92 9.92 0 002.033.266c.346.016 3.88.026 7.416.026 3.536 0 7.072-.004 7.41-.021a9.563 9.563 0 002.106-.276 5.86 5.86 0 003.823-3.13 6.922 6.922 0 00.66-2.653c.019-.241.027-4.088.027-7.929s-.009-7.681-.028-7.923a6.856 6.856 0 00-.673-2.679 5.557 5.557 0 00-1.2-1.642 6.04 6.04 0 00-3.409-1.618c-.654-.095-.784-.123-4.133-.129L14.005 1z" fill="url(#paint0_radial_1092_1285)"/><path d="M14.005 1c-5.845 0-7.555.006-7.887.033a6.94 6.94 0 00-2.758.694 5.58 5.58 0 00-1.61 1.178A6.01 6.01 0 00.129 6.311c-.095.655-.122.788-.128 4.133v4.55c0 5.842.007 7.55.035 7.882.04.937.266 1.857.666 2.705a5.899 5.899 0 003.823 3.124 9.92 9.92 0 002.033.266c.346.016 3.88.026 7.416.026 3.536 0 7.072-.004 7.41-.021a9.563 9.563 0 002.106-.276 5.86 5.86 0 003.823-3.13 6.922 6.922 0 00.66-2.653c.019-.241.027-4.088.027-7.929s-.009-7.681-.028-7.923a6.856 6.856 0 00-.673-2.679 5.557 5.557 0 00-1.2-1.642 6.04 6.04 0 00-3.409-1.618c-.654-.095-.784-.123-4.133-.129L14.005 1z" fill="url(#paint1_radial_1092_1285)"/><path d="M14 4.662c-2.807 0-3.159.012-4.262.062a7.58 7.58 0 00-2.508.48 5.285 5.285 0 00-3.024 3.024 7.558 7.558 0 00-.48 2.51c-.05 1.103-.063 1.455-.063 4.267 0 2.811.013 3.159.063 4.262a7.6 7.6 0 00.48 2.509 5.288 5.288 0 003.02 3.024 7.61 7.61 0 002.51.48c1.102.05 1.454.063 4.261.063 2.807 0 3.159-.013 4.261-.063a7.609 7.609 0 002.51-.48 5.295 5.295 0 003.023-3.025c.3-.804.462-1.652.48-2.51.05-1.102.063-1.454.063-4.262s-.013-3.16-.062-4.263a7.672 7.672 0 00-.48-2.51 5.285 5.285 0 00-3.024-3.023 7.604 7.604 0 00-2.51-.481c-1.104-.05-1.455-.062-4.263-.062L14 4.662zm-.927 1.867H14c2.76 0 3.088.009 4.177.059a5.722 5.722 0 011.92.356 3.425 3.425 0 011.96 1.962c.229.615.349 1.264.357 1.92.05 1.09.06 1.417.06 4.176 0 2.76-.01 3.087-.06 4.177a5.724 5.724 0 01-.356 1.919 3.427 3.427 0 01-1.962 1.961 5.703 5.703 0 01-1.919.356c-1.09.05-1.417.06-4.177.06s-3.087-.01-4.176-.06a5.722 5.722 0 01-1.92-.356 3.426 3.426 0 01-1.962-1.962 5.688 5.688 0 01-.356-1.919c-.05-1.09-.06-1.417-.06-4.179 0-2.761.01-3.086.06-4.176a5.709 5.709 0 01.356-1.92 3.422 3.422 0 011.962-1.962 5.683 5.683 0 011.92-.357c.953-.043 1.323-.056 3.25-.058v.003zm6.445 1.716a1.24 1.24 0 100 2.481 1.24 1.24 0 000-2.48zM14 9.691a5.31 5.31 0 10-.007 10.619A5.31 5.31 0 0014 9.691zm0 1.867a3.446 3.446 0 11-3.184 2.123A3.446 3.446 0 0114 11.555v.003z" fill="#fff"/><defs><radialGradient id="paint0_radial_1092_1285" cx="0" cy="0" r="1" gradientUnits="userSpaceOnUse" gradientTransform="matrix(0 -27.7567 25.8111 0 7.501 31.206)"><stop stop-color="#FD5"/><stop offset=".1" stop-color="#FD5"/><stop offset=".5" stop-color="#FF543E"/><stop offset="1" stop-color="#C837AB"/></radialGradient><radialGradient id="paint1_radial_1092_1285" cx="0" cy="0" r="1" gradientUnits="userSpaceOnUse" gradientTransform="matrix(2.43553 12.16366 -50.13781 10.0391 -4.734 2.895)"><stop stop-color="#3771C8"/><stop offset=".128" stop-color="#3771C8"/><stop offset="1" stop-color="#60F" stop-opacity="0"/></radialGradient></defs></svg>