<svg width="69" height="59" fill="none" xmlns="http://www.w3.org/2000/svg"><path d="M60.028 19.126c1.9 4.741.92 10.225-2.4 15.314-3.316 5.085-8.924 9.69-16.062 12.55-7.138 2.86-14.376 3.4-20.286 2.01-5.914-1.39-10.41-4.68-12.309-9.422-1.9-4.742-.92-10.225 2.4-15.314 3.316-5.086 8.924-9.69 16.062-12.55 7.138-2.86 14.375-3.4 20.285-2.011 5.914 1.39 10.41 4.68 12.309 9.422z" fill="#fff" stroke="#EC6C5A" stroke-width="2"/><circle cx="21.166" cy="38.438" r="3" transform="rotate(-30.919 21.166 38.438)" fill="#EC6C5A"/><circle cx="51.115" cy="21.468" r="3" transform="rotate(-30.909 51.115 21.468)" fill="#EC6C5A"/><circle cx="23.115" cy="25.468" r="3" transform="rotate(-30.919 23.115 25.468)" fill="#5E68DF"/><circle cx="39.115" cy="17.468" r="3" transform="rotate(-30.919 39.115 17.468)" fill="#5E68DF"/><circle cx="34.115" cy="29.468" r="3" transform="rotate(-30.909 34.115 29.468)" fill="#5E68DF"/><path d="M58 32.853c-5.667-1.167-17.3.1-18.5 14.5" stroke="#EC6C5A" stroke-width="2" stroke-linecap="round" stroke-linejoin="round"/></svg>