<svg width="58" height="50" viewBox="0 0 58 50" fill="none" xmlns="http://www.w3.org/2000/svg">
<path d="M50.1016 16.4526C51.6633 20.3511 50.8644 24.8761 48.1121 29.0967C45.3617 33.3143 40.704 37.1415 34.7676 39.5197C28.8312 41.8979 22.8195 42.345 17.9179 41.1928C13.0128 40.0398 9.31075 37.3179 7.74897 33.4194C6.18719 29.5209 6.98611 24.9959 9.73847 20.7752C12.4888 16.5577 17.1465 12.7305 23.0829 10.3523C29.0193 7.9741 35.0311 7.52702 39.9326 8.67919C44.8377 9.83219 48.5398 12.5541 50.1016 16.4526Z" fill="white" stroke="#EC6C5A" stroke-width="2"/>
<circle cx="17.7845" cy="32.5275" r="2.50656" transform="rotate(-30.9187 17.7845 32.5275)" fill="#EC6C5A"/>
<circle cx="42.8073" cy="18.3484" r="2.50656" transform="rotate(-30.9087 42.8073 18.3484)" fill="#EC6C5A"/>
<circle cx="19.4129" cy="21.6906" r="2.50656" transform="rotate(-30.9187 19.4129 21.6906)" fill="#5E68DF"/>
<circle cx="32.7811" cy="15.0065" r="2.50656" transform="rotate(-30.9187 32.7811 15.0065)" fill="#5E68DF"/>
<circle cx="28.6037" cy="25.0325" r="2.50656" transform="rotate(-30.9087 28.6037 25.0325)" fill="#5E68DF"/>
<path d="M48.5602 27.8606C43.8256 26.8858 34.1057 27.9441 33.103 39.9756" stroke="#EC6C5A" stroke-width="2" stroke-linecap="round" stroke-linejoin="round"/>
</svg>
