<svg width="59" height="59" viewBox="0 0 59 59" fill="none" xmlns="http://www.w3.org/2000/svg">
<path d="M47.7624 6.28137C42.0369 0.555851 31.5646 1.70585 24.3954 8.87498C20.4806 12.7899 18.2295 18.3441 18.1806 22.2345C18.1316 26.1005 18.8167 31.7526 14.8774 35.6919L6.24016 44.3292C5.28071 45.2886 5.28071 46.8442 6.24016 47.8036V47.8036C7.19961 48.7631 8.75517 48.7631 9.71462 47.8036L18.3518 39.1664C22.2912 35.2271 27.9433 35.9122 31.8093 35.8632C35.6752 35.8143 41.2539 33.5632 45.1688 29.6483C52.3135 22.4792 53.4879 12.0069 47.7624 6.28137ZM25.2518 28.7675C21.5082 25.0239 22.6827 17.4877 27.8454 12.325C33.0082 7.16222 40.5199 5.98775 44.288 9.73136C48.0316 13.475 46.8571 21.0111 41.6943 26.1739C36.5316 31.3366 29.0199 32.5111 25.2518 28.7675Z" stroke="#EC6C5A" stroke-width="1.5"/>
<circle cx="41.4697" cy="46.3628" r="1.67185" stroke="#5E68DF" stroke-width="1.5"/>
<path d="M36.71 39.4424C37.7504 41.0616 39.8838 44.3145 40.094 44.373H42.854L45.9096 39.4424H36.71Z" stroke="#5E68DF" stroke-width="1.5" stroke-linejoin="round"/>
<path d="M23.9395 26.6499C24.144 26.0656 35.6882 14.2077 41.4346 8.35181" stroke="#EC6C5A" stroke-linejoin="round"/>
<path d="M27.4033 30.2038C27.6177 29.5986 39.7198 17.3171 45.7438 11.252" stroke="#EC6C5A" stroke-linejoin="round"/>
<path d="M25.7573 14.3417C26.2134 14.4779 35.8143 23.1156 40.5577 27.4171" stroke="#EC6C5A" stroke-linejoin="round"/>
<path d="M29.5962 10.5434C30.0523 10.6796 39.6531 19.3172 44.3966 23.6188" stroke="#EC6C5A" stroke-linejoin="round"/>
<path d="M35.1221 7.92598C35.4688 8.04203 42.6178 14.9028 46.149 18.3185" stroke="#EC6C5A" stroke-linejoin="round"/>
<path d="M23.4419 19.1159C23.8249 19.2336 31.8948 26.6714 35.8819 30.3754" stroke="#EC6C5A" stroke-linejoin="round"/>
</svg>
