<svg width="36" height="56" fill="none" xmlns="http://www.w3.org/2000/svg"><path d="M6.336 32.235L10.8 40.6a3.083 3.083 0 002.72 1.632v0a3.083 3.083 0 002.763-1.715l2.127-4.295m-1.77-21.578l-8.254 6.082m8.61.435L6.213 29.417M8 8.18h9v0H8m8.838 6.532l8.491-6.15m-8.266 12.609l-.225-.678m8.874-5.8l-8.48 6.628m.168 5.803l-8.986-8.031m8.66-.104l-8.66-7.82m10.334 27.244c.73-.468 2.449-2.067 3.482-4.718 1.034-2.65 4.512-12.15 6.122-16.568M8.301 8.312C8.19 7.75 7.178 4.268 1 4.38c.524 1.835 2.718 5.19 7.301 3.932z" stroke="#5E68DF" stroke-width="2" stroke-linejoin="round"/><path d="M8.284 8.559C5.644 8.353.5 9.334 1.04 14.905c2.509.15 7.47-.91 7.245-6.346z" stroke="#5E68DF" stroke-width="2" stroke-linejoin="round"/><path d="M8.56 50.539l-1.55-7.015-.667-3.946a.509.509 0 01-.007-.085V24.238a.51.51 0 01.079-.272l1.864-2.952a.51.51 0 00.079-.272V1.686a.51.51 0 01.51-.51h7.461c.281 0 .51.226.51.507V15.78c0 4.493.823 13.591 1.235 17.579l.917 7.116a2.28 2.28 0 01-.003.595l-1.258 9.1a4.662 4.662 0 01-9.17.369z" stroke="#EC6C5A" stroke-width="2" stroke-linejoin="round"/><path d="M17.506 51.572h5.488a.482.482 0 00.11-.013c3.364-.795 4.614-5.884 4.818-8.343-.205-3.56.146-11.233 3.192-13.446 3.047-2.213 3.771-4.906 3.752-5.976.35-3.802-3.965-5.84-6.325-6.433a.52.52 0 01-.281-.18l-2.412-3.024a.51.51 0 01-.111-.318V1.686a.51.51 0 00-.51-.51H16.64" stroke="#EC6C5A" stroke-width="2" stroke-linejoin="round"/></svg>