<svg width="66" height="46" viewBox="0 0 66 46" fill="none" xmlns="http://www.w3.org/2000/svg">
<path d="M30.9918 30.7364C30.1226 28.3034 28.2073 26.1536 25.543 24.6203C22.8786 23.087 19.6141 22.2559 16.2558 22.2559C12.8975 22.2559 9.63301 23.087 6.96867 24.6203C4.30433 26.1536 2.38903 28.3034 1.51983 30.7363" stroke="#EC6C5A" stroke-width="2" stroke-linecap="round"/>
<path d="M64.4801 30.7364C63.6109 28.3034 61.6956 26.1536 59.0313 24.6203C56.3669 23.087 53.1024 22.2559 49.7441 22.2559C46.3858 22.2559 43.1213 23.087 40.4569 24.6203C37.7926 26.1536 35.8773 28.3034 35.0081 30.7363" stroke="#5E68DF" stroke-width="2" stroke-linecap="round"/>
<circle cx="16.2558" cy="9.2324" r="7.62791" stroke="#EC6C5A" stroke-width="2" stroke-linecap="round"/>
<circle cx="49.7441" cy="9.2324" r="7.62791" stroke="#5E68DF" stroke-width="2" stroke-linecap="round"/>
</svg>
