<svg width="45" height="46" viewBox="0 0 45 46" fill="none" xmlns="http://www.w3.org/2000/svg">
<rect x="17" y="9.13965" width="11" height="2" fill="#5E68DF"/>
<rect x="17" y="14.1396" width="11" height="2" fill="#5E68DF"/>
<rect x="17" y="19.1396" width="11" height="2" fill="#5E68DF"/>
<path d="M32.875 20.7646C32.875 20.2124 32.4273 19.7646 31.875 19.7646C31.3227 19.7646 30.875 20.2124 30.875 20.7646H32.875ZM13.125 20.7646L14.1056 20.5685C14.0006 20.0435 13.5007 19.6943 12.9716 19.7765C12.4425 19.8586 12.072 20.3429 12.1311 20.8751L13.125 20.7646ZM21.5 39.5146C21.5 40.0669 21.9477 40.5146 22.5 40.5146C23.0523 40.5146 23.5 40.0669 23.5 39.5146H21.5ZM22.5 27.3896C26.1648 27.3896 29.125 24.4294 29.125 20.7646H27.125C27.125 23.3249 25.0602 25.3896 22.5 25.3896V27.3896ZM29.125 20.7646V9.51465H27.125V20.7646H29.125ZM29.125 9.51465C29.125 5.84986 26.1648 2.88965 22.5 2.88965V4.88965C25.0602 4.88965 27.125 6.95443 27.125 9.51465H29.125ZM22.5 2.88965C18.8352 2.88965 15.875 5.84986 15.875 9.51465H17.875C17.875 6.95443 19.9398 4.88965 22.5 4.88965V2.88965ZM15.875 9.51465V20.7646H17.875V9.51465H15.875ZM15.875 20.7646C15.875 24.4294 18.8352 27.3896 22.5 27.3896V25.3896C19.9398 25.3896 17.875 23.3249 17.875 20.7646H15.875ZM30.875 20.7646C30.875 22.7119 29.955 24.818 28.4039 26.4471C26.8593 28.0694 24.765 29.1396 22.5 29.1396V31.1396C25.41 31.1396 28.0032 29.7684 29.8524 27.8262C31.695 25.8908 32.875 23.3094 32.875 20.7646H30.875ZM22.4288 29.1422C19.3154 29.3646 17.3847 28.0586 16.141 26.3228C14.8565 24.5302 14.2962 22.2499 14.1189 20.6542L12.1311 20.8751C12.3288 22.6544 12.956 25.3116 14.5153 27.4877C16.1153 29.7207 18.6846 31.4147 22.5712 31.1371L22.4288 29.1422ZM12.1444 20.9608C12.8434 24.4556 13.8611 27.0399 15.5585 28.7374C17.2975 30.4764 19.5978 31.1396 22.5 31.1396V29.1396C19.9022 29.1396 18.2025 28.5529 16.9727 27.3232C15.7014 26.0519 14.7816 23.9487 14.1056 20.5685L12.1444 20.9608ZM21.5 30.1396V39.5146H23.5V30.1396H21.5ZM22.5 31.1396C25.8426 31.1396 28.4501 29.5627 30.1996 27.5037C31.9292 25.4681 32.875 22.9 32.875 20.7646H30.875C30.875 22.3734 30.1333 24.4929 28.6754 26.2087C27.2374 27.9012 25.1574 29.1396 22.5 29.1396V31.1396Z" fill="#EC6C5A"/>
</svg>
