<svg width="65" height="26" viewBox="0 0 65 26" fill="none" xmlns="http://www.w3.org/2000/svg">
<path d="M2.24453 7.05249C2.10947 4.4544 4.27132 2.2843 6.86587 2.47563C13.2216 2.9443 24.392 3.67172 32.4998 3.67172C40.6077 3.67172 51.7781 2.9443 58.1338 2.47563C60.7284 2.2843 62.8902 4.4544 62.7552 7.05248C62.6834 8.43257 62.6286 9.88573 62.6286 11.1042C62.6286 12.3226 62.6834 13.7758 62.7552 15.1559C62.8902 17.754 60.7284 19.9241 58.1338 19.7327C51.7781 19.2641 40.6077 18.5366 32.4998 18.5366C24.392 18.5366 13.2216 19.2641 6.86588 19.7327C4.27132 19.9241 2.10947 17.754 2.24453 15.1559C2.31627 13.7758 2.37109 12.3226 2.37109 11.1042C2.37109 9.88573 2.31627 8.43257 2.24453 7.05249Z" fill="white"/>
<path d="M32.5 2.37106C24.4452 2.37106 13.3178 1.6472 6.96166 1.17849C3.56485 0.928003 0.771424 3.76165 0.945994 7.11978C1.01728 8.49107 1.0708 9.9185 1.0708 11.104C1.0708 12.2894 1.01728 13.7169 0.945994 15.0881C0.771424 18.4463 3.56485 21.2799 6.96167 21.0294C13.3178 20.5607 24.4452 19.8369 32.5 19.8369C40.5548 19.8369 51.6822 20.5607 58.0383 21.0294C61.4351 21.2799 64.2286 18.4463 64.054 15.0881C63.9827 13.7169 63.9292 12.2894 63.9292 11.104C63.9292 9.9185 63.9827 8.49107 64.054 7.11978C64.2286 3.76164 61.4351 0.928003 58.0383 1.17849C51.6822 1.6472 40.5548 2.37106 32.5 2.37106ZM2.49435 7.03929C2.36688 4.58737 4.40726 2.54478 6.84764 2.72473C13.2032 3.1934 24.3819 3.9215 32.5 3.9215C40.6181 3.9215 51.7967 3.1934 58.1524 2.72473C60.5927 2.54478 62.6331 4.58737 62.5056 7.03929C62.4338 8.42106 62.3788 9.87917 62.3788 11.104C62.3788 12.3288 62.4338 13.7869 62.5056 15.1686C62.6331 17.6206 60.5927 19.6632 58.1524 19.4832C51.7967 19.0145 40.6181 18.2864 32.5 18.2864C24.3819 18.2864 13.2032 19.0145 6.84764 19.4832C4.40726 19.6632 2.36688 17.6206 2.49435 15.1686C2.56618 13.7869 2.62124 12.3288 2.62124 11.104C2.62124 9.87917 2.56618 8.42106 2.49435 7.03929Z" fill="#EC6C5A" stroke="#EC6C5A" stroke-width="0.5"/>
<path d="M28.5263 2.79514C28.5276 2.77645 28.5433 2.75684 28.5712 2.75684H38.2452C38.2731 2.75684 38.2888 2.77645 38.2902 2.79514C38.4198 4.58412 38.6736 8.44021 38.6736 11.1452C38.6736 13.8501 38.4198 17.7062 38.2902 19.4952C38.2888 19.5139 38.2731 19.5335 38.2452 19.5335H28.5712C28.5433 19.5335 28.5276 19.5139 28.5263 19.4952C28.3967 17.7062 28.1428 13.8501 28.1428 11.1452C28.1428 8.44021 28.3967 4.58412 28.5263 2.79514Z" fill="white" stroke="#EC6C5A" stroke-width="2"/>
<path d="M30.8816 15.9639H35.631V24.3743L33.2563 21.9996L30.8816 24.3743V15.9639Z" fill="white"/>
<path fill-rule="evenodd" clip-rule="evenodd" d="M29.8311 15.964C29.8311 15.3839 30.3014 14.9136 30.8815 14.9136H35.6309C36.2111 14.9136 36.6814 15.3839 36.6814 15.964V24.3744C36.6814 24.7993 36.4254 25.1823 36.0329 25.3449C35.6404 25.5075 35.1886 25.4176 34.8881 25.1172L33.2562 23.4853L31.6243 25.1172C31.3238 25.4176 30.872 25.5075 30.4795 25.3449C30.087 25.1823 29.8311 24.7993 29.8311 24.3744V15.964ZM33.2562 21.9997L35.6309 24.3744V15.964H30.8815V24.3744L33.2562 21.9997Z" fill="#5E68DF"/>
<path d="M38.8197 13.9887C38.8197 14.67 38.0222 15.0369 37.7926 15.6374C37.5593 16.2472 37.8907 17.089 37.4662 17.5699C36.9517 18.1529 36.0286 17.9525 35.3078 18.2712C34.639 18.5669 34.184 19.4027 33.4057 19.4027C32.6274 19.4027 32.1724 18.5669 31.5036 18.2712C30.7829 17.9525 29.8598 18.1529 29.3452 17.5699C28.9208 17.089 29.2521 16.2472 29.0189 15.6374C28.7892 15.0369 27.9917 14.67 27.9917 13.9887C27.9917 13.3075 28.7892 12.9406 29.0189 12.3401C29.2259 11.7989 28.8455 11.0145 29.2052 10.5728C29.6836 9.98519 30.2828 10.1716 30.965 9.82644C31.6984 9.45541 32.5276 8.57471 33.4057 8.57471C34.2838 8.57471 35.1131 9.45541 35.8465 9.82644C36.5286 10.1716 37.1279 9.98519 37.6063 10.5728C37.9659 11.0145 37.5856 11.7989 37.7926 12.3401C38.0222 12.9406 38.8197 13.3075 38.8197 13.9887Z" fill="white"/>
<path fill-rule="evenodd" clip-rule="evenodd" d="M31.8308 9.90597C31.6337 10.0425 31.4194 10.1848 31.2017 10.2949C30.8658 10.4648 30.5231 10.5363 30.2813 10.5866C30.2247 10.5984 30.1737 10.6091 30.1295 10.6195C29.8864 10.6773 29.7468 10.7387 29.612 10.9042C29.5827 10.9402 29.5516 11.031 29.5781 11.3791C29.5803 11.4079 29.5828 11.4391 29.5856 11.472C29.596 11.5984 29.6087 11.7509 29.6095 11.8945C29.6106 12.0811 29.5939 12.3055 29.509 12.5276C29.4226 12.7535 29.2899 12.9397 29.1658 13.0897C29.0837 13.1891 28.9857 13.2945 28.9022 13.3844C28.8676 13.4216 28.8355 13.4561 28.8081 13.4865C28.5819 13.7363 28.5165 13.8656 28.5165 13.9886C28.5165 14.1115 28.5819 14.2408 28.8081 14.4907C28.8355 14.521 28.8676 14.5555 28.9022 14.5927C28.9857 14.6826 29.0837 14.788 29.1658 14.8874C29.2899 15.0374 29.4226 15.2236 29.509 15.4496C29.5955 15.6758 29.6231 15.9052 29.6327 16.1033C29.6395 16.2428 29.6378 16.3939 29.6363 16.5234C29.6357 16.5698 29.6352 16.6134 29.6351 16.6527C29.6345 17.0124 29.6726 17.1474 29.7386 17.2221C29.8654 17.3659 30.0597 17.4407 30.431 17.5011C30.4909 17.5108 30.5581 17.5202 30.6307 17.5304C30.9438 17.5742 31.3569 17.6321 31.7156 17.7906C31.9436 17.8914 32.1387 18.0315 32.3026 18.1636C32.389 18.2331 32.4958 18.3257 32.5909 18.4081C32.6514 18.4606 32.7072 18.5089 32.7498 18.5444C33.033 18.7809 33.2156 18.8774 33.4053 18.8774C33.595 18.8774 33.7776 18.7809 34.0608 18.5444C34.1034 18.5089 34.1592 18.4606 34.2197 18.4081C34.3148 18.3257 34.4216 18.2331 34.508 18.1636C34.6719 18.0315 34.867 17.8914 35.095 17.7906C35.4537 17.6321 35.8668 17.5742 36.1799 17.5304C36.2525 17.5202 36.3197 17.5108 36.3797 17.501C36.7509 17.4407 36.9452 17.3659 37.072 17.2221C37.138 17.1474 37.1761 17.0124 37.1755 16.6527C37.1754 16.6134 37.1749 16.5698 37.1743 16.5234C37.1728 16.3939 37.1711 16.2428 37.1779 16.1033C37.1875 15.9052 37.2151 15.6758 37.3016 15.4496C37.388 15.2236 37.5207 15.0374 37.6448 14.8874C37.7269 14.788 37.8249 14.6826 37.9084 14.5927C37.943 14.5555 37.9751 14.521 38.0025 14.4907C38.2287 14.2408 38.2941 14.1115 38.2941 13.9886C38.2941 13.8656 38.2287 13.7363 38.0025 13.4865C37.9751 13.4561 37.943 13.4216 37.9084 13.3844C37.8249 13.2945 37.7269 13.1891 37.6448 13.0897C37.5207 12.9397 37.388 12.7535 37.3016 12.5276C37.2167 12.3055 37.2 12.0811 37.2011 11.8945C37.2019 11.7509 37.2146 11.5984 37.225 11.472C37.2278 11.439 37.2303 11.4079 37.2325 11.3791C37.259 11.031 37.2279 10.9402 37.1986 10.9042C37.0638 10.7387 36.9242 10.6773 36.6811 10.6195C36.6369 10.6091 36.5859 10.5984 36.5293 10.5866C36.2875 10.5363 35.9448 10.4648 35.6089 10.2949C35.3912 10.1848 35.1769 10.0425 34.9798 9.90597C34.9143 9.86064 34.8513 9.81639 34.7896 9.77303C34.6556 9.67891 34.5276 9.58896 34.393 9.50121C33.9943 9.24117 33.6795 9.09976 33.4053 9.09976C33.1311 9.09976 32.8163 9.24117 32.4176 9.50121C32.283 9.58896 32.155 9.67891 32.021 9.77303C31.9593 9.81639 31.8963 9.86064 31.8308 9.90597ZM31.8438 8.62133C32.2625 8.34825 32.8014 8.04932 33.4053 8.04932C34.0092 8.04932 34.5481 8.34825 34.9668 8.62133C35.1171 8.71932 35.2698 8.82659 35.4107 8.92553C35.4687 8.9663 35.5247 9.00565 35.5778 9.04235C35.7698 9.17535 35.9342 9.28224 36.0831 9.35762C36.2838 9.45914 36.4553 9.49564 36.6789 9.54322C36.7537 9.55912 36.8342 9.57627 36.9237 9.59749C37.2703 9.67976 37.6695 9.81888 38.0131 10.241C38.3419 10.6447 38.3024 11.164 38.2803 11.4546L38.28 11.4588C38.2766 11.5034 38.2732 11.5449 38.2699 11.5841C38.2602 11.7032 38.2521 11.8013 38.2515 11.9007C38.2508 12.0271 38.2642 12.1037 38.2827 12.1523C38.3111 12.2266 38.3642 12.3114 38.4543 12.4204C38.5172 12.4965 38.5787 12.5625 38.6503 12.6393C38.6901 12.6822 38.7331 12.7283 38.7812 12.7815C39.0112 13.0355 39.3445 13.4303 39.3445 13.9886C39.3445 14.5468 39.0112 14.9416 38.7812 15.1956C38.7331 15.2488 38.6901 15.295 38.6503 15.3378C38.5787 15.4146 38.5172 15.4806 38.4543 15.5567C38.3642 15.6657 38.3111 15.7506 38.2827 15.8248C38.2526 15.9035 38.2342 16.008 38.2271 16.1543C38.2219 16.2603 38.2231 16.3611 38.2245 16.4777C38.2251 16.5314 38.2258 16.5884 38.2259 16.6508C38.2265 16.9848 38.2181 17.5111 37.8596 17.9172C37.4719 18.3565 36.9473 18.473 36.5482 18.5379C36.4397 18.5555 36.3402 18.5699 36.2476 18.5832C35.9545 18.6255 35.7318 18.6576 35.5198 18.7514C35.4134 18.7984 35.3008 18.8737 35.167 18.9815C35.0814 19.0505 35.0152 19.1084 34.9424 19.172C34.8824 19.2245 34.8178 19.2809 34.734 19.3509C34.4279 19.6063 33.9939 19.9278 33.4053 19.9278C32.8167 19.9278 32.3827 19.6063 32.0766 19.3509C31.9928 19.2809 31.9282 19.2245 31.8682 19.172C31.7954 19.1084 31.7292 19.0505 31.6436 18.9815C31.5098 18.8737 31.3972 18.7984 31.2908 18.7514C31.0788 18.6576 30.8561 18.6255 30.563 18.5832C30.4704 18.5699 30.3709 18.5555 30.2624 18.5379C29.8633 18.473 29.3387 18.3565 28.951 17.9172C28.5925 17.5111 28.5841 16.9848 28.5847 16.6508C28.5848 16.5884 28.5855 16.5314 28.5861 16.4777C28.5875 16.3611 28.5887 16.2603 28.5835 16.1543C28.5764 16.008 28.558 15.9035 28.5279 15.8248C28.4995 15.7506 28.4464 15.6657 28.3563 15.5567C28.2934 15.4806 28.2319 15.4146 28.1603 15.3378C28.1205 15.2949 28.0775 15.2488 28.0294 15.1956C27.7994 14.9416 27.4661 14.5468 27.4661 13.9886C27.4661 13.4303 27.7994 13.0355 28.0294 12.7815C28.0775 12.7283 28.1205 12.6822 28.1603 12.6394C28.2319 12.5625 28.2934 12.4965 28.3563 12.4204C28.4464 12.3114 28.4995 12.2266 28.5279 12.1523C28.5464 12.1037 28.5598 12.0271 28.5591 11.9007C28.5585 11.8013 28.5504 11.7032 28.5407 11.5841C28.5375 11.5449 28.534 11.5034 28.5306 11.4588L28.5303 11.4546C28.5082 11.164 28.4687 10.6447 28.7975 10.241C29.1411 9.81888 29.5403 9.67976 29.8869 9.59749C29.9764 9.57627 30.0569 9.55912 30.1317 9.54322C30.3553 9.49564 30.5268 9.45914 30.7275 9.35762C30.8765 9.28224 31.0408 9.17535 31.2329 9.04235C31.2859 9.00565 31.3419 8.96629 31.3999 8.92552C31.5408 8.82659 31.6935 8.71932 31.8438 8.62133Z" fill="#5E68DF"/>
<path fill-rule="evenodd" clip-rule="evenodd" d="M36.5738 13.9884C36.5738 15.7384 35.1696 17.18 33.4093 17.18C31.6491 17.18 30.2449 15.7384 30.2449 13.9884C30.2449 12.2384 31.6491 10.7969 33.4093 10.7969C35.1696 10.7969 36.5738 12.2384 36.5738 13.9884ZM33.4093 16.1295C34.5769 16.1295 35.5233 15.1709 35.5233 13.9884C35.5233 12.8059 34.5769 11.8473 33.4093 11.8473C32.2418 11.8473 31.2953 12.8059 31.2953 13.9884C31.2953 15.1709 32.2418 16.1295 33.4093 16.1295Z" fill="#5E68DF"/>
<path fill-rule="evenodd" clip-rule="evenodd" d="M54.4623 11.9062C54.1723 11.9062 53.9371 11.6711 53.9371 11.381C53.9371 8.92622 53.7654 4.78878 53.5103 2.54943C53.4774 2.26122 53.6845 2.00096 53.9727 1.96813C54.2609 1.9353 54.5211 2.14232 54.554 2.43052C54.8151 4.72274 54.9875 8.90274 54.9875 11.381C54.9875 11.6711 54.7524 11.9062 54.4623 11.9062Z" fill="#EC6C5A"/>
<path fill-rule="evenodd" clip-rule="evenodd" d="M50.7629 8.52197C50.4728 8.52197 50.2376 8.28682 50.2376 7.99675C50.2376 5.82217 50.0688 4.38871 49.8146 2.86319C49.7669 2.57706 49.9602 2.30645 50.2463 2.25877C50.5324 2.21108 50.803 2.40437 50.8507 2.6905C51.1127 4.2625 51.2881 5.75449 51.2881 7.99675C51.2881 8.28682 51.0529 8.52197 50.7629 8.52197Z" fill="#EC6C5A"/>
<path fill-rule="evenodd" clip-rule="evenodd" d="M9.83504 12.1465C10.1251 12.1465 10.3603 12.3816 10.3603 12.6717C10.3603 15.0308 10.5024 17.2629 10.9251 19.5455C10.9779 19.8307 10.7895 20.1048 10.5043 20.1576C10.2191 20.2104 9.94503 20.022 9.89221 19.7368C9.45449 17.3731 9.30981 15.0736 9.30981 12.6717C9.30981 12.3816 9.54496 12.1465 9.83504 12.1465Z" fill="#EC6C5A"/>
</svg>
