<svg width="66" height="60" viewBox="0 0 66 60" fill="none" xmlns="http://www.w3.org/2000/svg">
<path d="M13.3296 27.5108L1.16098 28.1138M15.5242 23.2383L6.2463 15.3574M18.5297 20.0053C18.5 19.3896 15.4257 7.40382 13.8078 1.5884" stroke="#5E68DF" stroke-width="2.14515" stroke-linecap="round"/>
<path d="M28.8616 16.9101C29.1491 16.3922 28.9623 15.7393 28.4444 15.4518C27.9265 15.1643 27.2736 15.351 26.986 15.8689L28.8616 16.9101ZM14.7581 36.2495C14.4665 36.7652 14.6482 37.4196 15.1638 37.7111C15.6795 38.0027 16.3338 37.821 16.6254 37.3054L14.7581 36.2495ZM26.986 15.8689C26.7872 16.2271 24.7006 19.6099 22.1496 23.8062C19.6179 27.9707 16.6577 32.89 14.7581 36.2495L16.6254 37.3054C18.5061 33.9793 21.4495 29.0873 23.9826 24.9205C26.4963 20.7856 28.6356 17.3172 28.8616 16.9101L26.986 15.8689Z" fill="#EC6C5A"/>
<path d="M56.917 55.9817L58.1611 56.5968C59.0112 57.0171 60.0415 56.7254 60.5452 55.9218L63.9402 50.5046C64.521 49.5779 64.174 48.3523 63.1936 47.8676L62.2841 47.4179" stroke="#EC6C5A" stroke-width="2.14515" stroke-linecap="round"/>
<path d="M33.7663 20.4969L61.298 46.1819C61.9521 46.7922 62.075 47.7835 61.5896 48.535L57.5496 54.7905C57.06 55.5485 56.0945 55.842 55.266 55.4846L20.9945 40.7008C19.9541 40.252 19.5592 38.981 20.162 38.0217L30.9419 20.8649C31.5591 19.8827 32.9181 19.7056 33.7663 20.4969Z" stroke="#EC6C5A" stroke-width="2.14515"/>
<path d="M39.7054 48.7144L38.3639 52.1293C37.985 53.0937 38.4733 54.1811 39.4459 54.5386L48.537 57.881C49.4807 58.2279 50.5285 57.7565 50.8948 56.8203L51.8981 54.2565" stroke="#EC6C5A" stroke-width="2.14515"/>
</svg>
