<svg width="49" height="47" fill="none" xmlns="http://www.w3.org/2000/svg"><path d="M35.574 15.524a.75.75 0 10.852 1.234l-.852-1.234zm12.368-6.728a.75.75 0 00-.853-1.234l.853 1.234zm-11.516 7.962l11.516-7.962-.853-1.234-11.515 7.962.852 1.234z" fill="#5E68DF"/><path d="M27.272 23.38c.833.338 1.962.307 3.211-.091 1.25-.398 2.549-1.139 3.697-2.11 1.149-.97 2.082-2.114 2.656-3.255.573-1.142.754-2.216.515-3.057M15 23.338c-.806.37-2.763.367-4.005 0-1.24-.367-2.544-1.082-3.708-2.034-1.164-.952-2.123-2.088-2.729-3.233-.605-1.144-.823-2.232-.62-3.095" stroke="#EC6C5A" stroke-width="2" stroke-linecap="round"/><path d="M10.4 43.57c2.05-8.253 5.445-22.064 6.353-26.298a1.378 1.378 0 011.335-1.093h5.922c.6 0 1.122.412 1.262.995l6.343 26.404a1.298 1.298 0 01-1.262 1.601H11.66c-.844 0-1.464-.79-1.26-1.609z" stroke="#EC6C5A" stroke-width="2"/><circle cx="20.723" cy="10.339" r="9.16" fill="#fff" stroke="#EC6C5A" stroke-width="2" stroke-linecap="round"/><path d="M21 19.68v25.5" stroke="#EC6C5A" stroke-width="2" stroke-linejoin="round"/></svg>