<svg width="50" height="51" viewBox="0 0 50 51" fill="none" xmlns="http://www.w3.org/2000/svg">
<path fill-rule="evenodd" clip-rule="evenodd" d="M21.8933 25.6463C20.0495 21.3281 26.0326 23.7849 27.0934 24.7942C28.2905 25.9333 31.7813 36.8897 33.4096 31.764C36.4944 22.0534 26.3446 21.7374 20.819 18.3804C18.7795 17.1413 17.7935 14.6418 15.9022 13.189C15.5708 12.9344 14.9172 13.3324 14.7521 13.7202C11.3133 21.8 22.6365 28.8504 22.3972 34.1336C22.3085 36.0912 19.1711 34.887 16.9227 36.3659C14.1492 38.1901 11.9016 41.3069 15.1172 44.1807C20.9463 49.3901 28.4803 48.0389 25.9645 36.91C24.1687 28.9664 23.8064 30.1267 21.8933 25.6463Z" stroke="#EC6C5A" stroke-width="2"/>
<path d="M35 13.6396L40.5 6.13965" stroke="#5E68DF" stroke-width="2" stroke-linecap="round" stroke-linejoin="round"/>
<path d="M27.2941 10.4376L27.5093 1.13957" stroke="#5E68DF" stroke-width="2" stroke-linecap="round" stroke-linejoin="round"/>
<path d="M39 19.7706L48.0834 17.7726" stroke="#5E68DF" stroke-width="2" stroke-linecap="round" stroke-linejoin="round"/>
</svg>
