<svg width="54" height="55" viewBox="0 0 54 55" fill="none" xmlns="http://www.w3.org/2000/svg">
<path d="M48.1893 22.1857C48.5229 21.8962 48.3446 21.3479 47.9045 21.31L33.3405 20.0541C33.1561 20.0382 32.9956 19.9217 32.9233 19.7513L27.2324 6.34439C27.0599 5.93809 26.484 5.93825 26.3118 6.34464L20.6204 19.773C20.5481 19.9437 20.3871 20.0604 20.2024 20.0761L5.64297 21.3113C5.20226 21.3487 5.02356 21.8978 5.35786 22.1874L16.4151 31.7663C16.5554 31.8878 16.6168 32.0771 16.5747 32.2578L13.2536 46.4936C13.1532 46.9243 13.6203 47.2638 13.9989 47.0353L26.5134 39.482C26.6723 39.3861 26.8713 39.3861 27.0302 39.482L39.5466 47.0364C39.9249 47.2648 40.3918 46.926 40.292 46.4954L36.9907 32.2572C36.9488 32.0768 37.0102 31.888 37.15 31.7666L48.1893 22.1857Z" stroke="#EC6C5A" stroke-width="1.5"/>
<path d="M38.4194 24.6416C38.6009 24.4841 38.5039 24.1859 38.2645 24.1653L30.3438 23.4823C30.2435 23.4736 30.1562 23.4103 30.1169 23.3176L27.0219 16.0262C26.9281 15.8052 26.6149 15.8053 26.5212 16.0263L23.426 23.3294C23.3866 23.4222 23.2991 23.4857 23.1986 23.4942L15.2804 24.166C15.0407 24.1863 14.9435 24.485 15.1253 24.6425L21.1389 29.852C21.2152 29.9181 21.2486 30.021 21.2256 30.1193L19.4195 37.8615C19.3648 38.0958 19.6189 38.2804 19.8248 38.1561L26.6309 34.0483C26.7173 33.9961 26.8255 33.9961 26.9119 34.0483L33.719 38.1568C33.9248 38.281 34.1787 38.0967 34.1244 37.8625L32.329 30.119C32.3062 30.0209 32.3396 29.9182 32.4157 29.8522L38.4194 24.6416Z" stroke="#5E68DF" stroke-width="1.5"/>
</svg>
