<svg width="62" height="53" viewBox="0 0 62 53" fill="none" xmlns="http://www.w3.org/2000/svg">
<path d="M28.9258 24.3356V1.90137C41.5695 9.33887 55.5768 5.00033 61 1.90137V24.1895C61 24.7884 60.7115 25.3507 60.225 25.6999L44.1096 37.27C43.3895 37.787 42.4046 37.7237 41.7565 37.1189L29.5165 25.6949C29.1397 25.3432 28.9258 24.8509 28.9258 24.3356Z" stroke="#5E68DF" stroke-width="2" stroke-linecap="round" stroke-linejoin="round"/>
<path d="M1.5 37.816V15.3818C14.1438 22.8193 28.151 18.4808 33.5742 15.3818V37.67C33.5742 38.2689 33.2857 38.8311 32.7992 39.1804L16.6838 50.7505C15.9637 51.2675 14.9788 51.2042 14.3307 50.5994L2.09069 39.1753C1.71391 38.8237 1.5 38.3314 1.5 37.816Z" fill="white" stroke="#EC6C5A" stroke-width="2" stroke-linecap="round" stroke-linejoin="round"/>
<circle cx="10.332" cy="30.7217" r="1.85938" fill="#EC6C5A"/>
<circle cx="38.2227" cy="14.917" r="1.85938" fill="#5E68DF"/>
<circle cx="24.2773" cy="30.7217" r="1.85938" fill="#EC6C5A"/>
<circle cx="52.168" cy="14.917" r="1.85938" fill="#5E68DF"/>
<path d="M12.1914 36.7646C13.5859 38.779 17.4906 41.599 21.9531 36.7646" stroke="#EC6C5A" stroke-width="1.85938" stroke-linecap="round" stroke-linejoin="round"/>
<path d="M49.8438 23.6294C48.4492 21.6151 44.5445 18.795 40.082 23.6294" stroke="#5E68DF" stroke-width="1.85938" stroke-linecap="round" stroke-linejoin="round"/>
</svg>
