<svg width="50" height="51" viewBox="0 0 50 51" fill="none" xmlns="http://www.w3.org/2000/svg">
<path d="M7.55816 41.2081H4.90405V35.727C4.90405 34.9988 5.50294 34.3999 6.23111 34.3999H7.55816V41.2081Z" stroke="#EC6C5A" stroke-width="1.5"/>
<path d="M18.693 34.4001H19.1809L19.3786 33.954L20.4896 31.4479L22.957 36.8484L21.2987 40.47C21.0711 40.9159 20.6276 41.1875 20.1261 41.1875L20.1245 41.1875L11.1348 41.2067V34.4001H18.693Z" stroke="#EC6C5A" stroke-width="1.5"/>
<path d="M43.6182 34.3999C43.9986 34.3999 44.3277 34.5478 44.5626 34.7826C44.7974 35.0174 44.9452 35.3466 44.9452 35.727V41.2081H42.2911V34.3999H43.6182Z" stroke="#EC6C5A" stroke-width="1.5"/>
<path d="M26.73 17.2762L26.7306 17.275L30.1885 9.4751H35.4901L27.6669 26.5509C27.5125 26.888 27.51 27.2752 27.6602 27.6143L30.3253 33.6297C30.5327 34.0979 30.9966 34.3997 31.5087 34.3997H38.7127V41.2063L29.7229 41.1872H29.7213C29.2198 41.1872 28.7763 40.9155 28.5487 40.4696L25.607 34.0474L25.4425 33.6775L25.4426 33.6774L25.4391 33.6699L22.282 26.774L22.2819 26.7739L14.3566 9.4751H19.6574L24.1125 19.567C24.4259 20.2769 25.434 20.2522 25.7197 19.5443L26.73 17.2762ZM35.6236 9.18371L35.6234 9.1841L35.6236 9.18371Z" stroke="#EC6C5A" stroke-width="1.5"/>
<circle cx="24.4155" cy="31.3217" r="4.90954" fill="white" stroke="#5E68DF" stroke-width="1.5"/>
</svg>
