<svg width="25" height="46" viewBox="0 0 25 46" fill="none" xmlns="http://www.w3.org/2000/svg">
<path d="M19.3788 16.5234C18.8357 22.6105 15.9673 29.7088 14.4982 34.4504L9.65721 34.5121C9.53508 31.6095 7.28839 24.6858 7.44918 16.6755C7.60998 8.6651 8.69424 5.43909 10.1394 3.44056C11.9636 0.918084 16.1538 -0.131723 18.1789 3.33805C20.104 6.63663 19.6066 13.9683 19.3788 16.5234Z" fill="white"/>
<path fill-rule="evenodd" clip-rule="evenodd" d="M10.7284 2.23766C10.9776 2.30594 11.1254 2.56699 11.0583 2.82073C10.8753 3.51298 10.5999 4.6629 10.3713 5.85281C10.1409 7.05211 9.96519 8.25584 9.9675 9.07213C9.97125 10.4418 9.85519 12.6894 9.75596 14.6107C9.69817 15.7308 9.64606 16.7401 9.62673 17.3997C9.60049 18.2974 9.6751 21.5795 9.83019 24.796C9.9075 26.4012 10.0045 27.9805 10.118 29.2291C10.1747 29.854 10.2351 30.3899 10.2983 30.8021C10.3299 31.0084 10.3613 31.1781 10.392 31.3096C10.4246 31.449 10.4501 31.5175 10.4608 31.5392C10.5772 31.7737 10.4849 32.0598 10.2545 32.1784C10.024 32.2969 9.74289 32.2029 9.62644 31.9684C9.5645 31.8436 9.51903 31.6861 9.48248 31.5296C9.44408 31.365 9.40828 31.1687 9.37458 30.9487C9.30713 30.5084 9.24465 29.9502 9.18709 29.3167C9.07184 28.0485 8.97408 26.4534 8.89642 24.8426C8.74141 21.6271 8.66482 18.3109 8.6923 17.3715C8.71296 16.6652 8.76682 15.6265 8.82575 14.4898C8.924 12.5951 9.03636 10.4281 9.03262 9.0748C9.03009 8.15776 9.22237 6.87492 9.45383 5.67018C9.68712 4.45605 9.9676 3.28446 10.1555 2.57348C10.2226 2.31974 10.479 2.16939 10.7284 2.23766Z" fill="#EC6C5A"/>
<path fill-rule="evenodd" clip-rule="evenodd" d="M13.9695 0.650118C14.2277 0.650219 14.4368 0.863316 14.4367 1.12608C14.4362 2.516 14.3512 5.75187 13.9945 7.35692C13.7896 8.27852 13.5999 10.5908 13.4322 12.9288C13.3941 13.4596 13.3573 13.991 13.3216 14.5047C13.2028 16.2156 13.0977 17.7296 13.0084 18.368C12.8292 19.6474 12.1116 27.1069 11.7739 30.6924C11.7492 30.9539 11.521 31.1456 11.264 31.1206C11.007 31.0955 10.8187 30.8632 10.8434 30.6015C11.1793 27.0343 11.8997 19.5415 12.0828 18.2337C12.167 17.6322 12.2682 16.1763 12.3861 14.4789C12.4224 13.9561 12.4604 13.4104 12.4998 12.8595C12.6647 10.5602 12.8583 8.1565 13.0827 7.14697C13.4126 5.66218 13.5013 2.5324 13.5019 1.12572C13.502 0.86295 13.7113 0.650017 13.9695 0.650118Z" fill="#EC6C5A"/>
<path fill-rule="evenodd" clip-rule="evenodd" d="M15.441 0.73604C15.6968 0.70132 15.9319 0.884322 15.9661 1.14478C16.2018 2.94498 16.6311 7.24151 16.4335 9.92122C16.1907 13.2147 15.5044 17.9271 14.8429 20.086C14.5963 20.8908 14.1513 23.3111 13.6901 26.0599C13.2322 28.789 12.7664 31.7913 12.4774 33.7226C12.4386 33.9824 12.2001 34.1609 11.9449 34.1213C11.6897 34.0818 11.5143 33.8391 11.5532 33.5793C11.8428 31.6441 12.3095 28.6359 12.7686 25.8997C13.2243 23.1831 13.6806 20.6837 13.9505 19.8028C14.58 17.748 15.2601 13.1214 15.5013 9.84997C15.6909 7.27777 15.2747 3.06732 15.0394 1.27052C15.0053 1.01005 15.1851 0.77076 15.441 0.73604Z" fill="#EC6C5A"/>
<path fill-rule="evenodd" clip-rule="evenodd" d="M17.4524 1.81033C17.702 1.74346 17.9577 1.89525 18.0234 2.14937C18.5363 4.13308 19.4872 9.05844 19.151 12.8548C18.7363 17.5369 17.9093 20.8572 17.0365 23.5751C16.3467 25.723 14.9219 30.3004 14.2954 32.3219C14.2177 32.5725 13.9551 32.7116 13.7089 32.6325C13.4628 32.5534 13.3262 32.2861 13.4038 32.0356C14.0301 30.015 15.4563 25.4328 16.1479 23.2794C17.0017 20.6208 17.8122 17.3712 18.2198 12.7694C18.5414 9.13872 17.6233 4.34098 17.1193 2.39152C17.0536 2.1374 17.2027 1.87719 17.4524 1.81033Z" fill="#EC6C5A"/>
<path d="M4.89336 34.4349C4.61093 32.696 5.92881 31.1146 7.66038 31.1146H16.7369C18.4685 31.1146 19.7863 32.696 19.5039 34.4349L18.2188 42.3472C17.9951 43.7254 16.8242 44.7363 15.4518 44.7363H8.94542C7.57304 44.7363 6.40224 43.7254 6.1784 42.3472L4.89336 34.4349Z" fill="white"/>
<path fill-rule="evenodd" clip-rule="evenodd" d="M7.66068 30.1627H16.7372C19.046 30.1627 20.8032 32.2712 20.4266 34.5898L19.1415 42.502C18.8431 44.3396 17.282 45.6875 15.4522 45.6875H8.94573C7.11588 45.6875 5.55482 44.3396 5.25637 42.502L3.97132 34.5898C3.59476 32.2712 5.35192 30.1627 7.66068 30.1627ZM7.66068 31.1142C5.92912 31.1142 4.61124 32.6956 4.89366 34.4345L6.17871 42.3468C6.40255 43.7251 7.57335 44.7359 8.94573 44.7359H15.4522C16.8245 44.7359 17.9954 43.7251 18.2192 42.3468L19.5042 34.4345C19.7866 32.6956 18.4688 31.1142 16.7372 31.1142H7.66068Z" fill="#EC6C5A"/>
<path d="M20.0442 31.1146H4.3551L4.99173 35.0345H19.4076L20.0442 31.1146Z" fill="#EC6C5A"/>
<path fill-rule="evenodd" clip-rule="evenodd" d="M4.7537 36.8501C4.7537 36.5873 4.96297 36.3743 5.22112 36.3743H11.3967C11.6548 36.3743 11.8641 36.5873 11.8641 36.8501C11.8641 37.1128 11.6548 37.3259 11.3967 37.3259H5.22112C4.96297 37.3259 4.7537 37.1128 4.7537 36.8501Z" fill="#EC6C5A"/>
<path fill-rule="evenodd" clip-rule="evenodd" d="M7.32281 42.9977C7.32281 42.7349 7.53209 42.5219 7.79024 42.5219H18.3834C18.6415 42.5219 18.8508 42.7349 18.8508 42.9977C18.8508 43.2605 18.6415 43.4734 18.3834 43.4734H7.79024C7.53209 43.4734 7.32281 43.2605 7.32281 42.9977Z" fill="#EC6C5A"/>
<path d="M1.55264 30.745C1.55264 29.7329 2.35869 28.9125 3.35301 28.9125H21.0459C22.0402 28.9125 22.8462 29.7329 22.8462 30.745C22.8462 31.7571 22.0402 32.5776 21.0459 32.5776H3.35301C2.35869 32.5776 1.55264 31.7571 1.55264 30.745Z" fill="white"/>
<path fill-rule="evenodd" clip-rule="evenodd" d="M3.35121 27.961H21.0441C22.5547 27.961 23.7793 29.2075 23.7793 30.7451C23.7793 32.2827 22.5547 33.5292 21.0441 33.5292H3.35121C1.84059 33.5292 0.615986 32.2827 0.615986 30.7451C0.615986 29.2075 1.84059 27.961 3.35121 27.961ZM3.35121 28.9126C2.35689 28.9126 1.55085 29.733 1.55085 30.7451C1.55085 31.7572 2.35689 32.5777 3.35121 32.5777H21.0441C22.0385 32.5777 22.8445 31.7572 22.8445 30.7451C22.8445 29.733 22.0385 28.9126 21.0441 28.9126H3.35121Z" fill="#EC6C5A"/>
<path d="M18.2692 10.599C19.0705 9.13093 21.25 6.39051 23.5577 7.17349C26.4423 8.15221 21.1538 12.5565 18.2692 10.599Z" fill="#5E68DF"/>
<path d="M17.3678 20.6917C17.7453 19.9837 18.772 18.6622 19.8591 19.0398C21.2181 19.5117 18.7267 21.6356 17.3678 20.6917Z" fill="#5E68DF"/>
<path d="M12.8878 13.311C13.1159 12.6031 13.7361 11.2816 14.3928 11.6592C15.2137 12.1312 13.7087 14.255 12.8878 13.311Z" fill="#5E68DF"/>
<path d="M16.1865 8.82557C16.4145 8.11765 17.0348 6.79618 17.6914 7.17374C18.5123 7.64569 17.0074 9.76952 16.1865 8.82557Z" fill="#5E68DF"/>
<path d="M18.5096 5.34508C18.7376 4.63715 19.3579 3.31569 20.0145 3.69325C20.8355 4.1652 19.3305 6.28903 18.5096 5.34508Z" fill="#5E68DF"/>
<path d="M12.5 18.8405C12.272 18.4471 11.6517 17.7127 10.9951 17.9226C10.1741 18.1849 11.6791 19.3651 12.5 18.8405Z" fill="#5E68DF"/>
<path d="M15.225 15.381C14.9969 14.9877 14.3767 14.2532 13.72 14.4631C12.8991 14.7254 14.4041 15.9056 15.225 15.381Z" fill="#5E68DF"/>
<path d="M15.8466 7.88148C15.6186 7.48809 14.9984 6.75372 14.3416 6.96354C13.5208 7.22581 15.0258 8.40605 15.8466 7.88148Z" fill="#5E68DF"/>
<path d="M18.5096 6.033C18.2816 5.63959 17.6613 4.90523 17.0047 5.11505C16.1837 5.37732 17.6887 6.55756 18.5096 6.033Z" fill="#5E68DF"/>
<path d="M13.9423 4.05716C13.7143 3.34923 13.094 2.02777 12.4374 2.40533C11.6164 2.87728 13.1214 5.00111 13.9423 4.05716Z" fill="#5E68DF"/>
<path d="M17.1481 21.4898C16.8964 21.1358 16.2119 20.4751 15.4871 20.6639C14.5813 20.8999 16.2421 21.9618 17.1481 21.4898Z" fill="#5E68DF"/>
<path d="M9.61539 10.5917C9.2379 9.5299 8.21117 7.5477 7.12404 8.11404C5.76512 8.82197 8.25647 12.0077 9.61539 10.5917Z" fill="#5E68DF"/>
<path d="M9.61539 7.65562C9.99288 6.59373 11.0196 4.61153 12.1067 5.17787C13.4657 5.8858 10.9743 9.07154 9.61539 7.65562Z" fill="#5E68DF"/>
<path d="M9.28391 16.8061C9.55237 16.3449 10.2826 15.4836 11.0557 15.7297C12.0221 16.0373 10.2504 17.4214 9.28391 16.8061Z" fill="#5E68DF"/>
<path d="M8.99001 16.3259C8.72156 15.8645 7.99136 15.0033 7.2182 15.2494C6.25177 15.557 8.02357 16.9411 8.99001 16.3259Z" fill="#5E68DF"/>
</svg>
