<svg width="39" height="60" viewBox="0 0 39 60" fill="none" xmlns="http://www.w3.org/2000/svg">
<path d="M29.05 30.0658V28.0658H27.05V30.0658H29.05ZM34.9 30.0658H36.9V28.0658H34.9V30.0658ZM34.9 43.3658L36.0953 44.9693L36.9 44.3695V43.3658H34.9ZM28.4 46.7158L29.0325 48.6132L29.0438 48.6094L29.0551 48.6055L28.4 46.7158ZM11.65 45.5658L10.6577 47.3023L10.6666 47.3073L11.65 45.5658ZM5 39.0658L3.27771 40.0826L3.28317 40.0917L5 39.0658ZM5.05 20.8658L6.7519 21.9164L6.75759 21.907L5.05 20.8658ZM11.85 14.4158L12.8091 16.1708L12.8162 16.167L11.85 14.4158ZM35.15 17.0658L36.7364 18.2837L37.8711 16.8057L36.477 15.5694L35.15 17.0658ZM31.35 22.0158L29.9725 23.4658L31.5834 24.9962L32.9364 23.2337L31.35 22.0158ZM26.7 19.0658L25.9511 20.9203L25.9633 20.9252L26.7 19.0658ZM15.35 19.6158L16.332 21.3582L16.3423 21.3523L15.35 19.6158ZM11 23.9158L9.2713 22.91L11 23.9158ZM11 35.9658L9.2713 36.9716L9.27808 36.9833L9.28501 36.9948L11 35.9658ZM15.4 40.3158L14.3942 42.0445L15.4 40.3158ZM25.25 41.3658L25.7929 43.2907L25.8088 43.2862L25.8247 43.2815L25.25 41.3658ZM29.05 39.7158L30.0577 41.4434L31.05 40.8646V39.7158H29.05ZM29.05 32.0658H34.9V28.0658H29.05V32.0658ZM32.9 30.0658V43.3658H36.9V30.0658H32.9ZM33.7047 41.7623C32.0592 42.989 30.081 44.0163 27.7449 44.8261L29.0551 48.6055C31.719 47.682 34.0742 46.476 36.0953 44.9693L33.7047 41.7623ZM27.7675 44.8185C25.4516 45.5904 23.215 45.9658 21.05 45.9658V49.9658C23.685 49.9658 26.3484 49.5079 29.0325 48.6132L27.7675 44.8185ZM21.05 45.9658C17.9416 45.9658 15.15 45.2454 12.6334 43.8243L10.6666 47.3073C13.8167 49.0862 17.2918 49.9658 21.05 49.9658V45.9658ZM12.6423 43.8293C10.1369 42.3977 8.17141 40.4741 6.71683 38.0399L3.28317 40.0917C5.09526 43.1242 7.56313 45.534 10.6577 47.3023L12.6423 43.8293ZM6.72227 38.0491C5.27776 35.6022 4.55 32.9055 4.55 29.9158H0.55C0.55 33.5928 1.45557 36.9961 3.27773 40.0826L6.72227 38.0491ZM4.55 29.9158C4.55 26.9339 5.29017 24.2843 6.75187 21.9164L3.34813 19.8153C1.4765 22.8473 0.55 26.2311 0.55 29.9158H4.55ZM6.75759 21.907C8.2378 19.4795 10.2436 17.5729 12.8091 16.1708L10.8909 12.6608C7.72304 14.3921 5.19553 16.7855 3.34241 19.8246L6.75759 21.907ZM12.8162 16.167C15.4034 14.7395 18.2681 14.0158 21.45 14.0158V10.0158C17.6319 10.0158 14.0966 10.8921 10.8838 12.6647L12.8162 16.167ZM21.45 14.0158C23.7043 14.0158 25.9365 14.4206 28.1562 15.2416L29.5438 11.49C26.8969 10.511 24.1957 10.0158 21.45 10.0158V14.0158ZM28.1562 15.2416C30.3798 16.064 32.2596 17.1757 33.823 18.5622L36.477 15.5694C34.5071 13.8226 32.1869 12.4676 29.5438 11.49L28.1562 15.2416ZM33.5636 15.8479L29.7636 20.7979L32.9364 23.2337L36.7364 18.2837L33.5636 15.8479ZM32.7275 20.5658C31.2025 19.1171 29.4331 17.9975 27.4367 17.2065L25.9633 20.9252C27.5002 21.5342 28.8308 22.3812 29.9725 23.4658L32.7275 20.5658ZM27.4489 17.2113C25.4916 16.4209 23.488 16.0158 21.45 16.0158V20.0158C22.9453 20.0158 24.4417 20.3108 25.9511 20.9203L27.4489 17.2113ZM21.45 16.0158C18.9104 16.0158 16.5339 16.6358 14.3577 17.8793L16.3423 21.3523C17.8995 20.4625 19.5896 20.0158 21.45 20.0158V16.0158ZM14.368 17.8735C12.2221 19.083 10.5154 20.7717 9.2713 22.91L12.7287 24.9216C13.6179 23.3933 14.8112 22.2153 16.332 21.3581L14.368 17.8735ZM9.2713 22.91C8.02298 25.0556 7.4 27.4038 7.4 29.9158H11.4C11.4 28.0945 11.8437 26.4427 12.7287 24.9216L9.2713 22.91ZM7.4 29.9158C7.4 32.4554 8.02016 34.8212 9.2713 36.9716L12.7287 34.96C11.8465 33.4438 11.4 31.7762 11.4 29.9158H7.4ZM9.28501 36.9948C10.5572 39.115 12.2668 40.8068 14.3942 42.0445L16.4058 38.5871C14.8665 37.6916 13.6428 36.4833 12.715 34.9368L9.28501 36.9948ZM14.3942 42.0445C16.5493 43.2984 18.9328 43.9158 21.5 43.9158V39.9158C19.6006 39.9158 17.9173 39.4666 16.4058 38.5871L14.3942 42.0445ZM21.5 43.9158C22.9049 43.9158 24.3381 43.7011 25.7929 43.2907L24.7071 39.4409C23.5619 39.7639 22.4951 39.9158 21.5 39.9158V43.9158ZM25.8247 43.2815C27.309 42.8362 28.7211 42.2231 30.0577 41.4434L28.0423 37.9883C26.979 38.6085 25.8577 39.0955 24.6753 39.4502L25.8247 43.2815ZM31.05 39.7158V30.0658H27.05V39.7158H31.05Z" fill="#EC6C5A"/>
<circle cx="31.8637" cy="18.2309" r="5.8637" fill="white" stroke="#5E68DF" stroke-width="2"/>
</svg>
