<svg width="34" height="50" viewBox="0 0 34 50" fill="none" xmlns="http://www.w3.org/2000/svg">
<path fill-rule="evenodd" clip-rule="evenodd" d="M17.5151 37.5059C18.0606 37.5059 18.5028 37.9481 18.5028 38.4936V47.1111C18.5028 47.6566 18.0606 48.0988 17.5151 48.0988C16.9696 48.0988 16.5273 47.6566 16.5273 47.1111V38.4936C16.5273 37.9481 16.9696 37.5059 17.5151 37.5059Z" fill="#EC6C5A"/>
<path fill-rule="evenodd" clip-rule="evenodd" d="M18.1274 1.82123C18.194 2.36265 17.8092 2.85561 17.2677 2.92228C15.8002 3.10299 14.3309 3.47701 12.8927 4.05919C4.06177 7.63387 -0.19925 17.6906 3.37543 26.5215C6.9501 35.3524 17.0068 39.6134 25.8377 36.0387C27.4147 35.4004 28.8445 34.5563 30.1097 33.5504C30.5367 33.2109 31.158 33.2818 31.4975 33.7088C31.837 34.1358 31.7661 34.7572 31.3391 35.0967C29.9272 36.2192 28.3333 37.1598 26.579 37.8699C16.7367 41.8539 5.52833 37.105 1.54428 27.2627C-2.43976 17.4205 2.30923 6.2121 12.1514 2.22805C13.7513 1.58043 15.3887 1.16325 17.0263 0.961608C17.5677 0.894938 18.0607 1.2798 18.1274 1.82123Z" fill="#EC6C5A"/>
<path fill-rule="evenodd" clip-rule="evenodd" d="M11.0673 1.42712C11.5539 1.18062 12.1482 1.37529 12.3947 1.86193L30.0507 36.7183C30.2972 37.2049 30.1025 37.7993 29.6159 38.0458C29.1292 38.2923 28.5349 38.0976 28.2884 37.6109L10.6324 2.75459C10.3859 2.26795 10.5806 1.67362 11.0673 1.42712Z" fill="#EC6C5A"/>
<path d="M33.8761 20.4414C33.8761 28.4923 27.3495 35.019 19.2985 35.019C11.2476 35.019 4.72095 28.4923 4.72095 20.4414C4.72095 12.3904 11.2476 5.86377 19.2985 5.86377C27.3495 5.86377 33.8761 12.3904 33.8761 20.4414Z" fill="white"/>
<path fill-rule="evenodd" clip-rule="evenodd" d="M32.5132 20.4412C32.5132 27.7391 26.5971 33.6553 19.2991 33.6553C12.0011 33.6553 6.08496 27.7391 6.08496 20.4412C6.08496 13.1432 12.0011 7.22705 19.2991 7.22705C26.5971 7.22705 32.5132 13.1432 32.5132 20.4412ZM19.2991 32.8168C26.1339 32.8168 31.6747 27.276 31.6747 20.4412C31.6747 13.6063 26.1339 8.06559 19.2991 8.06559C12.4642 8.06559 6.9235 13.6063 6.9235 20.4412C6.9235 27.276 12.4642 32.8168 19.2991 32.8168Z" fill="#5E68DF" stroke="#5E68DF" stroke-linecap="round" stroke-linejoin="round"/>
<path d="M17.3718 44.0674C12.7164 44.0674 8.94238 45.9415 8.94238 48.2534H25.8013C25.8013 45.9415 22.0273 44.0674 17.3718 44.0674Z" fill="white"/>
<path d="M7.67573 48.2534C7.67573 48.953 8.24291 49.5202 8.94257 49.5202H25.8015C26.5011 49.5202 27.0683 48.953 27.0683 48.2534C27.0683 46.3536 25.5515 44.9809 23.896 44.1588C22.1609 43.2971 19.8526 42.8005 17.372 42.8005C14.8915 42.8005 12.5832 43.2971 10.848 44.1588C9.19249 44.9809 7.67573 46.3536 7.67573 48.2534ZM17.372 44.3464C19.3272 44.3464 21.1165 44.6824 22.5196 45.2378C23.9323 45.797 24.9119 46.5614 25.3145 47.3879C25.4082 47.5802 25.4708 47.7759 25.5011 47.9743H9.24293C9.27324 47.7759 9.3358 47.5802 9.42951 47.3879C9.8321 46.5614 10.8117 45.797 12.2244 45.2378C13.6275 44.6824 15.4168 44.3464 17.372 44.3464Z" fill="#EC6C5A" stroke="#EC6C5A" stroke-width="0.558207" stroke-linecap="round" stroke-linejoin="round"/>
</svg>
