<svg width="36" height="51" viewBox="0 0 36 51" fill="none" xmlns="http://www.w3.org/2000/svg">
<path d="M2.84942 1.18057C2.6587 0.608432 2.0403 0.299228 1.46816 0.48994C0.89603 0.680651 0.586826 1.29906 0.777537 1.87119L2.84942 1.18057ZM15.5192 46.0962C15.7099 46.6684 16.3283 46.9776 16.9005 46.7868C17.4726 46.5961 17.7818 45.9777 17.5911 45.4056L15.5192 46.0962ZM0.777537 1.87119L15.5192 46.0962L17.5911 45.4056L2.84942 1.18057L0.777537 1.87119Z" fill="#EC6C5A"/>
<path d="M14.9171 40.8369C16.5551 39.3809 20.5954 37.1243 23.6529 41.929C27.4748 47.9349 18.739 52.3027 16.5551 45.7509" stroke="#EC6C5A" stroke-width="2.18395"/>
<circle cx="31.8135" cy="45.5259" r="3" stroke="#5E68DF" stroke-width="2"/>
</svg>
