<svg width="44" height="53" viewBox="0 0 44 53" fill="none" xmlns="http://www.w3.org/2000/svg">
<path d="M0.607422 47.9702C0.607422 47.2192 1.21625 46.6104 1.96727 46.6104H41.7969C42.5479 46.6104 43.1568 47.2192 43.1568 47.9702C43.1568 48.7212 42.5479 49.3301 41.7969 49.3301H1.96727C1.21625 49.3301 0.607422 48.7212 0.607422 47.9702Z" fill="#EC6C5A"/>
<path d="M0.607422 4.45507C0.607422 3.70404 1.21625 3.09521 1.96727 3.09521H41.7969C42.5479 3.09521 43.1568 3.70404 43.1568 4.45507C43.1568 5.20609 42.5479 5.81492 41.7969 5.81492H1.96727C1.21625 5.81492 0.607422 5.20609 0.607422 4.45507Z" fill="#EC6C5A"/>
<path d="M5.67236 8.18987C5.67236 6.11561 7.35389 4.43408 9.42815 4.43408H34.2662C36.3405 4.43408 38.022 6.11561 38.022 8.18987V44.3677C38.022 46.4419 36.3405 48.1235 34.2662 48.1235H9.42815C7.35389 48.1235 5.67236 46.4419 5.67236 44.3677V8.18987Z" fill="white"/>
<path d="M34.2665 3.24561H9.42838C6.69748 3.24561 4.48364 5.45944 4.48364 8.19034V44.3681C4.48364 47.099 6.69748 49.3129 9.42838 49.3129H34.2665C36.9974 49.3129 39.2112 47.099 39.2112 44.3681V8.19035C39.2112 5.45944 36.9974 3.24561 34.2665 3.24561ZM5.92259 8.19034C5.92259 6.25415 7.49219 4.68455 9.42838 4.68455H34.2665C36.2027 4.68455 37.7723 6.25415 37.7723 8.19035V44.3681C37.7723 46.3043 36.2027 47.8739 34.2665 47.8739H9.42838C7.49219 47.8739 5.92259 46.3043 5.92259 44.3681V8.19034Z" fill="#EC6C5A" stroke="#EC6C5A" stroke-width="0.5" stroke-linecap="round" stroke-linejoin="round"/>
<path d="M5.67236 42.8232H38.022V44.4639H5.67236V42.8232Z" fill="#EC6C5A"/>
<path d="M2.62256 4.66645C2.62256 3.11075 3.8837 1.84961 5.4394 1.84961H38.2556C39.8113 1.84961 41.0725 3.11075 41.0725 4.66645V4.92969C41.0725 6.48539 39.8113 7.74653 38.2556 7.74653H5.4394C3.8837 7.74653 2.62256 6.48539 2.62256 4.92969V4.66645Z" fill="white"/>
<path fill-rule="evenodd" clip-rule="evenodd" d="M5.43865 0.910645H38.2549C40.3292 0.910645 42.0107 2.59217 42.0107 4.66644V4.92967C42.0107 7.00394 40.3292 8.68546 38.2549 8.68546H5.43865C3.36438 8.68546 1.68286 7.00394 1.68286 4.92967V4.66644C1.68286 2.59217 3.36439 0.910645 5.43865 0.910645ZM5.43865 1.84959C3.88295 1.84959 2.62181 3.11074 2.62181 4.66644V4.92967C2.62181 6.48537 3.88295 7.74652 5.43865 7.74652H38.2549C39.8106 7.74652 41.0717 6.48537 41.0717 4.92967V4.66644C41.0717 3.11074 39.8106 1.84959 38.2549 1.84959H5.43865Z" fill="#EC6C5A"/>
<path d="M5.06186 7.7464H38.6316C39.5246 7.7464 40.3056 7.26663 40.7309 6.55078L2.98755 6.59198C3.41799 7.28498 4.18604 7.7464 5.06186 7.7464Z" fill="#EC6C5A"/>
<path d="M2.62256 47.7753C2.62256 46.2196 3.8837 44.9585 5.4394 44.9585H38.2556C39.8113 44.9585 41.0725 46.2196 41.0725 47.7753V48.3575C41.0725 49.9132 39.8113 51.1743 38.2556 51.1743H5.4394C3.8837 51.1743 2.62256 49.9132 2.62256 48.3575V47.7753Z" fill="white"/>
<path fill-rule="evenodd" clip-rule="evenodd" d="M5.43865 44.019H38.2549C40.3292 44.019 42.0107 45.7006 42.0107 47.7748V48.357C42.0107 50.4312 40.3292 52.1128 38.2549 52.1128H5.43865C3.36438 52.1128 1.68286 50.4312 1.68286 48.357V47.7748C1.68286 45.7006 3.36439 44.019 5.43865 44.019ZM5.43865 44.958C3.88295 44.958 2.62181 46.2191 2.62181 47.7748V48.357C2.62181 49.9127 3.88295 51.1738 5.43865 51.1738H38.2549C39.8106 51.1738 41.0717 49.9127 41.0717 48.357V47.7748C41.0717 46.2191 39.8106 44.958 38.2549 44.958H5.43865Z" fill="#EC6C5A"/>
<path fill-rule="evenodd" clip-rule="evenodd" d="M9.33985 12.8806C9.33985 12.6213 9.55004 12.4111 9.80933 12.4111H34.1595C34.4188 12.4111 34.629 12.6213 34.629 12.8806C34.629 13.1399 34.4188 13.3501 34.1595 13.3501H9.80933C9.55004 13.3501 9.33985 13.1399 9.33985 12.8806Z" fill="#5E68DF"/>
<path fill-rule="evenodd" clip-rule="evenodd" d="M9.33984 20.9634C9.33984 20.7042 9.55003 20.494 9.80932 20.494H34.1595C34.4188 20.494 34.629 20.7042 34.629 20.9634C34.629 21.2227 34.4188 21.4329 34.1595 21.4329H9.80932C9.55003 21.4329 9.33984 21.2227 9.33984 20.9634Z" fill="#5E68DF"/>
<path fill-rule="evenodd" clip-rule="evenodd" d="M9.33984 23.4544C9.33984 23.1951 9.55003 22.9849 9.80932 22.9849H34.1595C34.4188 22.9849 34.629 23.1951 34.629 23.4544C34.629 23.7137 34.4188 23.9238 34.1595 23.9238H9.80932C9.55003 23.9238 9.33984 23.7137 9.33984 23.4544Z" fill="#5E68DF"/>
<path fill-rule="evenodd" clip-rule="evenodd" d="M9.33984 25.9454C9.33984 25.6861 9.55003 25.4759 9.80932 25.4759H34.1595C34.4188 25.4759 34.629 25.6861 34.629 25.9454C34.629 26.2046 34.4188 26.4148 34.1595 26.4148H9.80932C9.55003 26.4148 9.33984 26.2046 9.33984 25.9454Z" fill="#5E68DF"/>
<path fill-rule="evenodd" clip-rule="evenodd" d="M9.33984 28.3855C9.33984 28.1262 9.55003 27.916 9.80932 27.916H24.3991C24.6584 27.916 24.8686 28.1262 24.8686 28.3855C24.8686 28.6447 24.6584 28.8549 24.3991 28.8549H9.80932C9.55003 28.8549 9.33984 28.6447 9.33984 28.3855Z" fill="#5E68DF"/>
<path fill-rule="evenodd" clip-rule="evenodd" d="M9.33984 15.3151C9.33984 15.0559 9.55003 14.8457 9.80932 14.8457H23.1014C23.3607 14.8457 23.5709 15.0559 23.5709 15.3151C23.5709 15.5744 23.3607 15.7846 23.1014 15.7846H9.80932C9.55003 15.7846 9.33984 15.5744 9.33984 15.3151Z" fill="#5E68DF"/>
<path fill-rule="evenodd" clip-rule="evenodd" d="M9.33984 37.632C9.33984 37.3727 9.55003 37.1625 9.80932 37.1625H16.5945C16.8537 37.1625 17.0639 37.3727 17.0639 37.632C17.0639 37.8912 16.8537 38.1014 16.5945 38.1014H9.80932C9.55003 38.1014 9.33984 37.8912 9.33984 37.632Z" fill="#5E68DF"/>
<path fill-rule="evenodd" clip-rule="evenodd" d="M28.3546 35.0929C28.5307 34.9168 28.7695 34.8179 29.0185 34.8179H32.1552C32.6737 34.8179 33.0941 35.2383 33.0941 35.7568V40.4979C33.0941 40.8526 32.8943 41.1769 32.5776 41.3365C32.2609 41.496 31.8813 41.4635 31.5963 41.2524L30.5869 40.5047L29.5774 41.2524C29.2924 41.4635 28.9128 41.496 28.5961 41.3365C28.2794 41.1769 28.0796 40.8526 28.0796 40.4979V35.7568C28.0796 35.5078 28.1785 35.269 28.3546 35.0929ZM30.5869 39.3363L32.1552 40.4979V35.7568H29.0185V40.4979L30.5869 39.3363Z" fill="#5E68DF"/>
<path d="M34.2617 34.452C34.2617 34.9019 33.735 35.1442 33.5834 35.5408C33.4293 35.9436 33.6481 36.4995 33.3678 36.8171C33.028 37.2021 32.4184 37.0698 31.9424 37.2803C31.5007 37.4755 31.2002 38.0276 30.6862 38.0276C30.1722 38.0276 29.8717 37.4755 29.43 37.2803C28.954 37.0698 28.3443 37.2021 28.0045 36.8171C27.7242 36.4995 27.943 35.9436 27.789 35.5408C27.6373 35.1442 27.1106 34.9019 27.1106 34.452C27.1106 34.0021 27.6373 33.7598 27.789 33.3632C27.9257 33.0058 27.6745 32.4877 27.912 32.196C28.228 31.808 28.6237 31.9311 29.0742 31.7031C29.5586 31.4581 30.1062 30.8765 30.6862 30.8765C31.2661 30.8765 31.8137 31.4581 32.2981 31.7031C32.7486 31.9311 33.1444 31.808 33.4603 32.196C33.6978 32.4877 33.4467 33.0058 33.5834 33.3632C33.735 33.7598 34.2617 34.0021 34.2617 34.452Z" fill="white"/>
<path fill-rule="evenodd" clip-rule="evenodd" d="M29.7147 31.8568C29.5839 31.9474 29.4365 32.0455 29.2847 32.1223C29.0463 32.2429 28.7984 32.2943 28.64 32.3271C28.6052 32.3343 28.5747 32.3406 28.5496 32.3466C28.4048 32.3809 28.3423 32.4118 28.2794 32.4868C28.2786 32.4931 28.2659 32.5435 28.2793 32.7196C28.2807 32.7371 28.2823 32.7565 28.284 32.7775C28.2909 32.8611 28.2999 32.9684 28.3004 33.0685C28.3012 33.1988 28.2898 33.3643 28.226 33.5312C28.1621 33.6981 28.0652 33.8329 27.9793 33.9368C27.9227 34.0053 27.8531 34.0802 27.7972 34.1403C27.7753 34.1639 27.7555 34.1852 27.7395 34.2029C27.5905 34.3675 27.5786 34.4219 27.5786 34.4523C27.5786 34.4827 27.5905 34.537 27.7395 34.7016C27.7555 34.7193 27.7753 34.7406 27.7972 34.7642C27.8531 34.8243 27.9227 34.8992 27.9793 34.9677C28.0652 35.0716 28.1621 35.2064 28.226 35.3734C28.2897 35.54 28.309 35.7061 28.3156 35.8429C28.3203 35.9391 28.3191 36.0453 28.3181 36.1315C28.3177 36.1611 28.3174 36.1883 28.3174 36.212C28.3169 36.4525 28.3456 36.496 28.355 36.5067C28.4083 36.5671 28.4981 36.6117 28.74 36.651C28.7752 36.6567 28.8162 36.6624 28.8616 36.6687C29.0674 36.6973 29.3637 36.7385 29.6183 36.8511C29.7831 36.924 29.9216 37.024 30.0334 37.1141C30.0907 37.1603 30.1677 37.2269 30.2329 37.2833C30.2718 37.3171 30.3066 37.3472 30.3303 37.367C30.5147 37.5209 30.606 37.5584 30.6847 37.5584C30.7634 37.5584 30.8547 37.5209 31.0391 37.367C31.0628 37.3472 31.0975 37.3171 31.1365 37.2833C31.2017 37.2269 31.2787 37.1603 31.336 37.1141C31.4478 37.024 31.5862 36.924 31.7511 36.8511C32.0057 36.7385 32.302 36.6973 32.5078 36.6687C32.5532 36.6624 32.5942 36.6567 32.6294 36.651C32.8713 36.6117 32.961 36.5671 33.0144 36.5067C33.0238 36.496 33.0524 36.4525 33.052 36.212C33.052 36.1883 33.0516 36.1611 33.0513 36.1315C33.0503 36.0453 33.0491 35.9391 33.0537 35.8429C33.0604 35.7061 33.0797 35.54 33.1434 35.3734C33.2073 35.2064 33.3042 35.0716 33.3901 34.9677C33.4467 34.8992 33.5163 34.8243 33.5721 34.7642C33.5941 34.7406 33.6138 34.7193 33.6299 34.7016C33.7789 34.537 33.7908 34.4827 33.7908 34.4523C33.7908 34.4219 33.7789 34.3675 33.6299 34.2029C33.6138 34.1852 33.5941 34.1639 33.5722 34.1403C33.5163 34.0802 33.4467 34.0053 33.3901 33.9368C33.3042 33.8329 33.2073 33.6981 33.1434 33.5312C33.0796 33.3643 33.0682 33.1988 33.0689 33.0685C33.0695 32.9684 33.0784 32.8611 33.0854 32.7775C33.0871 32.7566 33.0887 32.7371 33.09 32.7196C33.1034 32.5435 33.0908 32.4931 33.0899 32.4868C33.027 32.4118 32.9646 32.3809 32.8198 32.3466C32.7947 32.3406 32.7642 32.3343 32.7293 32.3271C32.571 32.2943 32.3231 32.2429 32.0847 32.1223C31.9329 32.0455 31.7855 31.9474 31.6547 31.8568C31.6099 31.8258 31.5675 31.796 31.5264 31.7671C31.4389 31.7057 31.3571 31.6482 31.27 31.5914C31.009 31.4212 30.8273 31.3462 30.6847 31.3462C30.5421 31.3462 30.3603 31.4212 30.0993 31.5914C30.0123 31.6482 29.9305 31.7057 29.843 31.7671C29.8018 31.796 29.7594 31.8258 29.7147 31.8568ZM29.5864 30.8049C29.8653 30.623 30.2474 30.4072 30.6847 30.4072C31.122 30.4072 31.504 30.623 31.7829 30.8049C31.884 30.8708 31.9879 30.9438 32.0816 31.0096C32.1194 31.0362 32.1556 31.0616 32.1892 31.0849C32.3155 31.1723 32.4182 31.2387 32.5086 31.2845C32.626 31.3439 32.7209 31.3641 32.8624 31.3943C32.9134 31.4051 32.9704 31.4173 33.0366 31.433C33.2776 31.4902 33.5716 31.5911 33.8229 31.8999C34.0712 32.2048 34.0416 32.5907 34.0271 32.7797C34.0269 32.7835 34.0266 32.7872 34.0263 32.7908C34.0239 32.8225 34.0215 32.8513 34.0193 32.8779C34.013 32.9547 34.0082 33.0135 34.0079 33.0741C34.0074 33.1506 34.0159 33.1839 34.0204 33.1958C34.0324 33.2271 34.0582 33.2713 34.1137 33.3385C34.1531 33.3862 34.19 33.4258 34.2354 33.4744C34.2619 33.5029 34.2914 33.5346 34.326 33.5728C34.4783 33.741 34.7297 34.0328 34.7297 34.4523C34.7297 34.8718 34.4783 35.1635 34.326 35.3317C34.2914 35.3699 34.2619 35.4016 34.2354 35.4301C34.19 35.4788 34.1531 35.5184 34.1137 35.5661C34.0582 35.6332 34.0324 35.6774 34.0204 35.7088C34.0071 35.7435 33.996 35.798 33.9916 35.8885C33.9883 35.9548 33.9891 36.016 33.99 36.0907C33.9904 36.1267 33.9909 36.1659 33.991 36.2103C33.9913 36.4278 33.9892 36.8211 33.7183 37.128C33.4319 37.4526 33.0469 37.5344 32.78 37.5778C32.7007 37.5907 32.6306 37.6008 32.5674 37.61C32.3803 37.637 32.2542 37.6553 32.1307 37.7099C32.0747 37.7347 32.0099 37.7769 31.9251 37.8452C31.8685 37.8908 31.8284 37.9259 31.783 37.9657C31.7441 37.9998 31.7012 38.0373 31.6407 38.0878C31.436 38.2587 31.12 38.4973 30.6847 38.4973C30.2494 38.4973 29.9334 38.2587 29.7286 38.0878C29.6681 38.0373 29.6253 37.9998 29.5864 37.9657C29.5409 37.9259 29.5009 37.8908 29.4443 37.8452C29.3594 37.7769 29.2947 37.7347 29.2387 37.7099C29.1152 37.6553 28.989 37.637 28.802 37.61C28.7388 37.6008 28.6687 37.5907 28.5894 37.5778C28.3225 37.5344 27.9375 37.4526 27.651 37.128C27.3801 36.8211 27.378 36.4278 27.3784 36.2103C27.3785 36.1659 27.379 36.1267 27.3794 36.0907C27.3803 36.016 27.381 35.9548 27.3778 35.8885C27.3734 35.798 27.3623 35.7435 27.349 35.7088C27.337 35.6774 27.3112 35.6332 27.2557 35.5661C27.2162 35.5184 27.1793 35.4788 27.134 35.4301C27.1074 35.4016 27.078 35.3699 27.0434 35.3317C26.8911 35.1635 26.6396 34.8718 26.6396 34.4523C26.6396 34.0328 26.8911 33.741 27.0434 33.5728C27.078 33.5346 27.1074 33.5029 27.134 33.4744C27.1793 33.4258 27.2162 33.3862 27.2557 33.3385C27.3112 33.2713 27.337 33.2271 27.349 33.1958C27.3535 33.1839 27.362 33.1506 27.3615 33.0741C27.3612 33.0135 27.3563 32.9548 27.35 32.8779C27.3479 32.8513 27.3455 32.8225 27.3431 32.7908C27.3428 32.7872 27.3425 32.7835 27.3422 32.7797C27.3278 32.5907 27.2982 32.2048 27.5465 31.8999C27.7978 31.5911 28.0918 31.4902 28.3328 31.433C28.399 31.4173 28.456 31.4051 28.5069 31.3943C28.6484 31.3641 28.7434 31.3439 28.8608 31.2845C28.9512 31.2387 29.0539 31.1723 29.1801 31.0849C29.2138 31.0616 29.25 31.0362 29.2878 31.0096C29.3815 30.9438 29.4853 30.8708 29.5864 30.8049Z" fill="#5E68DF"/>
<path fill-rule="evenodd" clip-rule="evenodd" d="M32.452 34.3971C32.452 35.3984 31.6482 36.2259 30.6371 36.2259C29.6261 36.2259 28.8223 35.3984 28.8223 34.3971C28.8223 33.3959 29.6261 32.5684 30.6371 32.5684C31.6482 32.5684 32.452 33.3959 32.452 34.3971ZM30.6371 35.4962C31.2364 35.4962 31.7222 35.0041 31.7222 34.3971C31.7222 33.7902 31.2364 33.2981 30.6371 33.2981C30.0378 33.2981 29.552 33.7902 29.552 34.3971C29.552 35.0041 30.0378 35.4962 30.6371 35.4962Z" fill="#5E68DF"/>
</svg>
