<svg width="45" height="45" viewBox="0 0 45 45" fill="none" xmlns="http://www.w3.org/2000/svg">
<path d="M37.1516 22.7289C37.1516 30.8205 30.592 37.3801 22.5004 37.3801C14.4087 37.3801 7.84912 30.8205 7.84912 22.7289C7.84912 14.6372 14.4087 8.07764 22.5004 8.07764C30.592 8.07764 37.1516 14.6372 37.1516 22.7289Z" fill="white"/>
<path fill-rule="evenodd" clip-rule="evenodd" d="M38.0737 22.7289C38.0737 31.3297 31.1014 38.302 22.5006 38.302C13.8998 38.302 6.92749 31.3297 6.92749 22.7289C6.92749 14.1281 13.8998 7.15576 22.5006 7.15576C31.1014 7.15576 38.0737 14.1281 38.0737 22.7289ZM22.5006 37.3801C30.5922 37.3801 37.1518 30.8205 37.1518 22.7289C37.1518 14.6372 30.5922 8.07762 22.5006 8.07762C14.4089 8.07762 7.84935 14.6372 7.84935 22.7289C7.84935 30.8205 14.4089 37.3801 22.5006 37.3801Z" fill="#EC6C5A"/>
<path fill-rule="evenodd" clip-rule="evenodd" d="M5.4516 12.7044C6.9279 17.475 10.0041 23.1829 14.3067 28.7282C18.6092 34.2736 23.3737 38.6715 27.628 41.2868C29.7521 42.5925 31.7924 43.4808 33.6152 43.8202C35.4369 44.1595 37.1521 43.9662 38.4651 42.9475C39.7781 41.9288 40.3914 40.3154 40.5154 38.4666C40.6395 36.6165 40.286 34.4195 39.5489 32.0376C38.0726 27.267 34.9963 21.5591 30.6938 16.0138C26.3913 10.4684 21.6268 6.07051 17.3725 3.45523C15.2484 2.14946 13.2081 1.26117 11.3853 0.921738C9.56359 0.582527 7.84837 0.77576 6.5354 1.79446C5.22244 2.81316 4.60911 4.42659 4.48509 6.27542C4.36098 8.12545 4.71451 10.3225 5.4516 12.7044ZM15.035 28.1631C6.52996 17.2013 2.97756 5.7217 7.10051 2.5228C11.2234 -0.676091 21.4605 5.61703 29.9655 16.5789C38.4705 27.5407 42.0229 39.0203 37.9 42.2192C33.777 45.4181 23.54 39.125 15.035 28.1631Z" fill="#EC6C5A" stroke="#EC6C5A"/>
<path fill-rule="evenodd" clip-rule="evenodd" d="M41.6588 16.9264C39.1339 21.314 34.8351 26.2449 29.3854 30.7323C23.9357 35.2198 18.2716 38.4926 13.4811 40.1288C11.0909 40.9451 8.84573 41.3791 6.91641 41.3058C4.9889 41.2326 3.20942 40.6394 2.03954 39.2187C0.869652 37.7979 0.628983 35.9377 0.926941 34.032C1.22518 32.1244 2.08184 30.0042 3.3416 27.8151C5.8665 23.4275 10.1653 18.4966 15.615 14.0092C21.0647 9.52172 26.7287 6.24886 31.5193 4.61271C33.9094 3.79637 36.1546 3.36243 38.084 3.43573C40.0115 3.50895 41.7909 4.10206 42.9608 5.52281C44.1307 6.94355 44.3714 8.80377 44.0734 10.7095C43.7752 12.6171 42.9185 14.7373 41.6588 16.9264ZM28.5064 29.6649C39.2169 20.8455 45.2105 10.4302 41.8934 6.4018C38.5762 2.37337 27.2045 6.25724 16.494 15.0766C5.78343 23.8961 -0.210124 34.3113 3.10701 38.3397C6.42414 42.3681 17.7958 38.4843 28.5064 29.6649Z" fill="#EC6C5A"/>
<path d="M44.4408 12.6884C44.4408 13.6603 43.653 14.4481 42.6811 14.4481C41.7092 14.4481 40.9214 13.6603 40.9214 12.6884C40.9214 11.7166 41.7092 10.9287 42.6811 10.9287C43.653 10.9287 44.4408 11.7166 44.4408 12.6884Z" fill="#5E68DF"/>
<path d="M18.6144 14.4482C18.6144 15.4201 17.8265 16.2079 16.8547 16.2079C15.8828 16.2079 15.095 15.4201 15.095 14.4482C15.095 13.4763 15.8828 12.6885 16.8547 12.6885C17.8265 12.6885 18.6144 13.4763 18.6144 14.4482Z" fill="#5E68DF"/>
<path d="M18.3299 37.7123C18.3299 39.213 17.1134 40.4295 15.6127 40.4295C14.112 40.4295 12.8955 39.213 12.8955 37.7123C12.8955 36.2117 14.112 34.9951 15.6127 34.9951C17.1134 34.9951 18.3299 36.2117 18.3299 37.7123Z" fill="#5E68DF"/>
</svg>
