<svg width="63" height="64" viewBox="0 0 63 64" fill="none" xmlns="http://www.w3.org/2000/svg">
<path d="M18.2722 12.2146L12.9307 18.1592C12.3558 18.799 12.822 19.8164 13.682 19.7988L49.5341 19.0626C50.3949 19.045 50.8185 18.0076 50.2163 17.3924L44.4562 11.5085C44.3613 11.4115 44.2304 11.3581 44.0947 11.3609L18.9827 11.8889C18.711 11.8946 18.4538 12.0125 18.2722 12.2146Z" stroke="#EC6C5A" stroke-width="2" stroke-linecap="round" stroke-linejoin="round"/>
<path d="M27.3651 47.8209L12.0433 19.9104L18.8675 12.8755L34.2677 41.3976L27.3651 47.8209Z" fill="white"/>
<path fill-rule="evenodd" clip-rule="evenodd" d="M11.1812 20.3834C10.9736 20.0052 11.0369 19.5358 11.3373 19.2261L18.1615 12.1911C18.3796 11.9664 18.6916 11.8589 19.0018 11.9019C19.312 11.9448 19.5831 12.133 19.7319 12.4085L35.1321 40.9306C35.3447 41.3245 35.2645 41.8122 34.9368 42.1172L28.0342 48.5404C27.8123 48.7468 27.5076 48.8394 27.2083 48.7912C26.9091 48.743 26.6489 48.5595 26.503 48.2938L11.1812 20.3834ZM27.3646 47.8208L34.2672 41.3976L18.867 12.8755L12.0428 19.9104L27.3646 47.8208Z" fill="#EC6C5A" stroke="#EC6C5A" stroke-linecap="round" stroke-linejoin="round"/>
<path d="M37.718 45.374L51.0526 19.0184L44.15 12.3403L29.9264 40.2762L37.718 45.374Z" fill="white" stroke="#EC6C5A" stroke-linecap="round" stroke-linejoin="round"/>
<path fill-rule="evenodd" clip-rule="evenodd" d="M51.9301 19.4621C52.1246 19.0778 52.0461 18.6116 51.7365 18.312L44.8339 11.6339C44.6098 11.4171 44.2961 11.3195 43.9885 11.3709C43.681 11.4222 43.4161 11.6165 43.2746 11.8944L29.051 39.8303C28.8234 40.2773 28.9689 40.824 29.3887 41.0987L37.1803 46.1965C37.4143 46.3496 37.7025 46.3958 37.9726 46.3235C38.2427 46.2512 38.4692 46.0672 38.5955 45.8177L51.9301 19.4621ZM37.7185 45.374L29.9268 40.2762L44.1505 12.3403L51.0531 19.0184L37.7185 45.374Z" fill="#EC6C5A" stroke="#EC6C5A" stroke-linecap="round" stroke-linejoin="round"/>
<path d="M42.1422 41.9642C42.1422 47.5959 37.5768 52.1612 31.9451 52.1612C26.3134 52.1612 21.748 47.5959 21.748 41.9642C21.748 36.3325 26.3134 31.7671 31.9451 31.7671C37.5768 31.7671 42.1422 36.3325 42.1422 41.9642Z" fill="white"/>
<path fill-rule="evenodd" clip-rule="evenodd" d="M43.1257 41.9641C43.1257 48.1387 38.1202 53.1441 31.9457 53.1441C25.7712 53.1441 20.7657 48.1387 20.7657 41.9641C20.7657 35.7896 25.7712 30.7842 31.9457 30.7842C38.1202 30.7842 43.1257 35.7896 43.1257 41.9641ZM31.9457 52.1612C37.5774 52.1612 42.1428 47.5958 42.1428 41.9641C42.1428 36.3324 37.5774 31.7671 31.9457 31.7671C26.314 31.7671 21.7486 36.3324 21.7486 41.9641C21.7486 47.5958 26.314 52.1612 31.9457 52.1612Z" fill="#5E68DF" stroke="#5E68DF"/>
<path fill-rule="evenodd" clip-rule="evenodd" d="M38.4629 41.9641C38.4629 45.5637 35.5448 48.4819 31.9452 48.4819C28.3455 48.4819 25.4274 45.5637 25.4274 41.9641C25.4274 38.3644 28.3455 35.4463 31.9452 35.4463C35.5448 35.4463 38.4629 38.3644 38.4629 41.9641ZM31.9452 47.499C35.002 47.499 37.4801 45.0209 37.4801 41.9641C37.4801 38.9072 35.002 36.4292 31.9452 36.4292C28.8883 36.4292 26.4102 38.9072 26.4102 41.9641C26.4102 45.0209 28.8883 47.499 31.9452 47.499Z" fill="#5E68DF" stroke="#5E68DF"/>
</svg>
