<svg width="35" height="44" viewBox="0 0 35 44" fill="none" xmlns="http://www.w3.org/2000/svg">
<path d="M1.38721 4.84108C1.38721 2.99531 2.8835 1.49902 4.72927 1.49902H29.8785C31.7243 1.49902 33.2205 2.99532 33.2205 4.84109V38.9036C33.2205 40.7494 31.7243 42.2457 29.8785 42.2457H4.72927C2.8835 42.2457 1.38721 40.7494 1.38721 38.9036V4.84108Z" fill="white"/>
<path fill-rule="evenodd" clip-rule="evenodd" d="M4.72983 0.663574H29.879C32.1863 0.663574 34.0566 2.53394 34.0566 4.84115V38.9037C34.0566 41.2109 32.1863 43.0813 29.879 43.0813H4.72983C2.42261 43.0813 0.552246 41.2109 0.552246 38.9037V4.84115C0.552246 2.53394 2.42261 0.663574 4.72983 0.663574ZM4.72983 1.49909C2.88405 1.49909 1.38776 2.99538 1.38776 4.84115V38.9037C1.38776 40.7495 2.88405 42.2458 4.72983 42.2458H29.879C31.7248 42.2458 33.2211 40.7495 33.2211 38.9037V4.84115C33.2211 2.99538 31.7248 1.49909 29.879 1.49909H4.72983Z" fill="#EC6C5A" stroke="#EC6C5A" stroke-linecap="round" stroke-linejoin="round"/>
<path d="M6.91908 4.49023C5.58198 4.49023 4.49805 5.57417 4.49805 6.91127V10.8269C4.49805 12.164 5.58198 13.2479 6.91908 13.2479H28.1285C29.4656 13.2479 30.5495 12.164 30.5495 10.8269V6.91127C30.5495 5.57417 29.4656 4.49023 28.1285 4.49023H6.91908Z" stroke="#5E68DF" stroke-width="1.5" stroke-linecap="round" stroke-linejoin="round"/>
<path fill-rule="evenodd" clip-rule="evenodd" d="M6.71937 15.4502H10.3008C11.2237 15.4502 11.9719 16.1983 11.9719 17.1212V17.8703C11.9719 18.7932 11.2237 19.5414 10.3008 19.5414H6.71937C5.79649 19.5414 5.04834 18.7932 5.04834 17.8703V17.1212C5.04834 16.1983 5.79649 15.4502 6.71937 15.4502ZM6.71937 16.2857C6.25793 16.2857 5.88386 16.6598 5.88386 17.1212V17.8703C5.88386 18.3318 6.25793 18.7059 6.71937 18.7059H10.3008C10.7623 18.7059 11.1364 18.3318 11.1364 17.8703V17.1212C11.1364 16.6598 10.7623 16.2857 10.3008 16.2857H6.71937Z" fill="#EC6C5A" stroke="#EC6C5A" stroke-width="0.5" stroke-linecap="round" stroke-linejoin="round"/>
<path fill-rule="evenodd" clip-rule="evenodd" d="M6.71937 21.3389H10.3008C11.2237 21.3389 11.9719 22.087 11.9719 23.0099V23.759C11.9719 24.6819 11.2237 25.43 10.3008 25.43H6.71937C5.79649 25.43 5.04834 24.6819 5.04834 23.759V23.0099C5.04834 22.087 5.79649 21.3389 6.71937 21.3389ZM6.71937 22.1744C6.25793 22.1744 5.88386 22.5485 5.88386 23.0099V23.759C5.88386 24.2205 6.25793 24.5945 6.71937 24.5945H10.3008C10.7623 24.5945 11.1364 24.2205 11.1364 23.759V23.0099C11.1364 22.5485 10.7623 22.1744 10.3008 22.1744H6.71937Z" fill="#EC6C5A" stroke="#EC6C5A" stroke-width="0.5" stroke-linecap="round" stroke-linejoin="round"/>
<path fill-rule="evenodd" clip-rule="evenodd" d="M6.71937 27.5464H10.3008C11.2237 27.5464 11.9719 28.2945 11.9719 29.2174V29.9665C11.9719 30.8894 11.2237 31.6376 10.3008 31.6376H6.71937C5.79649 31.6376 5.04834 30.8894 5.04834 29.9665V29.2174C5.04834 28.2945 5.79649 27.5464 6.71937 27.5464ZM6.71937 28.3819C6.25793 28.3819 5.88386 28.756 5.88386 29.2174V29.9665C5.88386 30.428 6.25793 30.802 6.71937 30.802H10.3008C10.7623 30.802 11.1364 30.428 11.1364 29.9665V29.2174C11.1364 28.756 10.7623 28.3819 10.3008 28.3819H6.71937Z" fill="#EC6C5A" stroke="#EC6C5A" stroke-width="0.5" stroke-linecap="round" stroke-linejoin="round"/>
<path fill-rule="evenodd" clip-rule="evenodd" d="M6.71937 33.7539H10.3008C11.2237 33.7539 11.9719 34.5021 11.9719 35.4249V36.174C11.9719 37.0969 11.2237 37.8451 10.3008 37.8451H6.71937C5.79649 37.8451 5.04834 37.0969 5.04834 36.174V35.4249C5.04834 34.5021 5.79649 33.7539 6.71937 33.7539ZM6.71937 34.5894C6.25793 34.5894 5.88386 34.9635 5.88386 35.4249V36.174C5.88386 36.6355 6.25793 37.0096 6.71937 37.0096H10.3008C10.7623 37.0096 11.1364 36.6355 11.1364 36.174V35.4249C11.1364 34.9635 10.7623 34.5894 10.3008 34.5894H6.71937Z" fill="#EC6C5A" stroke="#EC6C5A" stroke-width="0.5" stroke-linecap="round" stroke-linejoin="round"/>
<path fill-rule="evenodd" clip-rule="evenodd" d="M15.9508 15.4502H19.5323C20.4552 15.4502 21.2033 16.1983 21.2033 17.1212V17.8703C21.2033 18.7932 20.4552 19.5414 19.5323 19.5414H15.9508C15.0279 19.5414 14.2798 18.7932 14.2798 17.8703V17.1212C14.2798 16.1983 15.0279 15.4502 15.9508 15.4502ZM15.9508 16.2857C15.4894 16.2857 15.1153 16.6598 15.1153 17.1212V17.8703C15.1153 18.3318 15.4894 18.7059 15.9508 18.7059H19.5323C19.9937 18.7059 20.3678 18.3318 20.3678 17.8703V17.1212C20.3678 16.6598 19.9937 16.2857 19.5323 16.2857H15.9508Z" fill="#EC6C5A" stroke="#EC6C5A" stroke-width="0.5" stroke-linecap="round" stroke-linejoin="round"/>
<path fill-rule="evenodd" clip-rule="evenodd" d="M15.9508 21.3389H19.5323C20.4552 21.3389 21.2033 22.087 21.2033 23.0099V23.759C21.2033 24.6819 20.4552 25.43 19.5323 25.43H15.9508C15.0279 25.43 14.2798 24.6819 14.2798 23.759V23.0099C14.2798 22.087 15.0279 21.3389 15.9508 21.3389ZM15.9508 22.1744C15.4894 22.1744 15.1153 22.5485 15.1153 23.0099V23.759C15.1153 24.2205 15.4894 24.5945 15.9508 24.5945H19.5323C19.9937 24.5945 20.3678 24.2205 20.3678 23.759V23.0099C20.3678 22.5485 19.9937 22.1744 19.5323 22.1744H15.9508Z" fill="#EC6C5A" stroke="#EC6C5A" stroke-width="0.5" stroke-linecap="round" stroke-linejoin="round"/>
<path fill-rule="evenodd" clip-rule="evenodd" d="M15.9508 27.5464H19.5323C20.4552 27.5464 21.2033 28.2945 21.2033 29.2174V29.9665C21.2033 30.8894 20.4552 31.6376 19.5323 31.6376H15.9508C15.0279 31.6376 14.2798 30.8894 14.2798 29.9665V29.2174C14.2798 28.2945 15.0279 27.5464 15.9508 27.5464ZM15.9508 28.3819C15.4894 28.3819 15.1153 28.756 15.1153 29.2174V29.9665C15.1153 30.428 15.4894 30.802 15.9508 30.802H19.5323C19.9937 30.802 20.3678 30.428 20.3678 29.9665V29.2174C20.3678 28.756 19.9937 28.3819 19.5323 28.3819H15.9508Z" fill="#EC6C5A" stroke="#EC6C5A" stroke-width="0.5" stroke-linecap="round" stroke-linejoin="round"/>
<path fill-rule="evenodd" clip-rule="evenodd" d="M15.9508 33.7539H19.5323C20.4552 33.7539 21.2033 34.5021 21.2033 35.4249V36.174C21.2033 37.0969 20.4552 37.8451 19.5323 37.8451H15.9508C15.0279 37.8451 14.2798 37.0969 14.2798 36.174V35.4249C14.2798 34.5021 15.0279 33.7539 15.9508 33.7539ZM15.9508 34.5894C15.4894 34.5894 15.1153 34.9635 15.1153 35.4249V36.174C15.1153 36.6355 15.4894 37.0096 15.9508 37.0096H19.5323C19.9937 37.0096 20.3678 36.6355 20.3678 36.174V35.4249C20.3678 34.9635 19.9937 34.5894 19.5323 34.5894H15.9508Z" fill="#EC6C5A" stroke="#EC6C5A" stroke-width="0.5" stroke-linecap="round" stroke-linejoin="round"/>
<path fill-rule="evenodd" clip-rule="evenodd" d="M24.944 15.4502H28.5254C29.4483 15.4502 30.1965 16.1983 30.1965 17.1212V17.8703C30.1965 18.7932 29.4483 19.5414 28.5255 19.5414H24.944C24.0211 19.5414 23.2729 18.7932 23.2729 17.8703V17.1212C23.2729 16.1983 24.0211 15.4502 24.944 15.4502ZM24.944 16.2857C24.4825 16.2857 24.1085 16.6598 24.1085 17.1212V17.8703C24.1085 18.3318 24.4825 18.7059 24.944 18.7059H28.5255C28.9869 18.7059 29.361 18.3318 29.361 17.8703V17.1212C29.361 16.6598 28.9869 16.2857 28.5254 16.2857H24.944Z" fill="#EC6C5A" stroke="#EC6C5A" stroke-width="0.5" stroke-linecap="round" stroke-linejoin="round"/>
<path fill-rule="evenodd" clip-rule="evenodd" d="M24.4664 21.3389H28.0479C28.9708 21.3389 29.7189 22.087 29.7189 23.0099V36.1739C29.7189 37.0967 28.9708 37.8449 28.0479 37.8449H24.4664C23.5436 37.8449 22.7954 37.0967 22.7954 36.1739V23.0099C22.7954 22.087 23.5436 21.3389 24.4664 21.3389ZM24.4664 22.1744C24.005 22.1744 23.6309 22.5485 23.6309 23.0099V36.1739C23.6309 36.6353 24.005 37.0094 24.4664 37.0094H28.0479C28.5094 37.0094 28.8834 36.6353 28.8834 36.1739V23.0099C28.8834 22.5485 28.5094 22.1744 28.0479 22.1744H24.4664Z" fill="#EC6C5A" stroke="#EC6C5A" stroke-width="0.5" stroke-linecap="round" stroke-linejoin="round"/>
<path fill-rule="evenodd" clip-rule="evenodd" d="M24.9648 28.7332C24.9648 28.5025 25.1519 28.3154 25.3826 28.3154H27.1334C27.3642 28.3154 27.5512 28.5025 27.5512 28.7332C27.5512 28.9639 27.3642 29.1509 27.1334 29.1509H25.3826C25.1519 29.1509 24.9648 28.9639 24.9648 28.7332Z" fill="#EC6C5A"/>
<path fill-rule="evenodd" clip-rule="evenodd" d="M24.9648 30.2849C24.9648 30.0542 25.1519 29.8672 25.3826 29.8672H27.1334C27.3642 29.8672 27.5512 30.0542 27.5512 30.2849C27.5512 30.5157 27.3642 30.7027 27.1334 30.7027H25.3826C25.1519 30.7027 24.9648 30.5157 24.9648 30.2849Z" fill="#EC6C5A"/>
<path fill-rule="evenodd" clip-rule="evenodd" d="M24.9648 7.73857C24.9648 7.09255 25.4885 6.56885 26.1346 6.56885H26.5008C27.1469 6.56885 27.6706 7.09255 27.6706 7.73857V9.796C27.6706 10.442 27.1469 10.9657 26.5008 10.9657H26.1346C25.4885 10.9657 24.9648 10.442 24.9648 9.796V7.73857ZM26.1346 7.40436C25.95 7.40436 25.8004 7.55399 25.8004 7.73857V9.796C25.8004 9.98057 25.95 10.1302 26.1346 10.1302H26.5008C26.6854 10.1302 26.8351 9.98057 26.8351 9.796V7.73857C26.8351 7.55399 26.6854 7.40436 26.5008 7.40436H26.1346Z" fill="#5E68DF"/>
</svg>
