<svg width="35" height="45" fill="none" xmlns="http://www.w3.org/2000/svg"><path d="M1.387 5.449a3.342 3.342 0 013.342-3.343h25.149A3.342 3.342 0 0133.22 5.45v34.06a3.342 3.342 0 01-3.342 3.342H4.728a3.342 3.342 0 01-3.341-3.342V5.45z" fill="#fff"/><path fill-rule="evenodd" clip-rule="evenodd" d="M4.73 1.271h25.149a4.178 4.178 0 014.177 4.178V39.51a4.178 4.178 0 01-4.177 4.178H4.729A4.178 4.178 0 01.552 39.51V5.45a4.178 4.178 0 014.177-4.18zm0 .836a3.342 3.342 0 00-3.343 3.342V39.51a3.342 3.342 0 003.342 3.342h25.15a3.342 3.342 0 003.342-3.342V5.45a3.342 3.342 0 00-3.342-3.342H4.729z" fill="#EC6C5A" stroke="#EC6C5A" stroke-linecap="round" stroke-linejoin="round"/><path d="M6.918 5.098a2.421 2.421 0 00-2.42 2.42v3.916a2.421 2.421 0 002.42 2.421h21.21a2.421 2.421 0 002.42-2.42V7.518a2.421 2.421 0 00-2.42-2.421H6.918z" stroke="#5E68DF" stroke-width="1.5" stroke-linecap="round" stroke-linejoin="round"/><path fill-rule="evenodd" clip-rule="evenodd" d="M6.719 16.058H10.3a1.67 1.67 0 011.671 1.67v.75a1.67 1.67 0 01-1.67 1.67H6.718a1.671 1.671 0 01-1.671-1.67v-.75c0-.922.748-1.67 1.67-1.67zm0 .835a.836.836 0 00-.836.836v.749c0 .461.374.835.836.835H10.3a.836.836 0 00.836-.835v-.75a.836.836 0 00-.836-.835H6.72zm0 5.053H10.3a1.67 1.67 0 011.671 1.671v.75a1.67 1.67 0 01-1.67 1.67H6.718a1.671 1.671 0 01-1.671-1.67v-.75c0-.923.748-1.67 1.67-1.67zm0 .836a.836.836 0 00-.836.835v.75c0 .46.374.835.836.835H10.3a.835.835 0 00.836-.836v-.749a.836.836 0 00-.836-.835H6.72zm0 5.372H10.3a1.67 1.67 0 011.671 1.67v.75a1.67 1.67 0 01-1.67 1.671H6.718a1.671 1.671 0 01-1.671-1.671v-.75c0-.922.748-1.67 1.67-1.67zm0 .835a.836.836 0 00-.836.836v.749c0 .461.374.835.836.835H10.3a.836.836 0 00.836-.835v-.75a.836.836 0 00-.836-.835H6.72zm0 5.372H10.3a1.67 1.67 0 011.671 1.671v.75a1.67 1.67 0 01-1.67 1.67H6.718a1.671 1.671 0 01-1.671-1.67v-.75c0-.922.748-1.67 1.67-1.67zm0 .836a.836.836 0 00-.836.835v.75c0 .46.374.835.836.835H10.3a.836.836 0 00.836-.835v-.75a.836.836 0 00-.836-.835H6.72zm9.231-19.139h3.582c.923 0 1.67.748 1.67 1.67v.75a1.67 1.67 0 01-1.67 1.67H15.95a1.671 1.671 0 01-1.67-1.67v-.75c0-.922.747-1.67 1.67-1.67zm0 .835a.836.836 0 00-.835.836v.749c0 .461.374.835.835.835h3.582a.836.836 0 00.835-.835v-.75a.836.836 0 00-.835-.835H15.95zm0 5.053h3.582c.923 0 1.67.748 1.67 1.671v.75a1.67 1.67 0 01-1.67 1.67H15.95a1.671 1.671 0 01-1.67-1.67v-.75c0-.923.747-1.67 1.67-1.67zm0 .836a.836.836 0 00-.835.835v.75c0 .46.374.835.835.835h3.582a.835.835 0 00.835-.836v-.749a.836.836 0 00-.835-.835H15.95zm0 5.372h3.582c.923 0 1.67.748 1.67 1.67v.75a1.67 1.67 0 01-1.67 1.671H15.95a1.671 1.671 0 01-1.67-1.671v-.75c0-.922.747-1.67 1.67-1.67zm0 .835a.836.836 0 00-.835.836v.749c0 .461.374.835.835.835h3.582a.836.836 0 00.835-.835v-.75a.836.836 0 00-.835-.835H15.95zm0 5.372h3.582c.923 0 1.67.748 1.67 1.671v.75a1.67 1.67 0 01-1.67 1.67H15.95a1.671 1.671 0 01-1.67-1.67v-.75c0-.922.747-1.67 1.67-1.67zm0 .836a.836.836 0 00-.835.835v.75c0 .46.374.835.835.835h3.582a.836.836 0 00.835-.835v-.75a.836.836 0 00-.835-.835H15.95zm8.994-19.139h3.581a1.67 1.67 0 011.671 1.67v.75a1.67 1.67 0 01-1.671 1.67h-3.581a1.671 1.671 0 01-1.671-1.67v-.75c0-.922.748-1.67 1.67-1.67zm0 .835a.836.836 0 00-.836.836v.749c0 .461.374.835.835.835h3.582a.836.836 0 00.835-.835v-.75a.836.836 0 00-.835-.835h-3.581zm-.478 5.053h3.581a1.67 1.67 0 011.671 1.671v13.164a1.67 1.67 0 01-1.67 1.671h-3.582a1.671 1.671 0 01-1.671-1.67V23.616c0-.923.748-1.67 1.671-1.67zm0 .836a.836.836 0 00-.836.835v13.164c0 .462.375.836.836.836h3.581a.835.835 0 00.836-.836V23.617a.835.835 0 00-.836-.835h-3.581z" fill="#EC6C5A" stroke="#EC6C5A" stroke-width=".5" stroke-linecap="round" stroke-linejoin="round"/><path fill-rule="evenodd" clip-rule="evenodd" d="M24.964 29.34c0-.23.187-.417.418-.417h1.75a.418.418 0 110 .835h-1.75a.418.418 0 01-.418-.417zm0 1.552c0-.23.187-.417.418-.417h1.75a.418.418 0 010 .835h-1.75a.418.418 0 01-.418-.418z" fill="#EC6C5A"/><path fill-rule="evenodd" clip-rule="evenodd" d="M24.964 8.346c0-.646.524-1.17 1.17-1.17h.366c.646 0 1.17.524 1.17 1.17v2.057a1.17 1.17 0 01-1.17 1.17h-.366a1.17 1.17 0 01-1.17-1.17V8.346zm1.17-.334a.334.334 0 00-.335.334v2.057c0 .185.15.335.335.335h.366c.184 0 .334-.15.334-.335V8.346a.334.334 0 00-.334-.334h-.366z" fill="#5E68DF"/></svg>