<svg width="57" height="57" fill="none" xmlns="http://www.w3.org/2000/svg"><path d="M11.293 11.174v21.517" stroke="#5E68DF" stroke-width="2" stroke-linejoin="round"/><path d="M24.039 12.085c-.304 1.235-1.568 2.338-3.825 2.93-2.214.58-5.148.584-8.255-.181-3.106-.766-5.701-2.133-7.393-3.676-1.724-1.572-2.33-3.136-2.026-4.371.304-1.235 1.568-2.338 3.825-2.93 2.215-.58 5.148-.584 8.255.181 3.106.766 5.702 2.134 7.393 3.676 1.724 1.572 2.33 3.136 2.026 4.371z" fill="#fff" stroke="#EC6C5A" stroke-width="2"/><path d="M8 19.18a1 1 0 100 2v-2zm7 2a1 1 0 100-2v2zm-7 0h7v-2H8v2z" fill="#5E68DF"/><mask id="a" fill="#fff"><rect x="40" y="15.179" width="16.585" height="18.737" rx=".448"/></mask><rect x="40" y="15.179" width="16.585" height="18.737" rx=".448" fill="#fff" stroke="#EC6C5A" stroke-width="4" mask="url(#a)"/><mask id="b" maskUnits="userSpaceOnUse" x="46" y="15.179" width="4" height="6" fill="#000"><path fill="#fff" d="M46 15.179h4v6h-4z"/><path d="M47 19.256V16.18h2v3.077l-.8.923-1.2-.923z"/></mask><path d="M47 19.256V16.18h2v3.077l-.8.923-1.2-.923z" fill="#fff"/><path d="M47 16.18v-1h-1v1h1zm0 3.076h-1a1 1 0 00.39.793l.61-.793zm1.2.923l-.61.793a1 1 0 001.366-.138l-.756-.655zm.8-.923l.756.655a1 1 0 00.244-.655h-1zm0-3.077h1v-1h-1v1zm-3 0v3.077h2V16.18h-2zm.39 3.87l1.2.923 1.22-1.585-1.2-.924-1.22 1.586zm2.566.785l.8-.923-1.512-1.31-.8.923 1.512 1.31zM50 19.256V16.18h-2v3.077h2zm-1-4.077h-2v2h2v-2z" fill="#5E68DF" mask="url(#b)"/><mask id="c" fill="#fff"><path d="M39.802 13.684a2.69 2.69 0 012.69-2.69h13.447c.248 0 .448.201.448.449v2.062c0 .247-.2.448-.448.448H40.071a.269.269 0 01-.27-.269z"/></mask><path d="M39.802 13.684a2.69 2.69 0 012.69-2.69h13.447c.248 0 .448.201.448.449v2.062c0 .247-.2.448-.448.448H40.071a.269.269 0 01-.27-.269z" fill="#fff" stroke="#EC6C5A" stroke-width="2.958" mask="url(#c)"/><rect x="37.359" y="15.538" width=".717" height="4.841" rx=".359" fill="#fff" stroke="#EC6C5A" stroke-width=".717"/><path d="M47.588 40.67c0 3.879-2.184 7.482-5.899 10.155-3.713 2.67-8.894 4.354-14.662 4.354-5.768 0-10.949-1.683-14.662-4.354-3.715-2.673-5.9-6.276-5.9-10.156 0-3.879 2.185-7.482 5.9-10.155 3.713-2.671 8.894-4.354 14.662-4.354 5.768 0 10.949 1.683 14.662 4.354 3.715 2.673 5.9 6.276 5.9 10.155z" fill="#fff" stroke="#EC6C5A" stroke-width="2"/><path d="M42 40.68c0 2.453-1.516 4.803-4.235 6.588-2.71 1.778-6.514 2.911-10.765 2.911-4.252 0-8.055-1.133-10.765-2.911C13.516 45.483 12 43.133 12 40.679c0-2.454 1.516-4.804 4.235-6.588 2.71-1.779 6.514-2.912 10.765-2.912 4.252 0 8.055 1.133 10.765 2.912C40.484 35.875 42 38.225 42 40.679z" fill="#fff" stroke="#EC6C5A" stroke-width="2"/></svg>