<svg width="49" height="43" viewBox="0 0 49 43" fill="none" xmlns="http://www.w3.org/2000/svg">
<path d="M43.2804 37.6946C45.7086 37.6946 47.677 35.7262 47.677 33.298C47.677 30.8698 45.7086 28.9014 43.2804 28.9014C40.8522 28.9014 38.8838 30.8698 38.8838 33.298C38.8838 35.7262 40.8522 37.6946 43.2804 37.6946Z" stroke="#5E68DF" stroke-width="1.5"/>
<path d="M15.3676 7.52928C22.5367 0.360144 33.0091 -0.789854 38.7346 4.93567C44.4601 10.6612 43.2856 21.1335 36.141 28.3026C32.2261 32.2175 26.6474 34.4686 22.7814 34.5175C18.9155 34.5665 13.2634 33.8813 9.32401 37.8207L5.62999 41.5152C4.8153 42.33 3.48242 42.2896 2.71848 41.4271L2.11135 40.7416C1.41017 39.9499 1.44655 38.7491 2.19438 38.0013L5.84954 34.3462C9.7889 30.4069 9.10379 24.7548 9.15273 20.8888C9.20166 16.9984 11.4527 11.4442 15.3676 7.52928Z" stroke="#EC6C5A" stroke-width="1.5"/>
</svg>
