<svg width="63" height="45" fill="none" xmlns="http://www.w3.org/2000/svg"><path d="M29.545 2.933c0-.664.539-1.203 1.203-1.203h1.003c.665 0 1.203.539 1.203 1.203v10.034c0 .664-.538 1.203-1.203 1.203h-1.003a1.203 1.203 0 01-1.203-1.203V2.933z" fill="#fff"/><path fill-rule="evenodd" clip-rule="evenodd" d="M30.748.527h1.003a2.406 2.406 0 012.406 2.406v10.034a2.406 2.406 0 01-2.406 2.406h-1.003a2.406 2.406 0 01-2.406-2.406V2.933A2.406 2.406 0 0130.748.527zm0 1.203c-.664 0-1.203.539-1.203 1.203v10.034c0 .664.539 1.203 1.203 1.203h1.003c.665 0 1.203-.539 1.203-1.203V2.933c0-.664-.538-1.203-1.203-1.203h-1.003z" fill="#EC6C5A" stroke="#EC6C5A" stroke-linecap="round" stroke-linejoin="round"/><path d="M4.616 6.688c0-.675.547-1.222 1.222-1.222h51.877c.675 0 1.222.547 1.222 1.222v31.244c0 .674-.547 1.221-1.221 1.221H5.837a1.222 1.222 0 01-1.222-1.221V6.688z" fill="#fff"/><path fill-rule="evenodd" clip-rule="evenodd" d="M5.11 5.675h51.085a2.406 2.406 0 012.406 2.406v30.767a2.406 2.406 0 01-2.406 2.406H5.109a2.406 2.406 0 01-2.406-2.406V8.081A2.406 2.406 0 015.11 5.675zm0 1.203c-.665 0-1.204.539-1.204 1.203v30.767c0 .665.539 1.203 1.203 1.203h51.086c.664 0 1.203-.538 1.203-1.203V8.081c0-.664-.539-1.203-1.203-1.203H5.109z" fill="#EC6C5A" stroke="#EC6C5A" stroke-linecap="round" stroke-linejoin="round"/><path d="M10.194 38.306c0-.665.539-1.203 1.204-1.203h5.057c.665 0 1.203.538 1.203 1.203v.542c0 .665-.538 1.203-1.203 1.203h-5.057a1.203 1.203 0 01-1.204-1.203v-.542z" fill="#EC6C5A"/><path d="M2.154 5.727c0-.637.516-1.152 1.152-1.152h55.957a1.152 1.152 0 010 2.303H3.306a1.152 1.152 0 01-1.152-1.151z" fill="#fff"/><path fill-rule="evenodd" clip-rule="evenodd" d="M3.306 3.372h55.957a2.355 2.355 0 010 4.71H3.306a2.355 2.355 0 110-4.71zm0 1.203a1.152 1.152 0 100 2.303h55.957a1.152 1.152 0 000-2.303H3.306z" fill="#5E68DF" stroke="#5E68DF" stroke-linecap="round" stroke-linejoin="round"/><path d="M2.154 41.203c0-.636.516-1.152 1.152-1.152h55.957a1.152 1.152 0 010 2.304H3.306a1.152 1.152 0 01-1.152-1.152z" fill="#fff"/><path fill-rule="evenodd" clip-rule="evenodd" d="M3.306 38.848h55.957a2.355 2.355 0 010 4.71H3.306a2.355 2.355 0 010-4.71zm0 1.203a1.152 1.152 0 100 2.304h55.957a1.152 1.152 0 000-2.304H3.306z" fill="#5E68DF" stroke="#5E68DF" stroke-linecap="round" stroke-linejoin="round"/></svg>