<svg width="51" height="43" viewBox="0 0 51 43" fill="none" xmlns="http://www.w3.org/2000/svg">
<path d="M26.6417 7.02201L44.9336 4.3651C46.8338 4.08909 48.5518 5.52647 48.6156 7.44555L49.6128 37.4742C49.6708 39.2204 48.3261 40.6944 46.5819 40.7964L27.2928 41.925C25.4432 42.0333 23.8839 40.5625 23.8839 38.7097V10.2094C23.8839 8.6094 25.0584 7.252 26.6417 7.02201Z" fill="white" stroke="#EC6C5A" stroke-width="1.12963" stroke-linecap="round" stroke-linejoin="round"/>
<path d="M24.3568 7.02201L6.06498 4.3651C4.16478 4.08909 2.44671 5.52647 2.38298 7.44555L1.38572 37.4742C1.32773 39.2204 2.67247 40.6944 4.41662 40.7964L23.7057 41.925C25.5553 42.0333 27.1146 40.5625 27.1146 38.7097V10.2094C27.1146 8.6094 25.9401 7.252 24.3568 7.02201Z" fill="white" stroke="#EC6C5A" stroke-width="1.12963" stroke-linecap="round" stroke-linejoin="round"/>
<path d="M26.3034 6.64216L44.2532 3.61653C44.7832 3.5272 45.2698 3.92675 45.2854 4.46392L46.2213 36.7931C46.2351 37.2688 45.8704 37.6703 45.3956 37.7021L26.5098 38.9682C25.9987 39.0024 25.5653 38.5971 25.5653 38.0848V7.51517C25.5653 7.08301 25.8773 6.71399 26.3034 6.64216Z" fill="white"/>
<path fill-rule="evenodd" clip-rule="evenodd" d="M44.105 2.74282L26.1552 5.76845C25.3029 5.91212 24.6789 6.65014 24.6789 7.51448V38.0841C24.6789 39.1086 25.5457 39.9193 26.568 39.8508L45.4537 38.5848C46.4033 38.5211 47.1327 37.7182 47.1052 36.7668L46.1693 4.43761C46.1382 3.36327 45.1649 2.56417 44.105 2.74282ZM44.2522 3.61583L26.3024 6.64147C25.8762 6.7133 25.5642 7.08231 25.5642 7.51448V38.0841C25.5642 38.5964 25.9976 39.0017 26.5087 38.9675L45.3945 37.7014C45.8693 37.6696 46.234 37.2681 46.2202 36.7924L45.2843 4.46323C45.2687 3.92606 44.7821 3.52651 44.2522 3.61583Z" fill="#EC6C5A"/>
<path d="M26.6263 6.57108L42.0371 1.69995C42.5975 1.52279 43.1718 1.93095 43.1888 2.51849L44.1232 34.7914C44.1357 35.2254 43.8317 35.6044 43.4054 35.6864L27.0603 38.8291C26.5143 38.9341 26.0078 38.5157 26.0078 37.9597V7.41524C26.0078 7.02908 26.2581 6.68747 26.6263 6.57108Z" fill="white"/>
<path fill-rule="evenodd" clip-rule="evenodd" d="M41.7711 0.855463L26.3604 5.72659C25.624 5.95937 25.1234 6.64259 25.1234 7.41492V37.9594C25.1234 39.0714 26.1364 39.9081 27.2284 39.6982L43.5734 36.5555C44.4261 36.3915 45.0341 35.6334 45.009 34.7654L44.0747 2.49255C44.0407 1.31746 42.892 0.501155 41.7711 0.855463ZM42.038 1.69963L26.6272 6.57076C26.259 6.68714 26.0087 7.02876 26.0087 7.41492V37.9594C26.0087 38.5154 26.5152 38.9338 27.0612 38.8288L43.4063 35.6861C43.8326 35.6041 44.1366 35.225 44.1241 34.791L43.1897 2.51817C43.1727 1.93062 42.5984 1.52247 42.038 1.69963Z" fill="#EC6C5A"/>
<path d="M30.0508 4.85498L32.7687 3.96777V11.2437L31.4098 10.41L30.0508 11.7689V4.85498Z" fill="#EC6C5A"/>
<path fill-rule="evenodd" clip-rule="evenodd" d="M29.165 4.85457C29.165 4.47147 29.4115 4.13183 29.7756 4.01294L32.4936 3.12574C32.7632 3.03773 33.0587 3.08422 33.2882 3.25077C33.5178 3.41731 33.6537 3.68376 33.6537 3.96737V11.2433C33.6537 11.5638 33.4804 11.8593 33.2007 12.0159C32.921 12.1724 32.5786 12.1655 32.3054 11.9979L31.5416 11.5294L30.6764 12.3946C30.4232 12.6478 30.0424 12.7235 29.7116 12.5865C29.3807 12.4494 29.165 12.1266 29.165 11.7685V4.85457ZM32.7683 11.2433L31.4094 10.4095L30.0504 11.7685V4.85457L32.7683 3.96737V11.2433Z" fill="#EC6C5A"/>
<path d="M24.3022 6.64139L6.47755 3.61766C5.94729 3.52771 5.45998 3.92745 5.44451 4.46506L4.51453 36.7935C4.50086 37.269 4.86532 37.6703 5.3399 37.7023L24.0945 38.9676C24.6058 39.0021 25.0394 38.5967 25.0394 38.0843V7.51425C25.0394 7.08244 24.7279 6.71361 24.3022 6.64139Z" fill="white"/>
<path fill-rule="evenodd" clip-rule="evenodd" d="M6.6257 2.74509L24.4503 5.76882C25.3018 5.91326 25.9249 6.6509 25.9249 7.51454V38.0846C25.9249 39.1094 25.0575 39.9202 24.035 39.8512L5.28039 38.5859C4.33123 38.5219 3.6023 37.7193 3.62965 36.7683L4.55963 4.43989C4.59056 3.36467 5.56518 2.56518 6.6257 2.74509ZM6.47763 3.61795L24.3023 6.64168C24.728 6.7139 25.0395 7.08272 25.0395 7.51454V38.0846C25.0395 38.597 24.6059 39.0024 24.0946 38.9679L5.33998 37.7026C4.8654 37.6706 4.50094 37.2693 4.51462 36.7938L5.44459 4.46535C5.46006 3.92774 5.94737 3.52799 6.47763 3.61795Z" fill="#EC6C5A"/>
<path fill-rule="evenodd" clip-rule="evenodd" d="M20.1134 15.4241C20.6975 15.165 21.3651 15.1901 21.8749 15.4307C22.096 15.5351 22.1906 15.7989 22.0862 16.02C21.9818 16.2411 21.718 16.3357 21.4969 16.2313C21.2184 16.0998 20.8198 16.0793 20.4723 16.2334C20.1464 16.3779 19.8409 16.6871 19.7402 17.2772C19.6403 17.8633 19.7728 18.4246 20.0654 18.7971C20.3429 19.1502 20.7942 19.3751 21.4604 19.2623C21.7014 19.2215 21.9299 19.3839 21.9707 19.6249C22.0115 19.866 21.8492 20.0944 21.6081 20.1352C20.6377 20.2995 19.8566 19.9643 19.3693 19.344C18.8972 18.7432 18.7329 17.918 18.8675 17.1284C19.0164 16.2555 19.5077 15.6927 20.1134 15.4241Z" fill="#5E68DF"/>
<path fill-rule="evenodd" clip-rule="evenodd" d="M42.2516 13.2104C42.2047 12.9705 41.9722 12.814 41.7322 12.8608L27.6168 15.6183C27.3769 15.6651 27.2204 15.8976 27.2672 16.1376C27.3141 16.3775 27.5466 16.534 27.7866 16.4872L41.902 13.7297C42.1419 13.6829 42.2984 13.4504 42.2516 13.2104Z" fill="#5E68DF"/>
<path fill-rule="evenodd" clip-rule="evenodd" d="M42.2516 15.2457C42.2047 15.0058 41.9722 14.8492 41.7322 14.8961L27.6168 17.6535C27.3769 17.7004 27.2204 17.9329 27.2672 18.1729C27.3141 18.4128 27.5466 18.5693 27.7866 18.5224L41.902 15.765C42.1419 15.7181 42.2984 15.4856 42.2516 15.2457Z" fill="#5E68DF"/>
<path fill-rule="evenodd" clip-rule="evenodd" d="M42.2516 23.4196C42.2047 23.1796 41.9722 23.0231 41.7322 23.07L27.6168 25.8274C27.3769 25.8743 27.2204 26.1068 27.2672 26.3467C27.3141 26.5867 27.5466 26.7432 27.7866 26.6963L41.902 23.9389C42.1419 23.892 42.2984 23.6595 42.2516 23.4196Z" fill="#5E68DF"/>
<path fill-rule="evenodd" clip-rule="evenodd" d="M42.2516 17.3467C42.2047 17.1067 41.9722 16.9502 41.7322 16.9971L27.6168 19.7545C27.3769 19.8014 27.2204 20.0339 27.2672 20.2738C27.3141 20.5138 27.5466 20.6703 27.7866 20.6234L41.902 17.866C42.1419 17.8191 42.2984 17.5866 42.2516 17.3467Z" fill="#5E68DF"/>
<path fill-rule="evenodd" clip-rule="evenodd" d="M42.2516 25.5205C42.2047 25.2806 41.9722 25.1241 41.7322 25.1709L27.6168 27.9284C27.3769 27.9752 27.2204 28.2078 27.2672 28.4477C27.3141 28.6876 27.5466 28.8442 27.7866 28.7973L41.902 26.0399C42.1419 25.993 42.2984 25.7605 42.2516 25.5205Z" fill="#5E68DF"/>
<path fill-rule="evenodd" clip-rule="evenodd" d="M42.2516 19.5297C42.2047 19.2898 41.9722 19.1332 41.7322 19.1801L27.6168 21.9375C27.3769 21.9844 27.2204 22.2169 27.2672 22.4569C27.3141 22.6968 27.5466 22.8533 27.7866 22.8065L41.902 20.049C42.1419 20.0021 42.2984 19.7696 42.2516 19.5297Z" fill="#5E68DF"/>
<path fill-rule="evenodd" clip-rule="evenodd" d="M42.2516 27.7036C42.2047 27.4637 41.9722 27.3072 41.7322 27.354L27.6168 30.1115C27.3769 30.1583 27.2204 30.3909 27.2672 30.6308C27.3141 30.8707 27.5466 31.0273 27.7866 30.9804L41.902 28.223C42.1419 28.1761 42.2984 27.9436 42.2516 27.7036Z" fill="#5E68DF"/>
<path fill-rule="evenodd" clip-rule="evenodd" d="M35.852 31.2419C35.8105 31.001 35.5815 30.8393 35.3406 30.8809L27.6263 32.2105C27.3854 32.252 27.2238 32.481 27.2653 32.7219C27.3068 32.9628 27.5358 33.1245 27.7767 33.0829L35.4909 31.7533C35.7319 31.7118 35.8935 31.4828 35.852 31.2419Z" fill="#5E68DF"/>
<path fill-rule="evenodd" clip-rule="evenodd" d="M7.43108 22.7162C7.45341 22.4728 7.66888 22.2935 7.91233 22.3158L22.2247 23.6289C22.4682 23.6512 22.6474 23.8667 22.6251 24.1102C22.6027 24.3536 22.3873 24.5329 22.1438 24.5105L7.83145 23.1975C7.588 23.1751 7.40874 22.9597 7.43108 22.7162Z" fill="#5E68DF"/>
<path fill-rule="evenodd" clip-rule="evenodd" d="M7.43108 28.6234C7.45341 28.3799 7.66888 28.2007 7.91233 28.223L22.2247 29.5361C22.4682 29.5584 22.6474 29.7739 22.6251 30.0173C22.6027 30.2608 22.3873 30.44 22.1438 30.4177L7.83145 29.1046C7.588 29.0823 7.40874 28.8668 7.43108 28.6234Z" fill="#5E68DF"/>
<path fill-rule="evenodd" clip-rule="evenodd" d="M7.43023 24.8242C7.44663 24.5803 7.65766 24.3959 7.90159 24.4123L15.7143 24.9375C15.9582 24.9539 16.1427 25.1649 16.1263 25.4089C16.1099 25.6528 15.8988 25.8372 15.6549 25.8208L7.8422 25.2956C7.59828 25.2792 7.41383 25.0682 7.43023 24.8242Z" fill="#5E68DF"/>
<path fill-rule="evenodd" clip-rule="evenodd" d="M7.43031 30.7303C7.44738 30.4864 7.65892 30.3025 7.90281 30.3196L19.1151 31.1045C19.359 31.1216 19.5429 31.3331 19.5258 31.577C19.5087 31.8209 19.2972 32.0047 19.0533 31.9876L7.84098 31.2028C7.5971 31.1857 7.41324 30.9741 7.43031 30.7303Z" fill="#5E68DF"/>
<path fill-rule="evenodd" clip-rule="evenodd" d="M7.43023 32.6161C7.44663 32.3722 7.65766 32.1878 7.90159 32.2042L15.7143 32.7294C15.9582 32.7458 16.1427 32.9568 16.1263 33.2008C16.1099 33.4447 15.8988 33.6291 15.6549 33.6127L7.8422 33.0875C7.59828 33.0711 7.41383 32.8601 7.43023 32.6161Z" fill="#5E68DF"/>
<path fill-rule="evenodd" clip-rule="evenodd" d="M10.3394 9.83303C10.5282 9.84205 10.6905 9.97 10.7433 10.1515L13.3694 19.1788C13.4377 19.4136 13.3028 19.6592 13.0681 19.7275C12.8333 19.7958 12.5876 19.6609 12.5194 19.4261L10.2533 11.6364L7.28282 19.105C7.19247 19.3322 6.93507 19.4431 6.7079 19.3527C6.48073 19.2624 6.36982 19.005 6.46017 18.7778L9.90695 10.1116C9.97682 9.93592 10.1506 9.82401 10.3394 9.83303Z" fill="#5E68DF"/>
<path fill-rule="evenodd" clip-rule="evenodd" d="M12.2559 15.8722C12.2559 16.1167 12.0577 16.3149 11.8132 16.3149L8.12016 16.3149C7.87568 16.3149 7.67749 16.1167 7.67749 15.8722C7.67749 15.6277 7.87568 15.4295 8.12016 15.4295L11.8132 15.4295C12.0577 15.4295 12.2559 15.6277 12.2559 15.8722Z" fill="#5E68DF"/>
<path fill-rule="evenodd" clip-rule="evenodd" d="M15.2916 13.4597V15.2682C15.4079 15.2727 15.5325 15.2857 15.6582 15.3049C15.8307 15.291 16.0195 15.2605 16.1977 15.2046C16.4074 15.1388 16.5693 15.0478 16.6745 14.9385C16.7699 14.8393 16.8354 14.7093 16.8354 14.51C16.8354 14.1228 16.6068 13.8632 16.1889 13.6793C15.9102 13.5566 15.5849 13.4891 15.2916 13.4597ZM17.0479 15.7739C17.1417 15.7103 17.2309 15.637 17.3123 15.5524C17.5647 15.2903 17.7207 14.941 17.7207 14.51C17.7207 13.6367 17.1396 13.1304 16.5454 12.8689C15.9608 12.6117 15.2832 12.5454 14.837 12.5575C14.5972 12.564 14.4062 12.7602 14.4062 13V19.3684C14.4062 19.5643 14.535 19.7369 14.7228 19.7927C15.2022 19.9352 15.9859 19.9873 16.6946 19.7618C17.0554 19.647 17.4156 19.454 17.7021 19.145C17.9927 18.8315 18.1874 18.4197 18.2434 17.9064C18.3602 16.8348 17.7242 16.1571 17.0479 15.7739ZM15.2916 16.1974C15.3909 16.2011 15.4994 16.2007 15.6134 16.195C15.8796 16.2433 16.1883 16.333 16.473 16.4715C17.0541 16.7542 17.4325 17.1752 17.3632 17.8103C17.3267 18.1454 17.207 18.3768 17.0528 18.5431C16.8945 18.7139 16.6795 18.8375 16.4261 18.9182C16.0454 19.0393 15.6211 19.0496 15.2916 19.0078V16.1974Z" fill="#5E68DF"/>
</svg>
