<svg width="55" height="53" viewBox="0 0 55 53" fill="none" xmlns="http://www.w3.org/2000/svg">
<rect x="48.6938" y="25.0713" width="5.28662" height="14.5605" rx="2.64331" stroke="#EC6C5A" stroke-width="2"/>
<rect x="1" y="25.0713" width="5.28662" height="14.5605" rx="2.64331" stroke="#EC6C5A" stroke-width="2"/>
<rect x="4.64307" y="13.1475" width="45.6943" height="38.242" rx="19.121" fill="white" stroke="#EC6C5A" stroke-width="2"/>
<path d="M27.4077 12.4787V8.42139" stroke="#5E68DF" stroke-width="2" stroke-linejoin="round"/>
<rect x="11.4331" y="20.6001" width="32.0906" height="23.3376" rx="6.67805" fill="white" stroke="#EC6C5A" stroke-width="2"/>
<circle cx="27.4074" cy="4.44697" r="3.05732" stroke="#5E68DF" stroke-width="2"/>
<circle cx="20.618" cy="29.7845" r="1.24204" fill="#EC6C5A"/>
<circle cx="35.1913" cy="29.7845" r="1.24204" fill="#EC6C5A"/>
<path d="M24.7416 35.4798C24.32 35.123 23.6891 35.1756 23.3323 35.5972C22.9756 36.0188 23.0282 36.6498 23.4498 37.0066L24.7416 35.4798ZM31.7168 37.0557C32.1656 36.7338 32.2684 36.109 31.9465 35.6603C31.6245 35.2115 30.9998 35.1087 30.551 35.4306L31.7168 37.0557ZM23.4498 37.0066C24.7571 38.1127 28.184 39.5901 31.7168 37.0557L30.551 35.4306C27.9896 37.2682 25.5872 36.1952 24.7416 35.4798L23.4498 37.0066Z" fill="#5E68DF"/>
</svg>
