<svg width="58" height="36" viewBox="0 0 58 36" fill="none" xmlns="http://www.w3.org/2000/svg">
<path d="M16.5893 23.0715L27.31 27.0969C28.4232 27.5149 29.6507 27.5125 30.7623 27.0903L41.2048 23.1237L41.2047 30.3671H41.2046L41.2048 30.3785L41.2049 30.391C41.2049 30.7025 41.0314 31.1109 40.467 31.5897C39.9062 32.0655 39.0454 32.5316 37.9086 32.9395C35.6423 33.7528 32.4563 34.2718 28.8971 34.2718C25.3378 34.2718 22.1519 33.7528 19.8855 32.9395C18.7488 32.5316 17.8879 32.0655 17.3271 31.5897C16.7628 31.1109 16.5893 30.7025 16.5893 30.391L16.5892 30.3792L16.5892 30.3787L16.5893 30.3787V30.3671V23.0715Z" fill="white" stroke="#EC6C5A" stroke-width="1.67109"/>
<path d="M52.723 25.8045C53.1184 25.0785 53.5658 24.1354 53.9442 23.297C54.2389 22.6442 55.0777 22.5004 55.4386 23.119C56.0706 24.2024 56.4872 25.4949 56.6946 26.3562C56.7604 26.6298 56.7024 26.9265 56.4922 27.1134C55.6002 27.9064 54.2235 27.6939 53.154 27.2884C52.5805 27.071 52.4296 26.3432 52.723 25.8045Z" fill="white"/>
<path fill-rule="evenodd" clip-rule="evenodd" d="M54.7358 23.2326C54.6229 23.2482 54.4841 23.3315 54.4057 23.5052C54.0255 24.3474 53.5721 25.3039 53.1676 26.0465C53.0821 26.2036 53.0635 26.3877 53.1031 26.538C53.1408 26.6815 53.2227 26.7729 53.3335 26.8149C53.8341 27.0047 54.384 27.1399 54.8937 27.144C55.4001 27.148 55.831 27.0237 56.1558 26.7349C56.192 26.7027 56.2364 26.616 56.2024 26.4746C56.0016 25.6406 55.5996 24.3996 55.0013 23.374C54.9288 23.2497 54.8335 23.2191 54.7358 23.2326ZM54.5974 22.2295C55.083 22.1626 55.5875 22.3694 55.8759 22.8638L55.4386 23.1189M54.5974 22.2295C54.127 22.2944 53.6991 22.6094 53.4828 23.0886L54.5974 22.2295ZM55.8759 22.8638C56.5416 24.0049 56.9729 25.349 57.1868 26.2376C57.2845 26.6433 57.2129 27.15 56.8286 27.4917C56.2614 27.9959 55.558 28.1618 54.8857 28.1565C54.2167 28.1512 53.5435 27.9774 52.9746 27.7617C52.0244 27.4014 51.8881 26.2789 52.2784 25.5622C52.6647 24.8528 53.1061 23.9232 53.4828 23.0886" fill="#EC6C5A"/>
<path fill-rule="evenodd" clip-rule="evenodd" d="M53.8297 21.9587C54.0461 21.7816 54.3651 21.8135 54.5422 22.0299C54.7158 22.2422 54.805 22.554 54.861 22.8135C54.9226 23.0998 54.965 23.4344 54.9943 23.7709C55.0531 24.4455 55.0632 25.1755 55.0546 25.6441C55.0496 25.9237 54.8188 26.1462 54.5392 26.1411C54.2597 26.136 54.0372 25.9053 54.0422 25.6257C54.0503 25.182 54.0405 24.4888 53.9856 23.8587C53.9581 23.5429 53.9203 23.2549 53.8711 23.0268C53.8466 22.9129 53.821 22.8227 53.7963 22.7559C53.7729 22.6929 53.7572 22.67 53.7575 22.6699C53.7575 22.6699 53.7578 22.6703 53.7585 22.6711C53.5814 22.4547 53.6133 22.1358 53.8297 21.9587Z" fill="#EC6C5A"/>
<path fill-rule="evenodd" clip-rule="evenodd" d="M54.4491 12.1855C54.8685 12.1855 55.2085 12.5256 55.2085 12.945V21.355C55.2085 21.7744 54.8685 22.1144 54.4491 22.1144C54.0297 22.1144 53.6897 21.7744 53.6897 21.355V12.945C53.6897 12.5256 54.0297 12.1855 54.4491 12.1855Z" fill="#EC6C5A"/>
<path d="M56.54 21.6535C56.54 22.8078 55.6042 23.7436 54.4499 23.7436C53.2956 23.7436 52.3599 22.8078 52.3599 21.6535C52.3599 20.4992 53.2956 19.5635 54.4499 19.5635C55.6042 19.5635 56.54 20.4992 56.54 21.6535Z" fill="#5E68DF"/>
<path d="M27.1461 1.68661L2.60682 11.4647L2.91573 12.24L2.60682 11.4647C1.44403 11.928 1.46056 13.5797 2.63236 14.0197L27.2419 23.26C28.4061 23.6972 29.6899 23.6947 30.8525 23.2531L55.1658 14.0178C56.331 13.5752 56.3476 11.9328 55.1915 11.4668L30.948 1.69419L30.6383 2.46244L30.948 1.69419C29.7288 1.20276 28.3672 1.20004 27.1461 1.68661Z" fill="white" stroke="#EC6C5A" stroke-width="1.67109" stroke-linecap="round" stroke-linejoin="round"/>
<path fill-rule="evenodd" clip-rule="evenodd" d="M46.8011 12.9813C46.897 13.244 46.7618 13.5346 46.4991 13.6305L29.1814 19.9504C28.9188 20.0463 28.6281 19.911 28.5323 19.6484C28.4364 19.3857 28.5717 19.0951 28.8343 18.9992L46.152 12.6793C46.4146 12.5834 46.7053 12.7186 46.8011 12.9813Z" fill="#5E68DF"/>
<path fill-rule="evenodd" clip-rule="evenodd" d="M10.2494 12.645C10.3457 12.3825 10.6365 12.2478 10.899 12.3441L16.6867 14.4672C16.9492 14.5635 17.0839 14.8543 16.9877 15.1168C16.8914 15.3793 16.6005 15.5141 16.338 15.4178L10.5503 13.2947C10.2878 13.1984 10.1531 12.9076 10.2494 12.645Z" fill="#5E68DF"/>
</svg>
