<svg width="47" height="33" viewBox="0 0 47 33" fill="none" xmlns="http://www.w3.org/2000/svg">
<path d="M38.8037 16.6738C38.8037 24.8931 32.1407 31.5562 23.9214 31.5562C15.7021 31.5562 9.03906 24.8931 9.03906 16.6738C9.03906 8.45455 15.7021 1.7915 23.9214 1.7915C32.1407 1.7915 38.8037 8.45455 38.8037 16.6738Z" fill="white"/>
<path d="M23.9215 32.6891C32.7664 32.6891 39.9367 25.5189 39.9367 16.6739C39.9367 7.82895 32.7664 0.658691 23.9215 0.658691C15.0765 0.658691 7.90625 7.82895 7.90625 16.6739C7.90625 25.5189 15.0765 32.6891 23.9215 32.6891ZM38.5538 16.6739C38.5538 24.7551 32.0027 31.3062 23.9215 31.3062C15.8403 31.3062 9.28914 24.7551 9.28914 16.6739C9.28914 8.5927 15.8403 2.04158 23.9215 2.04158C32.0027 2.04158 38.5538 8.5927 38.5538 16.6739Z" fill="#EC6C5A" stroke="#EC6C5A" stroke-width="0.5"/>
<path fill-rule="evenodd" clip-rule="evenodd" d="M22.1556 29.7902C30.3749 29.7902 37.038 23.1271 37.038 14.9078C37.038 11.2477 35.7167 7.89616 33.525 5.3042C36.7537 8.03414 38.8037 12.1145 38.8037 16.6736C38.8037 24.8929 32.1407 31.5559 23.9214 31.5559C19.3623 31.5559 15.2819 29.5059 12.552 26.2772C15.144 28.4689 18.4955 29.7902 22.1556 29.7902Z" fill="#EC6C5A"/>
<path d="M27.6056 24.2095C39.4653 17.3623 47.1318 8.43778 44.729 4.27607C43.2769 1.76094 38.4794 1.56098 32.2927 3.30786C33.1219 3.84414 34.0026 4.5484 34.3393 4.8335C37.5118 4.28185 39.8152 4.61697 40.6034 5.98218C42.3525 9.01179 35.9776 15.967 26.3647 21.517C16.7517 27.0671 7.54093 29.1103 5.79178 26.0806C4.94481 24.6137 6.00265 22.2262 8.41059 19.5236C8.24443 18.6635 8.1541 17.4071 8.14927 16.8741C2.85361 21.7073 0.224704 26.3765 1.781 29.0721C4.18376 33.2338 15.7458 31.0568 27.6056 24.2095Z" fill="white"/>
<path fill-rule="evenodd" clip-rule="evenodd" d="M9.01421 14.889L9.03214 16.8657C9.03661 17.3578 9.12362 18.5593 9.27748 19.3557L9.3603 19.7845L9.06981 20.1105C7.90008 21.4234 7.10413 22.6108 6.69721 23.6007C6.28427 24.6053 6.33074 25.2479 6.55641 25.6388C6.78955 26.0426 7.35215 26.4148 8.49528 26.5489C9.61834 26.6806 11.1262 26.5558 12.9381 26.1538C16.5513 25.3523 21.1726 23.4948 25.9233 20.752C30.6739 18.0092 34.5932 14.9358 37.094 12.2075C38.348 10.8393 39.2101 9.59583 39.6575 8.55736C40.1129 7.50033 40.0719 6.82702 39.8388 6.4232C39.6288 6.05954 39.155 5.72136 38.2148 5.55853C37.2822 5.39701 36.0243 5.43621 34.4905 5.70292L34.0838 5.77364L33.7688 5.50686C33.4484 5.23563 32.5994 4.55722 31.8133 4.0488L30.1736 2.98838L32.0528 2.45777C35.1991 1.56938 38.0533 1.15701 40.3461 1.31242C42.606 1.4656 44.5463 2.19347 45.4936 3.8342C46.2779 5.19258 46.1764 6.83282 45.5629 8.48967C44.9469 10.1531 43.7723 11.9634 42.1855 13.8106C39.0063 17.5115 34.0396 21.5139 28.0471 24.9737C22.0545 28.4335 16.105 30.7336 11.3103 31.6364C8.91718 32.087 6.7621 32.1991 5.01353 31.9008C3.2719 31.6037 1.80067 30.8715 1.01641 29.5131C0.00384027 27.7593 0.44801 25.5497 1.61667 23.3588C2.80612 21.1289 4.86547 18.6754 7.55412 16.2216L9.01421 14.889ZM33.419 3.00705C39.0574 1.59394 43.3663 1.91535 44.729 4.27565C47.1318 8.43736 39.4654 17.3619 27.6056 24.2091C15.7458 31.0563 4.18378 33.2334 1.78102 29.0717C0.310156 26.5241 2.57761 22.2136 7.30154 17.6679C7.57592 17.4039 7.85859 17.139 8.14929 16.8737C8.15161 17.1296 8.17364 17.5522 8.2143 18.0177C8.25834 18.5217 8.32422 19.076 8.41061 19.5232C6.00267 22.2258 4.94483 24.6132 5.7918 26.0802C7.54095 29.1098 16.7517 27.0666 26.3647 21.5166C35.9777 15.9666 42.3525 9.01137 40.6034 5.98175C39.8152 4.61655 37.5118 4.28142 34.3393 4.83308C34.1317 4.65732 33.7174 4.32228 33.2359 3.96549C32.9364 3.74351 32.6108 3.51312 32.2927 3.30744C32.6736 3.1999 33.0492 3.09974 33.419 3.00705Z" fill="#EC6C5A"/>
<path fill-rule="evenodd" clip-rule="evenodd" d="M43.8461 3.83437C46.2489 7.99608 38.5825 16.9206 26.7227 23.7678C16.9006 29.4386 7.28275 31.9062 2.90283 30.2226C6.74574 32.6947 17.0579 30.299 27.6056 24.2093C39.4654 17.362 47.1318 8.43752 44.729 4.27581C44.3162 3.56077 43.633 3.03286 42.7243 2.68359C43.2024 2.99111 43.5803 3.37395 43.8461 3.83437ZM33.7351 4.34527C33.9954 4.54827 34.2084 4.72242 34.3393 4.83324C36.3225 4.4884 37.966 4.49008 39.1121 4.87326C38.0658 4.10888 36.1711 3.9556 33.7351 4.34527ZM8.25037 18.3929C8.001 18.6117 7.7308 18.8613 7.52773 19.0819C5.66027 21.1106 4.06194 24.172 4.90891 25.6389C5.20441 26.1508 5.71286 26.5178 6.40023 26.7476C6.14575 26.5617 5.94146 26.3396 5.79181 26.0804C4.94484 24.6134 6.00268 22.226 8.41062 19.5234C8.34528 19.1851 8.29167 18.7856 8.25037 18.3929Z" fill="#5E68DF"/>
<path fill-rule="evenodd" clip-rule="evenodd" d="M39.5657 3.11835C38.4842 3.05033 37.2895 3.17502 36.1911 3.37557C36.0711 3.39746 35.9562 3.318 35.9343 3.19808C35.9124 3.07816 35.9919 2.96319 36.1118 2.9413C37.2298 2.73719 38.4631 2.60668 39.5934 2.67777C40.7185 2.74854 41.7742 3.021 42.5039 3.6539C42.596 3.73378 42.6059 3.87318 42.526 3.96527C42.4461 4.05735 42.3067 4.06726 42.2146 3.98738C41.5924 3.44767 40.6524 3.1867 39.5657 3.11835Z" fill="#5E68DF"/>
<path fill-rule="evenodd" clip-rule="evenodd" d="M17.6139 27.8021C17.7155 28.0237 17.6182 28.2857 17.3966 28.3873C13.6143 30.1208 8.97983 30.6429 7.12569 30.6897C6.88196 30.6959 6.67939 30.5033 6.67324 30.2595C6.66708 30.0158 6.85967 29.8132 7.1034 29.8071C8.89119 29.7619 13.3947 29.2503 17.0287 27.5847C17.2503 27.4831 17.5123 27.5804 17.6139 27.8021Z" fill="white"/>
<path d="M33.5717 13.3665C33.5717 13.8084 33.2135 14.1666 32.7716 14.1666C32.3297 14.1666 31.9714 13.8084 31.9714 13.3665C31.9714 12.9246 32.3297 12.5664 32.7716 12.5664C33.2135 12.5664 33.5717 12.9246 33.5717 13.3665Z" fill="#5E68DF"/>
<path d="M20.3349 6.10432C20.3349 6.54621 19.9766 6.90444 19.5347 6.90444C19.0928 6.90444 18.7346 6.54621 18.7346 6.10432C18.7346 5.66243 19.0928 5.3042 19.5347 5.3042C19.9766 5.3042 20.3349 5.66243 20.3349 6.10432Z" fill="#5E68DF"/>
<path d="M14.5089 12.2078C14.5089 12.6497 14.1507 13.008 13.7088 13.008C13.2669 13.008 12.9087 12.6497 12.9087 12.2078C12.9087 11.7659 13.2669 11.4077 13.7088 11.4077C14.1507 11.4077 14.5089 11.7659 14.5089 12.2078Z" fill="#5E68DF"/>
<path d="M18.4543 20.2645C18.4543 20.9502 17.8985 21.5061 17.2128 21.5061C16.5271 21.5061 15.9712 20.9502 15.9712 20.2645C15.9712 19.5788 16.5271 19.0229 17.2128 19.0229C17.8985 19.0229 18.4543 19.5788 18.4543 20.2645Z" fill="#5E68DF"/>
<path d="M24.0364 12.1254C24.0364 12.8111 23.4805 13.3669 22.7948 13.3669C22.1091 13.3669 21.5532 12.8111 21.5532 12.1254C21.5532 11.4397 22.1091 10.8838 22.7948 10.8838C23.4805 10.8838 24.0364 11.4397 24.0364 12.1254Z" fill="#5E68DF"/>
<path d="M30.1636 6.90416C30.1636 7.58986 29.6077 8.14573 28.922 8.14573C28.2363 8.14573 27.6804 7.58986 27.6804 6.90416C27.6804 6.21847 28.2363 5.6626 28.922 5.6626C29.6077 5.6626 30.1636 6.21847 30.1636 6.90416Z" fill="#5E68DF"/>
<path d="M28.1611 19.0228C28.1611 19.7085 27.6052 20.2644 26.9195 20.2644C26.2338 20.2644 25.678 19.7085 25.678 19.0228C25.678 18.3371 26.2338 17.7812 26.9195 17.7812C27.6052 17.7812 28.1611 18.3371 28.1611 19.0228Z" fill="#5E68DF"/>
</svg>
