<svg width="44" height="46" viewBox="0 0 44 46" fill="none" xmlns="http://www.w3.org/2000/svg">
<path d="M13.4887 2.88965C7.27875 2.88965 2.25 7.92965 2.25 14.1396C2.25 20.3496 7.27875 25.3896 13.4887 25.3896C19.71 25.3896 24.75 20.3496 24.75 14.1396C24.75 7.92965 19.71 2.88965 13.4887 2.88965ZM21.285 9.63965H17.9663C17.6063 8.2334 17.0887 6.8834 16.4137 5.63465C18.4837 6.3434 20.205 7.7834 21.285 9.63965ZM13.5 5.18465C14.4338 6.53465 15.165 8.0309 15.6488 9.63965H11.3512C11.835 8.0309 12.5662 6.53465 13.5 5.18465ZM4.7925 16.3896C4.6125 15.6696 4.5 14.9159 4.5 14.1396C4.5 13.3634 4.6125 12.6096 4.7925 11.8896H8.595C8.505 12.6321 8.4375 13.3746 8.4375 14.1396C8.4375 14.9046 8.505 15.6471 8.595 16.3896H4.7925ZM5.715 18.6396H9.03375C9.39375 20.0459 9.91125 21.3959 10.5863 22.6446C8.51625 21.9359 6.795 20.5071 5.715 18.6396ZM9.03375 9.63965H5.715C6.795 7.77215 8.51625 6.3434 10.5863 5.63465C9.91125 6.8834 9.39375 8.2334 9.03375 9.63965ZM13.5 23.0946C12.5662 21.7446 11.835 20.2484 11.3512 18.6396H15.6488C15.165 20.2484 14.4338 21.7446 13.5 23.0946ZM16.1325 16.3896H10.8675C10.7662 15.6471 10.6875 14.9046 10.6875 14.1396C10.6875 13.3746 10.7662 12.6209 10.8675 11.8896H16.1325C16.2338 12.6209 16.3125 13.3746 16.3125 14.1396C16.3125 14.9046 16.2338 15.6471 16.1325 16.3896ZM16.4137 22.6446C17.0887 21.3959 17.6063 20.0459 17.9663 18.6396H21.285C20.205 20.4959 18.4837 21.9359 16.4137 22.6446ZM18.405 16.3896C18.495 15.6471 18.5625 14.9046 18.5625 14.1396C18.5625 13.3746 18.495 12.6321 18.405 11.8896H22.2075C22.3875 12.6096 22.5 13.3634 22.5 14.1396C22.5 14.9159 22.3875 15.6696 22.2075 16.3896H18.405Z" fill="#EC6C5A"/>
<rect x="16.875" y="18.5146" width="26.25" height="26.25" rx="3.5" fill="white" stroke="#5E68DF" stroke-width="1.75"/>
<path d="M28.1798 37.0994C28.1798 37.4028 28.4225 37.7061 28.7865 37.7061H31.2132C31.5772 37.7061 31.8198 37.4028 31.8198 37.0994V36.4928H28.1798V37.0994ZM29.9998 25.5728C27.6338 25.5728 25.7532 27.4534 25.7532 29.8194C25.7532 31.2754 26.4812 32.5494 27.5732 33.2774V34.6728C27.5732 34.9761 27.8158 35.2794 28.1798 35.2794H31.8198C32.1838 35.2794 32.4265 34.9761 32.4265 34.6728V33.2774C33.5185 32.4888 34.2465 31.2148 34.2465 29.8194C34.2465 27.4534 32.3658 25.5728 29.9998 25.5728Z" fill="#EC6C5A"/>
</svg>
