<svg width="30" height="50" viewBox="0 0 30 50" fill="none" xmlns="http://www.w3.org/2000/svg">
<path d="M14.0459 18.5861C14.0459 25.2471 14.8393 30.5193 15.337 34.8517L21.0085 35.7258C21.5992 33.247 24.7221 27.6657 25.9158 20.7402C27.1095 13.8148 26.8495 10.4001 25.9158 8.43392C24.363 5.16424 20.1969 5.1153 17.6853 7.35508C15.1736 9.59486 14.0459 16.3359 14.0459 18.5861Z" fill="white"/>
<path fill-rule="evenodd" clip-rule="evenodd" d="M14.4554 35.6998L14.3708 34.9628C14.2927 34.2831 14.2069 33.5773 14.1177 32.8441C13.6428 28.9379 13.0733 24.254 13.0733 18.5863C13.0733 17.3566 13.3721 15.0229 13.9836 12.7176C14.2912 11.5579 14.6853 10.3768 15.1759 9.32697C15.6609 8.28905 16.27 7.31435 17.0379 6.62962C18.4873 5.33705 20.4207 4.69415 22.2479 4.86038C24.1034 5.02918 25.8549 6.04004 26.7937 8.01703C27.87 10.2834 28.0685 13.9729 26.8736 20.9056C26.2607 24.4612 25.1554 27.6572 24.1414 30.2543C23.8119 31.0982 23.4861 31.8933 23.1922 32.6107C23.0373 32.9886 22.8913 33.345 22.7582 33.6757C22.3607 34.6633 22.0824 35.4125 21.954 35.9514L21.7462 36.8234L14.4554 35.6998ZM15.0817 32.7165C14.6071 28.8112 14.0455 24.1903 14.0455 18.5863C14.0455 16.336 15.1733 9.59504 17.685 7.35526C20.1966 5.11548 24.3627 5.16442 25.9154 8.4341C26.8492 10.4003 27.1091 13.815 25.9155 20.7404C25.1241 25.3315 23.485 29.3319 22.2978 32.2293C21.6941 33.7024 21.2073 34.8904 21.0082 35.726L15.3367 34.8519C15.2577 34.1643 15.1712 33.4532 15.0817 32.7165Z" fill="#EC6C5A"/>
<path fill-rule="evenodd" clip-rule="evenodd" d="M21.7856 12.5377C21.8995 12.2946 22.189 12.1899 22.4321 12.3038L23.9322 13.007C24.1753 13.121 24.28 13.4104 24.1661 13.6535C24.0521 13.8966 23.7627 14.0013 23.5196 13.8874L22.0194 13.1842C21.7763 13.0702 21.6716 12.7808 21.7856 12.5377Z" fill="#5E68DF"/>
<path fill-rule="evenodd" clip-rule="evenodd" d="M23.4743 12.2187C23.6997 12.3645 23.7642 12.6655 23.6184 12.8909L22.8448 14.0863C22.699 14.3117 22.398 14.3762 22.1726 14.2304C21.9472 14.0845 21.8827 13.7836 22.0286 13.5582L22.8021 12.3627C22.9479 12.1373 23.2489 12.0728 23.4743 12.2187Z" fill="#5E68DF"/>
<path fill-rule="evenodd" clip-rule="evenodd" d="M21.2019 9.8757C21.0062 9.69189 20.9966 9.38424 21.1804 9.18855L22.3147 7.98094C22.4985 7.78525 22.8062 7.77562 23.0018 7.95944C23.1975 8.14325 23.2072 8.4509 23.0234 8.64659L21.889 9.8542C21.7052 10.0499 21.3976 10.0595 21.2019 9.8757Z" fill="#5E68DF"/>
<path fill-rule="evenodd" clip-rule="evenodd" d="M21.4231 8.1714C21.6317 8.00243 21.9378 8.03459 22.1068 8.24324L23.0029 9.34976C23.1719 9.5584 23.1397 9.86451 22.9311 10.0335C22.7225 10.2025 22.4163 10.1703 22.2474 9.96165L21.3513 8.85512C21.1823 8.64648 21.2145 8.34037 21.4231 8.1714Z" fill="#5E68DF"/>
<path fill-rule="evenodd" clip-rule="evenodd" d="M16.7286 12.4184C16.6879 12.153 16.8699 11.9049 17.1353 11.8641L18.7729 11.6127C19.0383 11.5719 19.2865 11.754 19.3272 12.0194C19.3679 12.2848 19.1859 12.5329 18.9205 12.5737L17.2829 12.8251C17.0175 12.8659 16.7693 12.6838 16.7286 12.4184Z" fill="#5E68DF"/>
<path fill-rule="evenodd" clip-rule="evenodd" d="M17.9535 11.213C18.222 11.2086 18.4432 11.4226 18.4476 11.6911L18.4709 13.1147C18.4753 13.3832 18.2612 13.6044 17.9928 13.6088C17.7243 13.6132 17.5032 13.3991 17.4988 13.1307L17.4754 11.707C17.471 11.4385 17.6851 11.2174 17.9535 11.213Z" fill="#5E68DF"/>
<path fill-rule="evenodd" clip-rule="evenodd" d="M18.5714 16.7832C18.5306 16.5178 18.7127 16.2696 18.9781 16.2289L20.6157 15.9774C20.8811 15.9367 21.1292 16.1188 21.17 16.3841C21.2107 16.6495 21.0286 16.8977 20.7633 16.9384L19.1256 17.1899C18.8603 17.2306 18.6121 17.0485 18.5714 16.7832Z" fill="#5E68DF"/>
<path fill-rule="evenodd" clip-rule="evenodd" d="M19.7963 15.5777C20.0647 15.5733 20.2859 15.7874 20.2903 16.0558L20.3137 17.4795C20.3181 17.7479 20.104 17.9691 19.8356 17.9735C19.5671 17.9779 19.3459 17.7639 19.3415 17.4954L19.3182 16.0717C19.3138 15.8033 19.5279 15.5821 19.7963 15.5777Z" fill="#5E68DF"/>
<path fill-rule="evenodd" clip-rule="evenodd" d="M22.0353 20.5141C21.8769 20.2973 21.9242 19.9932 22.141 19.8348L23.4788 18.8573C23.6955 18.6989 23.9997 18.7463 24.1581 18.963C24.3165 19.1798 24.2691 19.4839 24.0524 19.6423L22.7146 20.6198C22.4978 20.7782 22.1937 20.7309 22.0353 20.5141Z" fill="#5E68DF"/>
<path fill-rule="evenodd" clip-rule="evenodd" d="M22.5673 18.8799C22.8036 18.7523 23.0985 18.8404 23.226 19.0767L23.9025 20.3296C24.03 20.5659 23.9419 20.8608 23.7057 20.9883C23.4694 21.1159 23.1745 21.0278 23.047 20.7915L22.3705 19.5386C22.243 19.3023 22.3311 19.0074 22.5673 18.8799Z" fill="#5E68DF"/>
<path fill-rule="evenodd" clip-rule="evenodd" d="M17.276 22.9985C17.1176 22.7817 17.165 22.4776 17.3817 22.3192L18.7195 21.3417C18.9363 21.1833 19.2404 21.2306 19.3988 21.4474C19.5572 21.6642 19.5099 21.9683 19.2931 22.1267L17.9553 23.1042C17.7386 23.2626 17.4344 23.2152 17.276 22.9985Z" fill="#5E68DF"/>
<path fill-rule="evenodd" clip-rule="evenodd" d="M17.808 21.3643C18.0443 21.2367 18.3392 21.3248 18.4667 21.5611L19.1432 22.814C19.2708 23.0502 19.1826 23.3452 18.9464 23.4727C18.7101 23.6003 18.4152 23.5121 18.2877 23.2759L17.6112 22.023C17.4837 21.7867 17.5718 21.4918 17.808 21.3643Z" fill="#5E68DF"/>
<path fill-rule="evenodd" clip-rule="evenodd" d="M20.1906 25.7078C20.2167 25.4406 20.4544 25.2451 20.7216 25.2712L22.3706 25.4322C22.6378 25.4583 22.8333 25.6961 22.8072 25.9633C22.7811 26.2305 22.5433 26.426 22.2761 26.3999L20.6272 26.2389C20.3599 26.2128 20.1645 25.975 20.1906 25.7078Z" fill="#5E68DF"/>
<path fill-rule="evenodd" clip-rule="evenodd" d="M21.6754 24.8424C21.9366 24.9044 22.098 25.1665 22.0359 25.4277L21.7068 26.813C21.6447 27.0742 21.3826 27.2357 21.1214 27.1736C20.8602 27.1115 20.6988 26.8495 20.7609 26.5883L21.09 25.203C21.1521 24.9417 21.4142 24.7803 21.6754 24.8424Z" fill="#5E68DF"/>
<path fill-rule="evenodd" clip-rule="evenodd" d="M18.272 31.502C18.0057 31.536 17.7623 31.3476 17.7283 31.0813L17.5187 29.4378C17.4847 29.1715 17.6731 28.9281 17.9394 28.8941C18.2057 28.8601 18.4491 29.0485 18.4831 29.3148L18.6927 30.9583C18.7267 31.2246 18.5383 31.4681 18.272 31.502Z" fill="#5E68DF"/>
<path fill-rule="evenodd" clip-rule="evenodd" d="M17.0982 30.2468C17.1006 29.9783 17.3202 29.7627 17.5887 29.7651L19.0125 29.7781C19.281 29.7805 19.4966 30.0001 19.4942 30.2686C19.4917 30.5371 19.2721 30.7527 19.0037 30.7503L17.5798 30.7373C17.3114 30.7349 17.0957 30.5152 17.0982 30.2468Z" fill="#5E68DF"/>
<path d="M17.2476 16.6938C18.069 22.8846 16.7596 30.6167 16.3383 35.6791L11.4417 36.8514C10.6635 33.9868 6.82367 27.6025 5.18098 19.5828C3.53828 11.5631 3.91088 8.09935 4.92633 5.77608C6.208 2.84372 10.2219 0.836007 13.0582 3.82918C15.7546 6.67467 16.9029 14.0953 17.2476 16.6938Z" fill="white"/>
<path fill-rule="evenodd" clip-rule="evenodd" d="M17.2494 36.4612L17.3078 35.7601C17.4045 34.5978 17.5489 33.2904 17.7053 31.8746C17.717 31.7685 17.7288 31.6618 17.7406 31.5545C17.9097 30.0212 18.0886 28.3748 18.2285 26.6905C18.5075 23.3304 18.6366 19.7667 18.212 16.5664C18.0376 15.2519 17.658 12.7007 16.9756 10.1071C16.3071 7.56651 15.2985 4.77964 13.7645 3.16085C12.0696 1.37219 9.95732 1.05463 8.10882 1.65649C6.31597 2.24024 4.78349 3.67694 4.03601 5.38712C2.89511 7.99742 2.577 11.7129 4.22906 19.7783C5.06933 23.8806 6.46833 27.5501 7.74193 30.5325C8.15597 31.5021 8.5631 32.4133 8.93114 33.2369C9.12543 33.6718 9.30883 34.0822 9.47661 34.464C9.97501 35.5982 10.3313 36.4708 10.504 37.1067L10.7513 38.017L17.2494 36.4612ZM16.7384 31.7719C17.2536 27.1078 17.8788 21.4468 17.2482 16.6943C16.9034 14.0957 15.7552 6.67509 13.0588 3.8296C10.2224 0.836428 6.20855 2.84414 4.92688 5.7765C3.91143 8.09977 3.53884 11.5635 5.18153 19.5832C6.27053 24.8997 8.32511 29.4976 9.81319 32.8277C10.5698 34.5208 11.18 35.8863 11.4423 36.8518L16.3389 35.6795C16.4367 34.5035 16.5825 33.1833 16.7384 31.7719Z" fill="#EC6C5A"/>
<path fill-rule="evenodd" clip-rule="evenodd" d="M5.25191 4.44181C5.52017 4.45265 5.72885 4.6789 5.71801 4.94717C5.68844 5.67903 5.66837 6.88817 5.70471 8.12644C5.74134 9.37449 5.8345 10.6144 6.02081 11.4274C6.33341 12.7914 6.72237 15.058 7.05486 16.9954C7.24871 18.125 7.42336 19.1427 7.55249 19.8045C7.72822 20.7051 8.5438 23.9588 9.42618 27.1286C9.86652 28.7105 10.321 30.2622 10.7175 31.4804C10.916 32.0901 11.098 32.6103 11.255 33.0067C11.3336 33.205 11.4037 33.3669 11.4645 33.4909C11.5289 33.6224 11.5702 33.6848 11.586 33.7039C11.757 33.9109 11.7278 34.2173 11.5208 34.3883C11.3139 34.5593 11.0074 34.5301 10.8365 34.3231C10.7455 34.213 10.6638 34.0664 10.5915 33.9188C10.5154 33.7636 10.4349 33.5762 10.3511 33.3647C10.1834 32.9413 9.99419 32.3995 9.79299 31.7813C9.39017 30.5439 8.93145 28.9768 8.48954 27.3894C7.60743 24.2205 6.78215 20.9332 6.59824 19.9907C6.46 19.2822 6.28047 18.2347 6.084 17.0884C5.75653 15.1776 5.38198 12.9923 5.07312 11.6445C4.86382 10.7312 4.76967 9.40868 4.73288 8.15497C4.69579 6.89149 4.71618 5.65957 4.74655 4.90791C4.75739 4.63965 4.98364 4.43097 5.25191 4.44181Z" fill="#EC6C5A"/>
<path fill-rule="evenodd" clip-rule="evenodd" d="M8.18189 2.11605C8.44378 2.05691 8.70402 2.22127 8.76315 2.48316C9.07595 3.86842 9.71915 7.11267 9.71915 8.79404C9.71915 9.75948 10.0479 12.1073 10.4049 14.4758C10.4859 15.0135 10.5683 15.5515 10.6479 16.0716C10.9131 17.8039 11.1478 19.3368 11.2011 19.9935C11.3078 21.3096 12.2615 28.9081 12.7272 32.5587C12.7612 32.8251 12.5729 33.0685 12.3065 33.1025C12.0402 33.1364 11.7968 32.9481 11.7628 32.6818C11.2994 29.0497 10.3411 21.4173 10.232 20.0721C10.1818 19.4532 9.95623 17.9792 9.6932 16.2607C9.61218 15.7313 9.5276 15.1787 9.44351 14.6207C9.09245 12.2915 8.7469 9.85159 8.7469 8.79404C8.7469 7.23865 8.13135 4.09927 7.81478 2.69731C7.75564 2.43542 7.92001 2.17518 8.18189 2.11605Z" fill="#EC6C5A"/>
<path fill-rule="evenodd" clip-rule="evenodd" d="M10.7903 2.00937C11.0358 1.90086 11.3229 2.01197 11.4314 2.25755C12.0011 3.54685 13.266 6.64865 13.709 8.64228C14.2565 11.1058 14.8434 16.0813 14.979 19.6082C15.0329 21.0096 14.9664 23.0808 14.8976 25.226C14.8793 25.7979 14.8607 26.375 14.8443 26.9461C14.765 29.6972 14.7354 32.2798 14.9719 33.6129C15.0188 33.8773 14.8425 34.1296 14.5782 34.1765C14.3138 34.2234 14.0615 34.0471 14.0146 33.7828C13.7566 32.3286 13.7944 29.629 13.8724 26.9181C13.8893 26.3337 13.9081 25.7474 13.9266 25.1697C13.9951 23.0301 14.0599 21.009 14.0075 19.6456C13.8734 16.1595 13.2914 11.2448 12.7599 8.85319C12.3398 6.9627 11.1113 3.93862 10.5421 2.6505C10.4336 2.40492 10.5447 2.11788 10.7903 2.00937Z" fill="#EC6C5A"/>
<path d="M7.39817 37.7011C7.10445 35.9244 8.47504 34.3086 10.2759 34.3086H19.7155C21.5163 34.3086 22.8869 35.9244 22.5932 37.7011L21.2567 45.7854C21.0239 47.1935 19.8063 48.2264 18.379 48.2264H11.6123C10.185 48.2264 8.96741 47.1935 8.73462 45.7854L7.39817 37.7011Z" fill="white"/>
<path fill-rule="evenodd" clip-rule="evenodd" d="M10.2764 33.3359H19.716C22.1171 33.3359 23.9446 35.4903 23.553 37.8592L22.2165 45.9436C21.9061 47.8211 20.2826 49.1983 18.3796 49.1983H11.6129C9.70985 49.1983 8.08634 47.8211 7.77595 45.9436L6.4395 37.8592C6.04788 35.4903 7.87533 33.3359 10.2764 33.3359ZM10.2764 34.3082C8.47561 34.3082 7.10502 35.924 7.39873 37.7007L8.73519 45.785C8.96798 47.1931 10.1856 48.226 11.6129 48.226H18.3796C19.8069 48.226 21.0245 47.1931 21.2573 45.785L22.5937 37.7007C22.8875 35.924 21.5169 34.3082 19.716 34.3082H10.2764Z" fill="#EC6C5A"/>
<path fill-rule="evenodd" clip-rule="evenodd" d="M7.25317 40.1687C7.25317 39.9003 7.47082 39.6826 7.7393 39.6826H14.1619C14.4304 39.6826 14.648 39.9003 14.648 40.1687C14.648 40.4372 14.4304 40.6549 14.1619 40.6549H7.7393C7.47082 40.6549 7.25317 40.4372 7.25317 40.1687Z" fill="#EC6C5A"/>
<path d="M3.92383 33.931C3.92383 32.8969 4.76212 32.0586 5.79621 32.0586H24.1968C25.2309 32.0586 26.0692 32.8969 26.0692 33.931C26.0692 34.9651 25.2309 35.8034 24.1968 35.8034H5.79621C4.76212 35.8034 3.92383 34.9651 3.92383 33.931Z" fill="white"/>
<path fill-rule="evenodd" clip-rule="evenodd" d="M5.79459 31.0864H24.1952C25.7662 31.0864 27.0398 32.36 27.0398 33.9311C27.0398 35.5021 25.7662 36.7757 24.1952 36.7757H5.79459C4.22354 36.7757 2.94995 35.5021 2.94995 33.9311C2.94995 32.36 4.22354 31.0864 5.79459 31.0864ZM5.79459 32.0587C4.7605 32.0587 3.9222 32.897 3.9222 33.9311C3.9222 34.9652 4.7605 35.8035 5.79459 35.8035H24.1952C25.2293 35.8035 26.0676 34.9652 26.0676 33.9311C26.0676 32.897 25.2293 32.0587 24.1952 32.0587H5.79459Z" fill="#EC6C5A"/>
</svg>
