<svg width="54" height="53" viewBox="0 0 54 53" fill="none" xmlns="http://www.w3.org/2000/svg">
<path d="M31.4999 15.5686C31.3332 10.2353 32.8999 0.86863 40.4999 6.06863C44.1666 8.06862 48.5 14.7686 38.5 19.5686" stroke="#EC6C5A" stroke-width="2"/>
<path d="M40.5666 19.5381C42.5571 16.5868 47.0593 12.129 49.1435 17.9082C50.3476 20.4211 51.2845 25.8726 44 24.5688" stroke="#EC6C5A" stroke-width="2"/>
<path d="M15.9602 37.8213C20.308 37.2439 30.1209 32.0962 34.5907 16.124" stroke="#5E68DF" stroke-width="2"/>
<path d="M23.3479 43.477C27.6957 42.8997 37.5086 37.7519 41.9784 21.7798" stroke="#5E68DF" stroke-width="2"/>
<path d="M44.9769 38.3873C41.2909 45.2917 31.4974 47.5656 22.9377 42.996C14.3781 38.4264 10.818 29.0237 14.504 22.1192C18.1899 15.2148 27.9835 12.941 36.5432 17.5106C45.1028 22.0802 48.6629 31.4829 44.9769 38.3873Z" stroke="#EC6C5A" stroke-width="2"/>
<circle cx="13.9614" cy="19.3212" r="9.36614" transform="rotate(15.6343 13.9614 19.3212)" fill="white" stroke="#EC6C5A" stroke-width="2"/>
<path d="M2.42187 4.39931C1.8796 4.50404 1.52491 5.02853 1.62963 5.57079C1.73436 6.11306 2.25885 6.46775 2.80111 6.36303L2.42187 4.39931ZM7.96242 13.6594C8.04986 13.347 8.16533 12.5887 8.21088 11.6834C8.25736 10.7593 8.23628 9.59047 8.00626 8.46184C7.77964 7.34995 7.32487 6.15204 6.40365 5.31277C5.43177 4.42735 4.09327 4.07652 2.42187 4.39931L2.80111 6.36303C3.97457 6.1364 4.63608 6.40799 5.05673 6.79121C5.52803 7.22059 5.85829 7.93758 6.04654 8.86125C6.23139 9.76818 6.25502 10.7556 6.2134 11.5829C6.19279 11.9926 6.15672 12.3526 6.11981 12.6301C6.10136 12.7689 6.08308 12.8841 6.06706 12.9724C6.05907 13.0165 6.05199 13.0519 6.04617 13.0788C6.04328 13.0921 6.0409 13.1024 6.03907 13.11C6.0372 13.1177 6.03629 13.1209 6.03642 13.1205L7.96242 13.6594Z" fill="#EC6C5A"/>
<path d="M7.83717 1.07877C7.2949 1.18349 6.94021 1.70798 7.04493 2.25025C7.14966 2.79251 7.67415 3.14721 8.21641 3.04248L7.83717 1.07877ZM13.4626 10.1591C13.5512 9.84255 13.6608 9.09204 13.6982 8.20288C13.7364 7.294 13.7038 6.14547 13.461 5.03712C13.2214 3.94365 12.7509 2.76944 11.818 1.95146C10.8382 1.09234 9.50142 0.757359 7.83717 1.07877L8.21641 3.04248C9.39702 2.81448 10.0709 3.07943 10.4995 3.45526C10.975 3.87222 11.3108 4.56796 11.5073 5.46512C11.7006 6.34739 11.7339 7.31016 11.7 8.1189C11.6831 8.51933 11.6503 8.87136 11.6157 9.14295C11.5984 9.27875 11.581 9.39143 11.5657 9.47763C11.558 9.52068 11.5513 9.55509 11.5457 9.58105C11.5398 9.6084 11.5366 9.62024 11.5366 9.62015L13.4626 10.1591Z" fill="#EC6C5A"/>
</svg>
