<svg width="61" height="55" viewBox="0 0 61 55" fill="none" xmlns="http://www.w3.org/2000/svg">
<path d="M22.708 31.5686L32.6586 16.998" stroke="#EC6C5A" stroke-width="2" stroke-linejoin="round"/>
<path d="M33.1152 40.3809L48.1125 29.5688" stroke="#EC6C5A" stroke-width="2" stroke-linejoin="round"/>
<circle cx="22.7596" cy="41.6629" r="11.906" fill="white" stroke="#EC6C5A" stroke-width="2"/>
<path d="M2.86714 29.3931C2.34625 29.2095 1.77519 29.483 1.59164 30.0039C1.40809 30.5248 1.68156 31.0959 2.20245 31.2794L2.86714 29.3931ZM2.86697 37.6254C2.34596 37.4421 1.77508 37.716 1.59186 38.237C1.40864 38.758 1.68248 39.3289 2.20349 39.5121L2.86697 37.6254ZM2.20245 31.2794L23.7573 38.8748L24.422 36.9885L2.86714 29.3931L2.20245 31.2794ZM21.8476 44.3L2.86697 37.6254L2.20349 39.5121L21.1841 46.1867L21.8476 44.3ZM25.5627 42.3909C25.1014 43.9753 23.4043 44.8474 21.8476 44.3L21.1841 46.1867C23.8235 47.1149 26.7009 45.6363 27.483 42.95L25.5627 42.3909ZM23.7573 38.8748C25.1968 39.382 25.9893 40.9255 25.5627 42.3909L27.483 42.95C28.2063 40.4654 26.8627 37.8485 24.422 36.9885L23.7573 38.8748Z" fill="#5E68DF"/>
<circle cx="22.7596" cy="41.6629" r="7.22148" fill="white" stroke="#5E68DF" stroke-width="2"/>
<circle cx="44.377" cy="16.8306" r="15.2617" fill="white" stroke="#EC6C5A" stroke-width="2"/>
<circle cx="44.1824" cy="16.9983" r="9.06711" fill="white" stroke="#5E68DF" stroke-width="2"/>
</svg>
