<svg width="63" height="28" fill="none" xmlns="http://www.w3.org/2000/svg"><path d="M.624 21.938a1 1 0 001.752.965l-1.752-.965zm15.318.483l-.657.754.017.014.64-.768zm15.223 0l-.54-.842a1.008 1.008 0 00-.12.09l.66.752zm14.441.999l-.743.67.044.044.7-.714zm17.003-.207a1 1 0 00-1.218-1.585l1.218 1.585zm-60.233-.31c.675-1.225 2.116-2.691 4.202-3.115 2.043-.415 4.957.12 8.707 3.387l1.314-1.508c-4.057-3.534-7.583-4.415-10.42-3.839-2.792.568-4.669 2.502-5.555 4.11l1.752.965zm12.926.286c1.42 1.183 3.913 2.576 6.865 2.985 2.992.414 6.448-.188 9.657-3.001l-1.319-1.504c-2.723 2.387-5.579 2.868-8.064 2.524-2.525-.35-4.678-1.557-5.86-2.54l-1.279 1.536zm16.402.074c1.318-.845 3.596-1.824 6.062-1.982 2.432-.156 5.002.482 7.097 2.808l1.486-1.338c-2.588-2.874-5.807-3.652-8.71-3.466-2.869.184-5.47 1.304-7.014 2.294l1.079 1.684zm13.203.871c2.541 2.49 9.473 5.405 17.702-.92l-1.218-1.586c-7.383 5.675-13.203 2.922-15.085 1.078l-1.4 1.428z" fill="#EC6C5A"/><path d="M.624 13.692a1 1 0 001.752.965l-1.752-.965zm15.318.483l-.657.754.017.014.64-.768zm15.223 0l-.54-.843a1.008 1.008 0 00-.12.09l.66.753zm14.441.999l-.743.67.044.044.7-.714zm17.003-.207a1 1 0 00-1.218-1.585l1.218 1.585zm-60.233-.31c.675-1.225 2.116-2.691 4.202-3.115 2.043-.415 4.957.12 8.707 3.387L16.6 13.42C12.543 9.886 9.017 9.005 6.18 9.581c-2.792.568-4.669 2.502-5.555 4.11l1.752.965zm12.926.286c1.42 1.183 3.913 2.576 6.865 2.985 2.992.414 6.448-.189 9.657-3.002l-1.319-1.503c-2.723 2.387-5.579 2.868-8.064 2.524-2.525-.35-4.678-1.557-5.86-2.54l-1.279 1.536zm16.402.074c1.318-.845 3.596-1.824 6.062-1.982 2.432-.156 5.002.482 7.097 2.808l1.486-1.338c-2.588-2.875-5.807-3.653-8.71-3.466-2.869.184-5.47 1.304-7.014 2.293l1.079 1.685zm13.203.871c2.541 2.49 9.473 5.405 17.702-.92l-1.218-1.586c-7.383 5.675-13.203 2.922-15.085 1.078l-1.4 1.428z" fill="#5E68DF"/><path d="M.624 4.692a1 1 0 101.752.965L.624 4.692zm15.318.483l-.657.754.017.014.64-.768zm15.223 0l-.54-.843a1.01 1.01 0 00-.12.09l.66.753zm14.441.999l-.743.67.044.044.7-.714zm17.003-.207a1 1 0 10-1.218-1.585l1.218 1.585zm-60.233-.31c.675-1.225 2.116-2.691 4.202-3.115 2.043-.415 4.957.12 8.707 3.387L16.6 4.42C12.542.887 9.016.006 6.179.582 3.388 1.15 1.51 3.084.625 4.692l1.752.965zm12.926.286c1.42 1.183 3.913 2.576 6.865 2.985 2.992.414 6.448-.188 9.657-3.001l-1.319-1.504c-2.723 2.387-5.579 2.868-8.064 2.524-2.525-.35-4.678-1.557-5.86-2.54l-1.279 1.536zm16.402.074c1.318-.845 3.596-1.824 6.062-1.982 2.432-.156 5.002.482 7.097 2.808l1.486-1.338c-2.588-2.874-5.807-3.652-8.71-3.466-2.869.184-5.47 1.304-7.014 2.293l1.079 1.685zm13.203.871c2.541 2.49 9.473 5.405 17.702-.92l-1.218-1.586c-7.383 5.675-13.203 2.922-15.085 1.078l-1.4 1.428z" fill="#EC6C5A"/></svg>