<svg width="54" height="49" viewBox="0 0 54 49" fill="none" xmlns="http://www.w3.org/2000/svg">
<path d="M0.415229 47.9555C0.41522 48.5078 0.862928 48.9555 1.41521 48.9555C1.9675 48.9555 2.41522 48.5078 2.41523 47.9555L0.415229 47.9555ZM51.4667 2.50781C52.019 2.50781 52.4667 2.0601 52.4667 1.50781C52.4667 0.955528 52.019 0.507812 51.4667 0.507812V2.50781ZM2.41523 47.9555C2.41528 44.7372 1.34184 33.4237 6.90635 22.8603C9.67332 17.6076 14.0898 12.5374 21.1453 8.77089C28.2107 4.99909 37.9741 2.50781 51.4667 2.50781V0.507812C37.7334 0.507812 27.6274 3.04334 20.2034 7.00655C12.7694 10.9751 8.07626 16.3481 5.13685 21.9281C-0.711419 33.0302 0.415277 44.9406 0.415229 47.9555L2.41523 47.9555Z" fill="#EC6C5A"/>
<path d="M9.427 47.9554C9.42699 48.5077 9.8747 48.9555 10.427 48.9555C10.9793 48.9555 11.427 48.5078 11.427 47.9555L9.427 47.9554ZM51.4665 13.0391C52.0188 13.0391 52.4665 12.5913 52.4665 12.0391C52.4665 11.4868 52.0188 11.0391 51.4665 11.0391V13.0391ZM11.427 47.9555C11.427 45.44 10.5541 36.7747 15.077 28.6774C19.5334 20.6991 29.4003 13.0391 51.4665 13.0391V11.0391C28.8852 11.0391 18.2323 18.9272 13.3309 27.7021C8.49596 36.3581 9.42704 45.651 9.427 47.9554L11.427 47.9555Z" fill="#5E68DF"/>
<path d="M19.2528 47.9558C19.2528 48.508 19.7005 48.9558 20.2528 48.9558C20.8051 48.9558 21.2528 48.5081 21.2528 47.9558L19.2528 47.9558ZM51.4667 24.7905C52.019 24.7905 52.4667 24.3428 52.4667 23.7905C52.4667 23.2382 52.019 22.7905 51.4667 22.7905V24.7905ZM21.2528 47.9558C21.2528 46.2214 20.6014 40.5275 23.9711 35.191C27.283 29.9458 34.6919 24.7905 51.4667 24.7905V22.7905C34.2834 22.7905 26.0854 28.0964 22.28 34.1231C18.5322 40.0585 19.2528 46.4472 19.2528 47.9558L21.2528 47.9558Z" fill="#EC6C5A"/>
<path d="M29.4207 47.9557C29.4207 48.5079 29.8684 48.9557 30.4206 48.9557C30.9729 48.9557 31.4207 48.508 31.4207 47.9557L29.4207 47.9557ZM52.0286 37.1001C52.5809 37.1001 53.0286 36.6524 53.0286 36.1001C53.0286 35.5478 52.5809 35.1001 52.0286 35.1001V37.1001ZM31.4207 47.9557C31.4207 47.0351 30.9969 44.5197 33.156 42.0965C35.332 39.6542 40.3695 37.1001 52.0286 37.1001V35.1001C40.1802 35.1001 34.4137 37.6783 31.6627 40.766C28.8946 43.8728 29.4207 47.2853 29.4207 47.9557L31.4207 47.9557Z" fill="#EC6C5A"/>
</svg>
