<svg width="46" height="49" viewBox="0 0 46 49" fill="none" xmlns="http://www.w3.org/2000/svg">
<rect x="1" y="1.63965" width="30" height="30" rx="4" fill="white" stroke="#EC6C5A" stroke-width="2"/>
<rect x="18.875" y="21.5146" width="26.25" height="26.25" rx="3.5" fill="white" stroke="#5E68DF" stroke-width="1.75"/>
<path d="M14.7344 19.2959C14.7344 18.6032 14.8203 18.0511 14.9922 17.6396C15.1641 17.2282 15.5026 16.7777 16.0078 16.2881C16.5182 15.7933 16.8411 15.4417 16.9766 15.2334C17.1849 14.9157 17.2891 14.5719 17.2891 14.2021C17.2891 13.7126 17.1667 13.3402 16.9219 13.085C16.6823 12.8245 16.3281 12.6943 15.8594 12.6943C15.4115 12.6943 15.0495 12.8219 14.7734 13.0771C14.5026 13.3271 14.3672 13.6683 14.3672 14.1006H12.4688C12.4792 13.1787 12.7917 12.4495 13.4062 11.9131C14.026 11.3766 14.8438 11.1084 15.8594 11.1084C16.9062 11.1084 17.7214 11.374 18.3047 11.9053C18.8932 12.4365 19.1875 13.1787 19.1875 14.1318C19.1875 14.9808 18.7917 15.8167 18 16.6396L17.0391 17.585C16.6953 17.9756 16.5182 18.5459 16.5078 19.2959H14.7344ZM14.6016 21.7256C14.6016 21.4183 14.6979 21.1709 14.8906 20.9834C15.0833 20.7907 15.3438 20.6943 15.6719 20.6943C16.0052 20.6943 16.2682 20.7933 16.4609 20.9912C16.6536 21.1839 16.75 21.4287 16.75 21.7256C16.75 22.012 16.6562 22.2516 16.4688 22.4443C16.2812 22.637 16.0156 22.7334 15.6719 22.7334C15.3281 22.7334 15.0625 22.637 14.875 22.4443C14.6927 22.2516 14.6016 22.012 14.6016 21.7256Z" fill="#5E68DF"/>
<path d="M30.1801 40.0999C30.1801 40.4032 30.4228 40.7066 30.7868 40.7066H33.2134C33.5774 40.7066 33.8201 40.4032 33.8201 40.0999V39.4932H30.1801V40.0999ZM32.0001 28.5732C29.6341 28.5732 27.7534 30.4539 27.7534 32.8199C27.7534 34.2759 28.4814 35.5499 29.5734 36.2779V37.6732C29.5734 37.9766 29.8161 38.2799 30.1801 38.2799H33.8201C34.1841 38.2799 34.4268 37.9766 34.4268 37.6732V36.2779C35.5188 35.4892 36.2468 34.2152 36.2468 32.8199C36.2468 30.4539 34.3661 28.5732 32.0001 28.5732Z" fill="#EC6C5A"/>
</svg>
