<svg width="69" height="26" viewBox="0 0 69 26" fill="none" xmlns="http://www.w3.org/2000/svg">
<path d="M7.63105 19.0594L6.58906 20.1384L7.63105 19.0594ZM14.686 18.9362L13.5959 17.9059L13.5902 17.9119L13.5846 17.9179L14.686 18.9362ZM15.7172 3.6184L15.691 2.11862L14.1912 2.1448L14.2174 3.64458L15.7172 3.6184ZM19.4986 3.55239L20.9984 3.52621L20.9722 2.02644L19.4724 2.05262L19.4986 3.55239ZM18.7357 19.6842L20.0613 20.3863L20.0656 20.378L18.7357 19.6842ZM15.7952 22.643L15.0782 21.3254L15.0703 21.3298L15.7952 22.643ZM6.62371 22.8031L5.95316 24.1449L5.96107 24.1488L6.62371 22.8031ZM3.58167 19.9487L2.27677 20.6885L2.28144 20.6966L3.58167 19.9487ZM2.25627 3.85336L2.23009 2.35359L0.73032 2.37976L0.756498 3.87954L2.25627 3.85336ZM6.03773 3.78735L7.5375 3.76117L7.51133 2.2614L6.01155 2.28758L6.03773 3.78735ZM4.7409 15.4401C4.77328 17.2948 5.3359 18.9282 6.58906 20.1384L8.67303 17.9804C8.12688 17.4529 7.76259 16.656 7.74045 15.3878L4.7409 15.4401ZM6.58906 20.1384C7.82803 21.3348 9.43258 21.8549 11.2361 21.8234L11.1837 18.8239C10.0147 18.8443 9.23338 18.5215 8.67303 17.9804L6.58906 20.1384ZM11.2361 21.8234C13.0374 21.792 14.6205 21.2166 15.7874 19.9545L13.5846 17.9179C13.0892 18.4538 12.3549 18.8034 11.1837 18.8239L11.2361 21.8234ZM15.7762 19.9666C16.9615 18.7123 17.4521 17.0646 17.4199 15.2188L14.4203 15.2712C14.4426 16.5483 14.1104 17.3615 13.5959 17.9059L15.7762 19.9666ZM17.4199 15.2188L17.2169 3.59222L14.2174 3.64458L14.4203 15.2712L17.4199 15.2188ZM15.7433 5.11817L19.5248 5.05216L19.4724 2.05262L15.691 2.11862L15.7433 5.11817ZM17.9988 3.57857L18.2018 15.2052L21.2013 15.1528L20.9984 3.52621L17.9988 3.57857ZM18.2018 15.2052C18.2281 16.7108 17.945 17.957 17.4058 18.9903L20.0656 20.378C20.874 18.8284 21.2348 17.0712 21.2013 15.1528L18.2018 15.2052ZM17.4102 18.9821C16.8765 19.9896 16.1102 20.7639 15.0782 21.3255L16.5121 23.9606C18.0527 23.1223 19.2468 21.924 20.0613 20.3863L17.4102 18.9821ZM15.0703 21.3298C14.0574 21.8889 12.799 22.2113 11.2433 22.2385L11.2957 25.238C13.2393 25.2041 14.998 24.7964 16.52 23.9563L15.0703 21.3298ZM11.2433 22.2385C9.66745 22.266 8.36322 21.9877 7.28635 21.4574L5.96107 24.1488C7.5417 24.9271 9.33466 25.2722 11.2957 25.238L11.2433 22.2385ZM7.29424 21.4613C6.24328 20.9361 5.45039 20.189 4.88189 19.2007L2.28144 20.6966C3.14913 22.205 4.38427 23.3609 5.95318 24.1449L7.29424 21.4613ZM4.88654 19.2089C4.31169 18.195 3.98527 16.9594 3.95898 15.4538L0.959441 15.5061C0.992926 17.4245 1.41481 19.1681 2.2768 20.6885L4.88654 19.2089ZM3.95898 15.4538L3.75604 3.82718L0.756498 3.87954L0.959441 15.5061L3.95898 15.4538ZM2.28245 5.35313L6.06391 5.28712L6.01155 2.28758L2.23009 2.35359L2.28245 5.35313ZM4.53796 3.81353L4.7409 15.4401L7.74045 15.3878L7.5375 3.76117L4.53796 3.81353Z" fill="#EC6C5A"/>
<path d="M37.2073 5.95962C36.0499 5.67938 34.9089 5.54213 33.7842 5.54787C32.6774 5.54785 31.7389 5.67163 30.9686 5.91921C30.1087 6.19558 29.4798 6.57559 29.0819 7.05924C28.684 7.5429 28.5771 8.07135 28.7614 8.64458C28.9283 9.16408 29.2396 9.54826 29.6951 9.79714C30.1627 10.0223 30.6937 10.1679 31.2881 10.2338C31.8946 10.276 32.6978 10.2847 33.6978 10.2598C35.0905 10.2272 36.2504 10.2694 37.1775 10.3865C38.1224 10.4978 38.9995 10.8286 39.8088 11.3788C40.6181 11.929 41.2156 12.8042 41.6014 14.0044C41.9699 15.1509 41.9788 16.2548 41.6282 17.3162C41.2897 18.3539 40.6461 19.2723 39.6973 20.0713C38.7665 20.8646 37.6024 21.4858 36.2051 21.9349C34.7362 22.407 33.2168 22.5989 31.6468 22.5106C30.071 22.4044 28.6169 22.0615 27.2842 21.4818L27.8044 17.9349C29.036 18.5076 30.3235 18.8547 31.667 18.9762C33.0105 19.0978 34.1928 18.9945 35.2139 18.6663C36.217 18.3439 36.9448 17.9025 37.3971 17.342C37.8437 16.7637 37.9604 16.1431 37.7474 15.4803C37.5747 14.9429 37.2545 14.5616 36.7868 14.3364C36.3313 14.0875 35.8003 13.942 35.1938 13.8997C34.5873 13.8575 33.7751 13.8517 32.7572 13.8824C31.3645 13.915 30.2075 13.8817 29.2862 13.7826C28.3649 13.6834 27.5025 13.3676 26.699 12.8353C25.8897 12.2851 25.295 11.4189 24.915 10.2366C24.5638 9.14385 24.5453 8.10231 24.8594 7.11195C25.1857 6.09793 25.8054 5.19715 26.7183 4.40961C27.6492 3.61631 28.8133 2.99512 30.2105 2.54603C31.4287 2.15451 32.6864 1.94789 33.9839 1.92615C35.2992 1.89867 36.5206 2.03976 37.6478 2.34942L37.2073 5.95962Z" fill="white"/>
<path d="M37.2073 5.95962L36.8543 7.41749L38.4921 7.81408L38.6962 6.14131L37.2073 5.95962ZM33.7842 5.54787V7.04789L33.7919 7.04785L33.7842 5.54787ZM29.0819 7.05924L27.9236 6.1062L29.0819 7.05924ZM29.6951 9.79714L28.9759 11.1135L29.0096 11.1319L29.0443 11.1486L29.6951 9.79714ZM31.2881 10.2338L31.1228 11.7247L31.1533 11.7281L31.1839 11.7302L31.2881 10.2338ZM33.6978 10.2598L33.6627 8.76017L33.6604 8.76022L33.6978 10.2598ZM37.1775 10.3865L36.9895 11.8747L37.0019 11.8762L37.1775 10.3865ZM41.6282 17.3162L40.2039 16.8457L40.2021 16.8511L41.6282 17.3162ZM39.6973 20.0713L38.7311 18.924L38.7244 18.9297L39.6973 20.0713ZM31.6468 22.5106L31.5459 24.0072L31.5542 24.0078L31.5625 24.0083L31.6468 22.5106ZM27.2842 21.4818L25.8001 21.2641L25.6336 22.3996L26.6859 22.8573L27.2842 21.4818ZM27.8044 17.9349L28.4368 16.5748L26.6123 15.7264L26.3203 17.7173L27.8044 17.9349ZM31.667 18.9762L31.5318 20.4701L31.667 18.9762ZM37.3971 17.342L38.5643 18.2841L38.5745 18.2716L38.5844 18.2588L37.3971 17.342ZM36.7868 14.3364L36.0676 15.6527L36.1014 15.6712L36.136 15.6879L36.7868 14.3364ZM32.7572 13.8824L32.7924 15.382L32.8025 15.3817L32.7572 13.8824ZM29.2862 13.7826L29.1256 15.2739L29.2862 13.7826ZM26.699 12.8353L25.8556 14.0758L25.8631 14.0809L25.8706 14.0858L26.699 12.8353ZM24.8594 7.11195L23.4315 6.65248L23.4296 6.65842L24.8594 7.11195ZM26.7183 4.40961L25.7454 3.26792L25.7386 3.2738L26.7183 4.40961ZM33.9839 1.92615L34.009 3.42596L34.0152 3.42583L33.9839 1.92615ZM37.6478 2.34942L39.1368 2.53112L39.2936 1.24596L38.0452 0.903006L37.6478 2.34942ZM37.5603 4.50175C36.2918 4.1946 35.0297 4.0415 33.7766 4.04789L33.7919 7.04785C34.7882 7.04277 35.8081 7.16417 36.8543 7.41749L37.5603 4.50175ZM33.7842 4.04787C32.5748 4.04785 31.4715 4.18199 30.5096 4.49116L31.4276 7.34726C32.0062 7.16128 32.7801 7.04786 33.7842 7.04787V4.04787ZM30.5096 4.49116C29.4908 4.81861 28.5682 5.32271 27.9236 6.1062L30.2402 8.01229C30.3915 7.82846 30.7267 7.57254 31.4276 7.34726L30.5096 4.49116ZM27.9236 6.1062C27.2171 6.96488 26.9855 8.02131 27.3333 9.10357L30.1894 8.18559C30.1769 8.14682 30.1746 8.12509 30.1741 8.11794C30.1736 8.11163 30.1742 8.11217 30.1736 8.1156C30.1709 8.1285 30.172 8.09519 30.2402 8.01229L27.9236 6.1062ZM27.3333 9.10357C27.6113 9.96843 28.1643 10.6701 28.9759 11.1135L30.4143 8.4808C30.3148 8.42646 30.2454 8.35972 30.1894 8.18559L27.3333 9.10357ZM29.0443 11.1486C29.686 11.4576 30.3851 11.6429 31.1228 11.7247L31.4534 8.74294C31.0024 8.69293 30.6395 8.58706 30.3459 8.44567L29.0443 11.1486ZM31.1839 11.7302C31.8577 11.7771 32.7139 11.7848 33.7352 11.7593L33.6604 8.76022C32.6818 8.78463 31.9314 8.77498 31.3923 8.73743L31.1839 11.7302ZM33.7329 11.7593C35.0835 11.7277 36.1628 11.7702 36.9895 11.8747L37.3654 8.89831C36.338 8.76854 35.0976 8.72658 33.6627 8.76017L33.7329 11.7593ZM37.0019 11.8762C37.7005 11.9585 38.3496 12.2006 38.9655 12.6193L40.6522 10.1383C39.6494 9.45661 38.5443 9.03716 37.353 8.89679L37.0019 11.8762ZM38.9655 12.6193C39.4272 12.9332 39.8601 13.4889 40.1733 14.4634L43.0294 13.5455C42.5711 12.1195 41.809 10.9248 40.6522 10.1383L38.9655 12.6193ZM40.1733 14.4634C40.4526 15.3322 40.447 16.1097 40.2039 16.8457L43.0525 17.7867C43.5106 16.3999 43.4872 14.9696 43.0294 13.5455L40.1733 14.4634ZM40.2021 16.8511C39.9617 17.5881 39.4959 18.2799 38.7311 18.924L40.6636 21.2187C41.7963 20.2647 42.6177 19.1197 43.0543 17.7813L40.2021 16.8511ZM38.7244 18.9297C37.9712 19.5715 36.9918 20.1065 35.7461 20.5069L36.6641 23.363C38.213 22.8651 39.5617 22.1577 40.6703 21.213L38.7244 18.9297ZM35.7461 20.5069C34.4559 20.9216 33.1208 21.0912 31.731 21.013L31.5625 24.0083C33.3128 24.1067 35.0165 23.8925 36.6641 23.363L35.7461 20.5069ZM31.7477 21.014C30.3286 20.9184 29.0444 20.6117 27.8825 20.1063L26.6859 22.8573C28.1893 23.5112 29.8135 23.8904 31.5459 24.0072L31.7477 21.014ZM28.7684 21.6995L29.2885 18.1526L26.3203 17.7173L25.8001 21.2641L28.7684 21.6995ZM27.172 19.2951C28.5593 19.9401 30.0149 20.3329 31.5318 20.4701L31.8022 17.4823C30.6321 17.3764 29.5127 17.075 28.4368 16.5748L27.172 19.2951ZM31.5318 20.4701C33.0259 20.6053 34.4176 20.4978 35.6729 20.0944L34.7549 17.2383C33.968 17.4912 32.9951 17.5903 31.8022 17.4823L31.5318 20.4701ZM35.6729 20.0944C36.8325 19.7217 37.8617 19.1547 38.5643 18.2841L36.2299 16.4C36.0278 16.6503 35.6016 16.9661 34.7549 17.2383L35.6729 20.0944ZM38.5844 18.2588C39.315 17.3125 39.5483 16.1814 39.1755 15.0213L36.3194 15.9393C36.3726 16.1048 36.3723 16.2149 36.2098 16.4253L38.5844 18.2588ZM39.1755 15.0213C38.8891 14.1305 38.3103 13.4052 37.4376 12.9849L36.136 15.6879C36.1987 15.718 36.2602 15.7553 36.3194 15.9393L39.1755 15.0213ZM37.506 13.0201C36.8311 12.6513 36.0835 12.4581 35.298 12.4034L35.0896 15.3961C35.5171 15.4259 35.8315 15.5237 36.0676 15.6527L37.506 13.0201ZM35.298 12.4034C34.6198 12.3561 33.7514 12.3518 32.712 12.3831L32.8025 15.3817C33.7989 15.3517 34.5548 15.3589 35.0896 15.3961L35.298 12.4034ZM32.7221 12.3828C31.3657 12.4146 30.2795 12.3808 29.4468 12.2912L29.1256 15.2739C30.1355 15.3827 31.3633 15.4155 32.7924 15.382L32.7221 12.3828ZM29.4468 12.2912C28.7739 12.2187 28.1391 11.9901 27.5274 11.5848L25.8706 14.0858C26.8659 14.7452 27.956 15.148 29.1256 15.2739L29.4468 12.2912ZM27.5423 11.5949C27.0767 11.2783 26.6487 10.7284 26.3431 9.77759L23.487 10.6956C23.9414 12.1093 24.7027 13.292 25.8556 14.0758L27.5423 11.5949ZM26.3431 9.77759C26.0768 8.94893 26.0791 8.22787 26.2892 7.56549L23.4296 6.65842C23.0115 7.97675 23.0509 9.33877 23.487 10.6956L26.3431 9.77759ZM26.2873 7.57143C26.5185 6.85303 26.9656 6.17726 27.6981 5.54541L25.7386 3.2738C24.6451 4.21704 23.853 5.34283 23.4315 6.65248L26.2873 7.57143ZM27.6913 5.55127C28.4445 4.90939 29.4239 4.37443 30.6695 3.97408L29.7515 1.11798C28.2026 1.61581 26.8539 2.32324 25.7454 3.26794L27.6913 5.55127ZM30.6695 3.97408C31.7453 3.6283 32.8568 3.44524 34.009 3.42594L33.9588 0.426365C32.5161 0.450529 31.112 0.680718 29.7515 1.11798L30.6695 3.97408ZM34.0152 3.42583C35.2037 3.40099 36.279 3.52898 37.2505 3.79584L38.0452 0.903006C36.7621 0.550537 35.3948 0.396345 33.9525 0.426483L34.0152 3.42583ZM36.1589 2.16773L35.7183 5.77793L38.6962 6.14131L39.1368 2.53112L36.1589 2.16773Z" fill="#EC6C5A"/>
<path d="M61.6942 22.8706L59.8717 18.7246L50.2205 18.8931L48.5438 23.1002L44.6212 23.1686L52.9399 3.26349L56.8625 3.19502L65.7579 22.7997L61.6942 22.8706ZM51.5184 15.6241L58.4605 15.503L54.8728 7.26642L51.5184 15.6241Z" fill="white"/>
<path d="M61.6942 22.8706L60.321 23.4742L60.7226 24.3878L61.7204 24.3704L61.6942 22.8706ZM59.8717 18.7246L61.2449 18.121L60.8433 17.2074L59.8455 17.2248L59.8717 18.7246ZM50.2205 18.8931L50.1943 17.3933L49.1965 17.4107L48.8271 18.3377L50.2205 18.8931ZM48.5438 23.1002L48.5699 24.5999L49.5677 24.5825L49.9372 23.6555L48.5438 23.1002ZM44.6212 23.1686L43.2372 22.5902L42.352 24.7085L44.6474 24.6684L44.6212 23.1686ZM52.9399 3.26349L52.9137 1.76372L51.9338 1.78082L51.5559 2.68509L52.9399 3.26349ZM56.8625 3.19502L58.2284 2.57523L57.8213 1.67805L56.8363 1.69525L56.8625 3.19502ZM65.7579 22.7997L65.7841 24.2995L68.0675 24.2596L67.1239 22.1799L65.7579 22.7997ZM51.5184 15.6241L50.1263 15.0654L49.2843 17.1634L51.5446 17.1239L51.5184 15.6241ZM58.4605 15.503L58.4867 17.0027L60.7328 16.9635L59.8357 14.904L58.4605 15.503ZM54.8728 7.26642L56.2481 6.66741L54.8163 3.3803L53.4808 6.7077L54.8728 7.26642ZM63.0674 22.267L61.2449 18.121L58.4985 19.3282L60.321 23.4742L63.0674 22.267ZM59.8455 17.2248L50.1943 17.3933L50.2467 20.3928L59.8979 20.2244L59.8455 17.2248ZM48.8271 18.3377L47.1504 22.5448L49.9372 23.6555L51.6139 19.4484L48.8271 18.3377ZM48.5176 21.6004L44.595 21.6689L44.6474 24.6684L48.5699 24.5999L48.5176 21.6004ZM46.0052 23.747L54.3239 3.84188L51.5559 2.68509L43.2372 22.5902L46.0052 23.747ZM52.9661 4.76326L56.8886 4.69479L56.8363 1.69525L52.9137 1.76372L52.9661 4.76326ZM55.4965 3.81481L64.3919 23.4195L67.1239 22.1799L58.2284 2.57523L55.4965 3.81481ZM65.7317 21.2999L61.668 21.3708L61.7204 24.3704L65.7841 24.2995L65.7317 21.2999ZM51.5446 17.1239L58.4867 17.0027L58.4343 14.0032L51.4922 14.1244L51.5446 17.1239ZM59.8357 14.904L56.2481 6.66741L53.4976 7.86543L57.0853 16.102L59.8357 14.904ZM53.4808 6.7077L50.1263 15.0654L52.9105 16.1829L56.2649 7.82514L53.4808 6.7077Z" fill="#5E68DF"/>
</svg>
