<svg width="42" height="43" viewBox="0 0 42 43" fill="none" xmlns="http://www.w3.org/2000/svg">
<path d="M3.03551 34.4033C4.096 36.5737 6.43281 38.4916 9.68352 39.8594C12.9342 41.2273 16.9172 41.9687 21.0146 41.9687C25.112 41.9687 29.095 41.2273 32.3457 39.8594C35.5964 38.4916 37.9332 36.5737 38.9937 34.4033" stroke="#EC6C5A" stroke-width="2" stroke-linecap="round"/>
<path d="M26.7841 40.1744C26.732 39.2893 27.1335 38.255 27.9263 37.2318C28.7191 36.2087 29.859 35.2538 31.169 34.5154C32.479 33.777 33.8861 33.2963 35.1719 33.1478C36.4578 32.9993 38.2976 33.6602 39.0278 34.1631" stroke="#EC6C5A" stroke-width="2" stroke-linecap="round"/>
<path d="M15.8465 40.2665C15.8985 39.3815 15.497 38.3472 14.7042 37.324C13.9114 36.3008 12.7716 35.346 11.4615 34.6076C10.1515 33.8692 8.7444 33.3884 7.45856 33.2399C6.17272 33.0915 3.73224 33.6603 3.00203 34.1631" stroke="#EC6C5A" stroke-width="2" stroke-linecap="round"/>
<circle cx="20.7221" cy="10.2997" r="9.16005" stroke="#EC6C5A" stroke-width="2" stroke-linecap="round"/>
<path d="M27.9852 23.3748C27.9331 24.2599 28.3347 25.2942 29.1275 26.3174C29.9203 27.3405 31.0601 28.2954 32.3702 29.0338C33.6802 29.7722 35.0873 30.2529 36.3731 30.4014C37.6589 30.5499 38.7517 30.3578 39.4819 29.855" stroke="#5E68DF" stroke-width="2" stroke-linecap="round"/>
<path d="M14.0148 23.3748C14.0669 24.2599 13.6653 25.2942 12.8725 26.3174C12.0797 27.3405 10.9399 28.2954 9.62984 29.0338C8.31979 29.7722 6.91274 30.2529 5.6269 30.4014C4.34106 30.5499 3.24829 30.3578 2.51809 29.855" stroke="#5E68DF" stroke-width="2" stroke-linecap="round"/>
</svg>
