<svg width="91" height="66" fill="none" xmlns="http://www.w3.org/2000/svg"><path d="M50.297 58.969V20.812A20.836 20.836 0 0171.109 0a3.469 3.469 0 010 6.938 13.891 13.891 0 00-13.875 13.875v3.468H83.25a6.945 6.945 0 016.938 6.938v27.75a6.946 6.946 0 01-6.938 6.937H57.234a6.946 6.946 0 01-6.937-6.937zm-43.36 6.937h26.016a6.945 6.945 0 006.938-6.937v-27.75a6.946 6.946 0 00-6.938-6.938H6.937v-3.468A13.89 13.89 0 0120.813 6.938a3.469 3.469 0 000-6.938A20.836 20.836 0 000 20.813v38.156a6.945 6.945 0 006.938 6.937z" fill="#FF6333"/></svg>