<svg width="152" height="24" fill="none" xmlns="http://www.w3.org/2000/svg"><g clip-path="url(#clip0_538_710)"><path d="M23.144 8.541l-7.081-1.029L12.9 1.1a1.04 1.04 0 00-1.794 0L7.937 7.512.856 8.541A1 1 0 00.3 10.246l5.125 4.994-1.209 7.053a1 1 0 001.451 1.054L12 20.018l6.333 3.329a1 1 0 001.451-1.054l-1.209-7.053 5.125-4.994a1 1 0 00-.554-1.705h-.002z" fill="#FF6333"/></g><g clip-path="url(#clip1_538_710)"><path d="M55.144 8.541l-7.081-1.029L44.9 1.1a1.04 1.04 0 00-1.794 0l-3.169 6.412-7.081 1.029a1 1 0 00-.556 1.705l5.125 4.994-1.209 7.053a1 1 0 001.451 1.054L44 20.018l6.333 3.329a1 1 0 001.451-1.054l-1.209-7.053 5.125-4.994a1 1 0 00-.554-1.705h-.002z" fill="#FF6333"/></g><g clip-path="url(#clip2_538_710)"><path d="M87.144 8.541l-7.081-1.029L76.9 1.1a1.04 1.04 0 00-1.794 0l-3.169 6.412-7.081 1.029a1 1 0 00-.556 1.705l5.125 4.994-1.209 7.053a1 1 0 001.451 1.054L76 20.018l6.333 3.329a1 1 0 001.451-1.054l-1.209-7.053 5.125-4.994a1 1 0 00-.554-1.705h-.002z" fill="#FF6333"/></g><g clip-path="url(#clip3_538_710)"><path d="M119.144 8.541l-7.081-1.029L108.9 1.1a1.043 1.043 0 00-1.794 0l-3.169 6.412-7.081 1.029a1 1 0 00-.556 1.705l5.125 4.994-1.209 7.053a1.006 1.006 0 00.914 1.166 1 1 0 00.537-.112L108 20.018l6.333 3.329a1 1 0 001.451-1.054l-1.209-7.053 5.125-4.994a.998.998 0 00-.054-1.48.995.995 0 00-.5-.225h-.002z" fill="#FF6333"/></g><g clip-path="url(#clip4_538_710)"><path d="M151.144 8.541l-7.081-1.029L140.9 1.1a1.043 1.043 0 00-1.794 0l-3.169 6.412-7.081 1.029a1 1 0 00-.556 1.705l5.125 4.994-1.209 7.053a1.006 1.006 0 00.914 1.166 1 1 0 00.537-.112L140 20.018l6.333 3.329a1 1 0 001.451-1.054l-1.209-7.053 5.125-4.994a.998.998 0 00-.054-1.48.995.995 0 00-.5-.225h-.002z" fill="#FF6333"/></g><defs><clipPath id="clip0_538_710"><path fill="#fff" d="M0 0h24v24H0z"/></clipPath><clipPath id="clip1_538_710"><path fill="#fff" transform="translate(32)" d="M0 0h24v24H0z"/></clipPath><clipPath id="clip2_538_710"><path fill="#fff" transform="translate(64)" d="M0 0h24v24H0z"/></clipPath><clipPath id="clip3_538_710"><path fill="#fff" transform="translate(96)" d="M0 0h24v24H0z"/></clipPath><clipPath id="clip4_538_710"><path fill="#fff" transform="translate(128)" d="M0 0h24v24H0z"/></clipPath></defs></svg>