<svg width="86" height="86" viewBox="0 0 86 86" fill="none" xmlns="http://www.w3.org/2000/svg">
<path d="M86 43C86 66.7482 66.7483 86 43 86C29.9505 86 1.82857e-05 66.7482 1.82857e-05 43C1.82857e-05 19.2518 13.2518 0 37 0C60.7483 0 86 12 86 43Z" fill="url(#paint0_linear_26_52)"/>
<path d="M27.25 23.75H58.75V62.25H27.25V23.75Z" stroke="white" stroke-width="2" stroke-miterlimit="10" stroke-linecap="square"/>
<path d="M52.625 32.5H43.875" stroke="white" stroke-width="2" stroke-miterlimit="10" stroke-linecap="square"/>
<path d="M52.625 43H43.875" stroke="white" stroke-width="2" stroke-miterlimit="10" stroke-linecap="square"/>
<path d="M52.625 53.5H43.875" stroke="white" stroke-width="2" stroke-miterlimit="10" stroke-linecap="square"/>
<path d="M33.375 32.5L35.125 34.25L39.5 29.875" stroke="white" stroke-width="2" stroke-miterlimit="10" stroke-linecap="square"/>
<path d="M33.375 43L35.125 44.75L39.5 40.375" stroke="white" stroke-width="2" stroke-miterlimit="10" stroke-linecap="square"/>
<path d="M36 56.125C37.4497 56.125 38.625 54.9497 38.625 53.5C38.625 52.0503 37.4497 50.875 36 50.875C34.5503 50.875 33.375 52.0503 33.375 53.5C33.375 54.9497 34.5503 56.125 36 56.125Z" stroke="white" stroke-width="2" stroke-miterlimit="10" stroke-linecap="square"/>
<defs>
<linearGradient id="paint0_linear_26_52" x1="84.882" y1="2.0798" x2="-11.6692" y2="30.5375" gradientUnits="userSpaceOnUse">
<stop stop-color="#E52D27"/>
<stop offset="1" stop-color="#B31217"/>
</linearGradient>
</defs>
</svg>
