<svg width="86" height="86" viewBox="0 0 86 86" fill="none" xmlns="http://www.w3.org/2000/svg">
<path d="M86 43C86 66.7482 66.7483 86 43 86C29.9505 86 1.82857e-05 66.7482 1.82857e-05 43C1.82857e-05 19.2518 13.2518 0 37 0C60.7483 0 86 12 86 43Z" fill="url(#paint0_linear_26_84)"/>
<path d="M50.875 56.7046L43 58.375L35.125 56.625V43.5L43 45.25L50.875 43.5V56.7046Z" stroke="white" stroke-width="2" stroke-miterlimit="10" stroke-linecap="square"/>
<path d="M43 33C41.3755 33 39.8176 32.3547 38.669 31.206C37.5203 30.0574 36.875 28.4995 36.875 26.875C36.875 25.2505 37.5203 23.6926 38.669 22.544C39.8176 21.3953 41.3755 20.75 43 20.75V20.75C44.6245 20.75 46.1824 21.3953 47.331 22.544C48.4797 23.6926 49.125 25.2505 49.125 26.875V26.875C49.125 28.4995 48.4797 30.0574 47.331 31.206C46.1824 32.3547 44.6245 33 43 33V33Z" stroke="white" stroke-width="2" stroke-miterlimit="10" stroke-linecap="square"/>
<path d="M38.625 49.625L27.2027 51.9096C27.0438 51.9413 26.8793 51.9282 26.7274 51.8718C26.5755 51.8155 26.4422 51.7181 26.3424 51.5904C26.2426 51.4628 26.1802 51.3099 26.1622 51.1489C26.1441 50.9879 26.1712 50.8251 26.2402 50.6785L32.0275 38.3795C32.1689 38.0792 32.3928 37.8253 32.6731 37.6474C32.9533 37.4696 33.2784 37.3751 33.6103 37.375H52.3896C52.7215 37.3751 53.0466 37.4696 53.3269 37.6474C53.6072 37.8253 53.8311 38.0792 53.9725 38.3795L59.772 50.7021C59.8407 50.848 59.8678 51.01 59.8503 51.1704C59.8327 51.3307 59.7712 51.483 59.6726 51.6106C59.5739 51.7381 59.4419 51.8359 59.2911 51.8932C59.1403 51.9504 58.9767 51.9649 58.8182 51.935L46.5 49.625" stroke="white" stroke-width="2" stroke-miterlimit="10" stroke-linecap="square"/>
<defs>
<linearGradient id="paint0_linear_26_84" x1="84.882" y1="2.0798" x2="-11.6692" y2="30.5375" gradientUnits="userSpaceOnUse">
<stop stop-color="#E52D27"/>
<stop offset="1" stop-color="#B31217"/>
</linearGradient>
</defs>
</svg>
