<svg width="397" height="208" viewBox="0 0 397 208" fill="none" xmlns="http://www.w3.org/2000/svg">
<path d="M47.1599 88.1301V91.1728H23.5913V57.8525H46.4367V60.8953H27.1079V72.7419H44.3417V75.7348H27.1079V88.1052H47.1599V88.1301Z" fill="white"/>
<path d="M93.3494 68.6516C95.1451 70.4723 96.0429 73.1409 96.0429 76.6575V91.1728H92.6511V77.0067C92.6511 74.4129 92.0275 72.4176 90.7805 71.0459C89.5335 69.6742 87.7628 69.0008 85.4682 69.0008C82.8745 69.0008 80.8293 69.7989 79.3329 71.3951C77.8365 72.9913 77.0883 75.211 77.0883 78.0292V91.1728H73.7213V77.0067C73.7213 74.4129 73.0978 72.4176 71.8508 71.0459C70.6038 69.6742 68.8081 69.0008 66.4886 69.0008C63.9198 69.0008 61.8747 69.7989 60.3783 71.3951C58.8818 72.9913 58.1087 75.211 58.1087 78.0292V91.1728H54.7168V66.1327H57.959V70.6967C58.8569 69.1754 60.079 68.0032 61.6752 67.1802C63.2713 66.3571 65.092 65.9331 67.162 65.9331C69.257 65.9331 71.0777 66.3821 72.624 67.255C74.1703 68.1528 75.3175 69.4497 76.0657 71.1956C76.9885 69.5495 78.3104 68.2526 80.0313 67.3049C81.7521 66.3571 83.7474 65.9082 85.9671 65.9082C89.0846 65.9581 91.5537 66.8559 93.3494 68.6516Z" fill="white"/>
<path d="M124.5 67.554C126.395 68.6264 127.891 70.1228 128.964 72.0432C130.036 73.9886 130.585 76.1833 130.585 78.6524C130.585 81.1215 130.036 83.3412 128.964 85.2616C127.891 87.2069 126.395 88.7034 124.5 89.7758C122.604 90.8482 120.459 91.3969 118.115 91.3969C116.02 91.3969 114.149 90.948 112.478 90.0751C110.807 89.1772 109.461 87.9053 108.463 86.2093V91.1725H105.221V55.8569H108.613V70.896C109.66 69.2748 111.007 68.0528 112.628 67.2048C114.274 66.3568 116.095 65.9328 118.115 65.9328C120.484 65.9578 122.604 66.4815 124.5 67.554ZM122.654 87.2069C124.076 86.4089 125.198 85.2616 126.021 83.7652C126.819 82.2688 127.243 80.5728 127.243 78.6773C127.243 76.7819 126.844 75.0859 126.021 73.5895C125.223 72.0931 124.101 70.9458 122.654 70.1478C121.232 69.3497 119.636 68.9257 117.89 68.9257C116.12 68.9257 114.523 69.3247 113.102 70.1478C111.68 70.9458 110.583 72.118 109.76 73.5895C108.962 75.0859 108.538 76.7819 108.538 78.6773C108.538 80.5728 108.937 82.2688 109.76 83.7652C110.558 85.2616 111.68 86.4089 113.102 87.2069C114.523 88.005 116.12 88.429 117.89 88.429C119.636 88.429 121.232 88.005 122.654 87.2069Z" fill="white"/>
<path d="M144.303 67.23C145.874 66.382 147.819 65.9331 150.139 65.9331V69.2252L149.341 69.1754C146.697 69.1754 144.652 69.9734 143.155 71.5946C141.659 73.2157 140.911 75.4853 140.911 78.4033V91.1727H137.519V66.1326H140.761V71.0459C141.534 69.3749 142.731 68.078 144.303 67.23Z" fill="white"/>
<path d="M172.46 68.4017C174.206 70.0477 175.079 72.4669 175.079 75.6593V91.1722H171.836V87.2815C171.063 88.5784 169.966 89.601 168.469 90.3242C166.998 91.0475 165.227 91.4216 163.207 91.4216C160.414 91.4216 158.194 90.7482 156.548 89.4264C154.902 88.1045 154.079 86.3338 154.079 84.139C154.079 82.0191 154.852 80.2982 156.398 79.0013C157.945 77.7044 160.389 77.056 163.756 77.056H171.712V75.5097C171.712 73.3399 171.113 71.7187 169.891 70.5964C168.669 69.4741 166.923 68.9005 164.604 68.9005C163.007 68.9005 161.486 69.1499 160.04 69.6986C158.568 70.2223 157.321 70.9456 156.274 71.8684L154.752 69.3245C156.024 68.252 157.546 67.4041 159.316 66.8304C161.087 66.2319 162.958 65.9575 164.928 65.9575C168.195 65.9575 170.714 66.7556 172.46 68.4017ZM168.644 87.4312C170.016 86.5582 171.013 85.3112 171.687 83.6402V79.5749H163.831C159.541 79.5749 157.396 81.0714 157.396 84.0642C157.396 85.5357 157.945 86.6829 159.067 87.506C160.189 88.3539 161.736 88.7779 163.731 88.7779C165.651 88.753 167.272 88.329 168.644 87.4312Z" fill="white"/>
<path d="M188.097 89.8005C186.152 88.7281 184.606 87.2067 183.508 85.2613C182.386 83.316 181.837 81.1212 181.837 78.6771C181.837 76.2329 182.386 74.0382 183.508 72.0928C184.631 70.1475 186.152 68.6511 188.097 67.5786C190.043 66.5062 192.262 65.9575 194.732 65.9575C196.901 65.9575 198.822 66.3815 200.518 67.2295C202.214 68.0774 203.56 69.2995 204.533 70.9206L202.014 72.6415C201.191 71.3945 200.144 70.4717 198.872 69.8482C197.6 69.2247 196.228 68.9254 194.732 68.9254C192.911 68.9254 191.29 69.3245 189.843 70.1475C188.397 70.9456 187.274 72.1178 186.451 73.5893C185.653 75.0857 185.229 76.7816 185.229 78.6771C185.229 80.6224 185.628 82.3184 186.451 83.7899C187.249 85.2613 188.397 86.4086 189.843 87.2067C191.29 88.0048 192.911 88.4288 194.732 88.4288C196.228 88.4288 197.6 88.1295 198.872 87.5309C200.144 86.9323 201.191 86.0096 202.014 84.7625L204.533 86.4834C203.56 88.1045 202.189 89.3266 200.493 90.1746C198.772 91.0226 196.851 91.4466 194.732 91.4466C192.262 91.4216 190.043 90.8729 188.097 89.8005Z" fill="white"/>
<path d="M232.541 79.7002H211.592C211.791 82.294 212.789 84.4139 214.584 86.0101C216.38 87.6063 218.675 88.4044 221.443 88.4044C222.989 88.4044 224.436 88.13 225.733 87.5564C227.03 87.0077 228.152 86.1847 229.1 85.1122L230.995 87.307C229.873 88.6288 228.501 89.6514 226.83 90.3497C225.159 91.048 223.338 91.3972 221.343 91.3972C218.774 91.3972 216.505 90.8485 214.51 89.7511C212.514 88.6538 210.968 87.1324 209.871 85.212C208.748 83.2666 208.2 81.0968 208.2 78.6527C208.2 76.2085 208.723 74.0138 209.796 72.0684C210.868 70.1231 212.315 68.6267 214.185 67.5542C216.031 66.4818 218.126 65.9331 220.445 65.9331C222.765 65.9331 224.835 66.4818 226.681 67.5542C228.526 68.6267 229.973 70.1231 231.02 72.0435C232.068 73.9639 232.591 76.1586 232.591 78.6277L232.541 79.7002ZM214.36 71.1706C212.714 72.7169 211.791 74.7121 211.567 77.1812H229.324C229.1 74.7121 228.177 72.6919 226.531 71.1706C224.885 69.6243 222.865 68.8511 220.42 68.8511C218.026 68.8511 216.006 69.6243 214.36 71.1706Z" fill="white"/>
<path d="M51.1599 88.3005V91.3433H27.5913V58.0229H50.4367V61.0657H31.1079V72.9123H48.3417V75.9052H31.1079V88.2756H51.1599V88.3005Z" fill="#397AC6" stroke="#397AC6" stroke-width="1.32559"/>
<path d="M97.3494 68.8221C99.1451 70.6427 100.043 73.3113 100.043 76.8279V91.3432H96.6511V77.1771C96.6511 74.5833 96.0275 72.588 94.7805 71.2163C93.5335 69.8446 91.7628 69.1712 89.4682 69.1712C86.8745 69.1712 84.8293 69.9693 83.3329 71.5655C81.8365 73.1617 81.0883 75.3814 81.0883 78.1996V91.3432H77.7213V77.1771C77.7213 74.5833 77.0978 72.588 75.8508 71.2163C74.6038 69.8446 72.8081 69.1712 70.4886 69.1712C67.9198 69.1712 65.8747 69.9693 64.3783 71.5655C62.8818 73.1617 62.1087 75.3814 62.1087 78.1996V91.3432H58.7168V66.3031H61.959V70.8672C62.8569 69.3458 64.079 68.1736 65.6752 67.3506C67.2713 66.5275 69.092 66.1036 71.162 66.1036C73.257 66.1036 75.0777 66.5525 76.624 67.4254C78.1703 68.3232 79.3175 69.6201 80.0657 71.366C80.9885 69.7199 82.3104 68.423 84.0313 67.4753C85.7521 66.5275 87.7474 66.0786 89.9671 66.0786C93.0846 66.1285 95.5537 67.0263 97.3494 68.8221Z" fill="#397AC6" stroke="#397AC6" stroke-width="1.32559"/>
<path d="M128.5 67.7244C130.395 68.7968 131.891 70.2932 132.964 72.2136C134.036 74.159 134.585 76.3537 134.585 78.8228C134.585 81.2919 134.036 83.5116 132.964 85.432C131.891 87.3774 130.395 88.8738 128.5 89.9462C126.604 91.0187 124.459 91.5673 122.115 91.5673C120.02 91.5673 118.149 91.1184 116.478 90.2455C114.807 89.3476 113.461 88.0757 112.463 86.3797V91.3429H109.221V56.0273H112.613V71.0664C113.66 69.4453 115.007 68.2232 116.628 67.3752C118.274 66.5272 120.095 66.1032 122.115 66.1032C124.484 66.1282 126.604 66.6519 128.5 67.7244ZM126.654 87.3774C128.076 86.5793 129.198 85.432 130.021 83.9356C130.819 82.4392 131.243 80.7432 131.243 78.8478C131.243 76.9523 130.844 75.2563 130.021 73.7599C129.223 72.2635 128.101 71.1163 126.654 70.3182C125.232 69.5201 123.636 69.0961 121.89 69.0961C120.12 69.0961 118.523 69.4951 117.102 70.3182C115.68 71.1163 114.583 72.2884 113.76 73.7599C112.962 75.2563 112.538 76.9523 112.538 78.8478C112.538 80.7432 112.937 82.4392 113.76 83.9356C114.558 85.432 115.68 86.5793 117.102 87.3774C118.523 88.1754 120.12 88.5994 121.89 88.5994C123.636 88.5994 125.232 88.1754 126.654 87.3774Z" fill="#397AC6" stroke="#397AC6" stroke-width="1.32559"/>
<path d="M148.303 67.4004C149.874 66.5524 151.819 66.1035 154.139 66.1035V69.3956L153.341 69.3458C150.697 69.3458 148.652 70.1439 147.155 71.765C145.659 73.3861 144.911 75.6557 144.911 78.5737V91.3431H141.519V66.303H144.761V71.2163C145.534 69.5453 146.731 68.2484 148.303 67.4004Z" fill="#397AC6" stroke="#397AC6" stroke-width="1.32559"/>
<path d="M176.46 68.5726C178.206 70.2186 179.079 72.6378 179.079 75.8302V91.3431H175.836V87.4524C175.063 88.7493 173.966 89.7719 172.469 90.4951C170.998 91.2184 169.227 91.5925 167.207 91.5925C164.414 91.5925 162.194 90.9191 160.548 89.5973C158.902 88.2754 158.079 86.5047 158.079 84.3099C158.079 82.19 158.852 80.4691 160.398 79.1722C161.945 77.8753 164.389 77.2269 167.756 77.2269H175.712V75.6806C175.712 73.5108 175.113 71.8896 173.891 70.7673C172.669 69.645 170.923 69.0714 168.604 69.0714C167.007 69.0714 165.486 69.3208 164.04 69.8695C162.568 70.3932 161.321 71.1165 160.274 72.0393L158.752 69.4954C160.024 68.4229 161.546 67.575 163.316 67.0013C165.087 66.4028 166.958 66.1284 168.928 66.1284C172.195 66.1284 174.714 66.9265 176.46 68.5726ZM172.644 87.6021C174.016 86.7291 175.013 85.4821 175.687 83.8111V79.7458H167.831C163.541 79.7458 161.396 81.2423 161.396 84.2351C161.396 85.7066 161.945 86.8538 163.067 87.6769C164.189 88.5248 165.736 88.9488 167.731 88.9488C169.651 88.9239 171.272 88.4999 172.644 87.6021Z" fill="#397AC6" stroke="#397AC6" stroke-width="1.32559"/>
<path d="M192.097 89.9714C190.152 88.899 188.606 87.3776 187.508 85.4322C186.386 83.4869 185.837 81.2921 185.837 78.848C185.837 76.4038 186.386 74.2091 187.508 72.2637C188.631 70.3184 190.152 68.822 192.097 67.7495C194.043 66.6771 196.262 66.1284 198.732 66.1284C200.901 66.1284 202.822 66.5524 204.518 67.4004C206.214 68.2483 207.56 69.4704 208.533 71.0915L206.014 72.8124C205.191 71.5654 204.144 70.6426 202.872 70.0191C201.6 69.3956 200.228 69.0963 198.732 69.0963C196.911 69.0963 195.29 69.4954 193.843 70.3184C192.397 71.1165 191.274 72.2887 190.451 73.7602C189.653 75.2566 189.229 76.9525 189.229 78.848C189.229 80.7933 189.628 82.4893 190.451 83.9608C191.249 85.4322 192.397 86.5795 193.843 87.3776C195.29 88.1757 196.911 88.5997 198.732 88.5997C200.228 88.5997 201.6 88.3004 202.872 87.7018C204.144 87.1032 205.191 86.1805 206.014 84.9334L208.533 86.6543C207.56 88.2754 206.189 89.4975 204.493 90.3455C202.772 91.1935 200.851 91.6175 198.732 91.6175C196.262 91.5925 194.043 91.0438 192.097 89.9714Z" fill="#397AC6" stroke="#397AC6" stroke-width="1.32559"/>
<path d="M236.541 79.8706H215.592C215.791 82.4644 216.789 84.5843 218.584 86.1805C220.38 87.7767 222.675 88.5748 225.443 88.5748C226.989 88.5748 228.436 88.3004 229.733 87.7268C231.03 87.1781 232.152 86.3551 233.1 85.2826L234.995 87.4774C233.873 88.7992 232.501 89.8218 230.83 90.5201C229.159 91.2184 227.338 91.5676 225.343 91.5676C222.774 91.5676 220.505 91.0189 218.51 89.9215C216.514 88.8242 214.968 87.3028 213.871 85.3824C212.748 83.4371 212.2 81.2672 212.2 78.8231C212.2 76.3789 212.723 74.1842 213.796 72.2388C214.868 70.2935 216.315 68.7971 218.185 67.7246C220.031 66.6522 222.126 66.1035 224.445 66.1035C226.765 66.1035 228.835 66.6522 230.681 67.7246C232.526 68.7971 233.973 70.2935 235.02 72.2139C236.068 74.1343 236.591 76.3291 236.591 78.7982L236.541 79.8706ZM218.36 71.341C216.714 72.8873 215.791 74.8825 215.567 77.3516H233.324C233.1 74.8825 232.177 72.8623 230.531 71.341C228.885 69.7947 226.865 69.0215 224.42 69.0215C222.026 69.0215 220.006 69.7947 218.36 71.341Z" fill="#397AC6" stroke="#397AC6" stroke-width="1.32559"/>
<path d="M47.5144 136.844C43.6198 136.844 37.919 137.239 32.4252 137.239C29.7347 137.239 27.1383 137.145 24.8429 137.145C27.2324 129.45 29.8288 121.961 29.8288 116.675C29.8288 115.282 29.2267 114.172 27.6275 114.172C25.8213 114.172 24.937 115.677 24.73 117.465C24.222 121.566 22.4347 128.848 19.9323 136.938C18.8411 136.844 18.5401 136.731 17.731 136.731C16.3388 136.731 15.6426 137.54 15.6426 138.537C15.6426 139.835 16.7339 141.34 18.446 141.83C17.7499 144.031 16.9408 146.119 16.2447 148.321C16.2447 147.719 16.3388 147.229 16.3388 146.627C16.3388 134.642 7.75936 127.154 4.86192 119.873C4.56089 119.271 4.56089 119.064 4.56089 118.876V118.782C5.16295 113.984 16.2447 112.686 28.2295 112.686C41.7195 112.686 54.4946 114.887 58.0882 114.887C59.3864 114.887 59.9884 113.984 59.9884 112.987C59.9884 111.595 58.8972 109.995 56.9969 109.582C50.7129 108.283 41.5126 107.286 32.237 107.286C20.2522 107.286 8.26735 108.979 2.86758 113.777C1.77634 114.774 0.779175 116.073 0.779175 118.067C0.779175 119.271 1.08021 120.268 1.47531 121.265C3.67661 126.665 14.5514 135.056 14.5514 144.84C14.5514 145.348 14.5514 145.837 14.4573 146.345C13.4602 154.623 9.17044 168.207 4.27867 176.204V176.298C4.27867 177.295 5.27584 178.198 6.66811 178.198C9.05756 178.198 9.96065 176.204 10.7697 174.699C14.6643 167.116 19.8571 152.027 23.1496 142.432C26.4422 142.733 30.3368 142.827 34.2314 142.827C37.618 142.827 40.9293 142.62 43.8268 142.432C46.1221 142.225 48.0224 139.045 48.0224 137.54C48.0224 137.051 47.9095 136.844 47.5144 136.844Z" fill="#397AC6"/>
<path d="M170.787 139.74C172.179 139.74 173.477 138.931 173.477 136.937C173.477 134.943 172.085 134.247 170.58 134.247C168.774 134.247 166.779 135.244 166.779 136.448C166.779 138.442 168.887 139.74 170.787 139.74Z" fill="#397AC6"/>
<path d="M221.116 139.74C222.508 139.74 223.806 138.931 223.806 136.937C223.806 134.943 222.414 134.247 220.909 134.247C219.103 134.247 217.108 135.244 217.108 136.448C217.127 138.442 219.216 139.74 221.116 139.74Z" fill="#397AC6"/>
<path d="M343.579 154.529C343.184 154.529 342.676 154.736 342.281 155.131C341.472 155.922 334.398 159.628 326.1 164.915C326.59 162.525 327.098 160.117 327.7 157.822C328.904 152.836 335.884 146.439 335.884 142.337C335.884 141.039 334.492 139.534 333.081 139.534C332.177 139.534 331.782 139.835 331.688 139.929C328.095 143.523 325.103 148.32 323.297 155.809C322.789 157.709 318.405 160.493 313.307 160.493C311.5 160.493 310.804 158.988 310.804 157.107C310.804 156.016 311.105 155.113 311.105 153.908C311.105 151.914 309.901 148.226 308.302 148.226C306.345 148.226 305.273 151.632 305.141 155.188C300.72 159.327 290.409 170.597 286.327 170.597C285.235 170.597 284.52 169.788 284.52 167.699C284.52 164.708 285.819 159.515 286.91 156.919C289.412 151.82 292.009 145.931 294.097 140.437C296.994 140.531 299.892 140.644 302.676 140.644C303.579 140.644 304.878 140.738 306.176 140.738C308.565 140.738 310.974 140.437 310.974 138.744C310.974 137.747 310.466 135.846 309.28 135.846C307.888 135.846 303.692 135.752 298.594 135.752C297.691 135.752 296.787 135.846 295.79 135.846C297.484 130.955 298.594 126.966 298.594 125.16C298.594 122.77 298.086 120.362 296.994 120.362C294.492 120.362 292.498 126.759 288.998 135.846C284.52 135.941 280.174 136.11 276.901 136.411C276.656 134.868 275.452 134.247 274.116 134.247C272.31 134.247 270.315 135.244 270.315 136.449C270.315 138.424 272.366 139.703 274.248 139.741C276.769 141.152 279.236 142.582 280.384 142.582C280.685 142.582 281.698 142.45 281.698 142.45C281.698 141.547 280.701 140.851 279.403 139.553C281.698 139.647 284.502 139.854 287.493 140.061C285.743 144.877 284.012 150.07 282.658 155.056C282.582 155.094 282.451 155.094 282.394 155.15C279.196 158.443 272.611 164.445 268.904 164.445C267.098 164.445 266.214 162.939 266.214 160.945C266.214 157.05 271.407 154.548 271.407 150.258C271.407 148.866 270.504 148.057 268.415 148.057C265.555 148.057 263.617 151.444 262.507 155.094C262.489 155.113 262.451 155.131 262.432 155.15C260.344 157.239 247.644 169.035 239.968 169.035C235.076 169.035 233.176 165.235 233.176 159.346C233.176 159.252 233.176 156.749 233.383 155.357C240.777 147.662 266.534 119.309 266.534 106.12C266.534 103.316 265.236 101.529 261.849 101.529C247.889 101.529 230.353 134.341 228.472 155.489C225.179 158.838 218.895 164.463 215.302 164.463C213.496 164.463 212.611 162.958 212.611 160.964C212.611 157.069 217.804 154.567 217.804 150.277C217.804 148.885 216.901 148.076 214.813 148.076C211.859 148.076 209.902 151.651 208.811 155.432C206.572 157.54 203.919 158.574 201.341 158.574C199.648 158.574 198.049 158.066 196.657 157.276C197.748 154.774 198.463 152.384 198.463 150.089C198.463 146.59 197.071 143.504 193.665 143.09C202.452 132.309 210.617 115.509 212.611 112.029C213.279 107.029 211.238 105.348 207.832 105.348C196.732 105.348 183.148 138.311 179.14 154.962C178.877 155 178.614 155.037 178.463 155.188C175.265 158.48 168.679 164.482 164.973 164.482C163.167 164.482 162.283 162.977 162.283 160.983C162.283 157.088 167.475 154.586 167.475 150.296C167.475 148.904 166.572 148.095 164.484 148.095C161.511 148.095 159.536 151.745 158.444 155.564C155.208 158.951 151.37 165.178 147.795 165.178C145.707 165.178 143.393 162.375 141.097 158.781C144.089 156.486 147.193 154.379 149.583 152.798C150.486 152.196 151.784 151.199 151.784 149.901C151.784 148.904 150.881 148.208 149.188 148.208C148.285 148.208 147.099 148.716 146.083 149.299C143.694 150.898 141.191 152.798 138.689 154.793C136.3 150.804 134.399 145.197 129 145.197C127.701 145.197 127.099 146.1 127.099 147.098C127.099 148.603 128.003 149.694 128.605 150.898C127.513 152.403 126.309 153.89 125.011 155.188C125.011 155.188 125.011 155.188 124.992 155.188C122.001 158.085 115.397 163.579 100.816 163.579C94.8137 163.579 92.7253 161.472 92.7253 158.988C92.7253 158.687 92.7253 158.386 92.8194 158.085C94.5127 159.176 96.714 159.779 98.6143 159.779C106.911 159.779 111.088 156.373 111.088 153.288C111.088 150.089 107.89 147.098 101.305 147.098C94.7385 147.098 89.9031 150.86 87.9276 155.188C85.8392 157.276 73.1394 169.073 65.4631 169.073C60.5713 169.073 58.6711 165.272 58.6711 159.383C58.6711 159.289 58.6711 156.787 58.878 155.395C66.2721 147.7 92.0292 119.346 92.0292 106.157C92.0292 103.354 90.731 101.566 87.3444 101.566C72.5562 101.566 53.7793 138.311 53.7793 159.082C53.7793 167.267 56.4698 172.967 62.9608 172.967C70.6183 172.967 81.0603 166.458 87.2503 161.66C88.2287 165.291 91.747 168.189 98.5202 168.189C109.696 168.189 124.992 161.604 128.473 158.104C128.473 158.104 128.473 158.085 128.492 158.085C129.658 157.37 130.693 155.564 131.088 155C131.991 156.298 132.988 157.502 133.986 158.8C132.386 160.192 130.881 161.698 129.583 162.902C128.68 163.692 127.193 165.103 127.193 166.589C127.193 167.398 127.796 167.888 128.793 167.888C132.179 167.888 134.682 164.087 136.883 162.187C140.081 165.592 143.374 168.076 145.462 168.076C149.79 168.076 153.929 165.649 157.41 162.751C157.711 166.514 160.815 168.076 163.938 168.076C168.717 168.076 173.929 165.122 177.936 161.829C177.936 161.98 177.917 162.149 177.917 162.3C177.917 168 180.213 170.183 183.317 170.183C187.005 170.183 191.708 165.893 194.907 160.588C197.108 161.886 199.611 162.582 202.188 162.582C204.032 162.582 205.913 162.206 207.701 161.415C207.682 161.679 207.682 161.942 207.682 162.168C207.682 166.364 210.974 168.057 214.267 168.057C219.084 168.057 224.333 165.047 228.359 161.735C228.905 168.471 231.67 172.967 237.428 172.967C244.916 172.967 255.076 166.74 261.303 161.98C261.303 162.055 261.303 162.13 261.303 162.187C261.303 166.382 264.596 168.076 267.888 168.076C272.291 168.076 277.013 165.573 280.87 162.62C280.325 165.517 279.967 168.207 279.967 170.465C279.967 174.454 281.36 176.053 283.561 176.053C288.979 176.053 299.647 166.495 305.8 160.738C306.985 163.899 309.506 165.479 313.325 165.479C316.129 165.479 319.214 163.673 321.905 161.679C321.397 163.974 320.908 166.382 320.4 168.678C309.017 176.561 297.521 186.759 297.521 196.749C297.521 201.848 300.72 204.03 305.404 204.03C316.787 204.03 320.889 187.756 324.877 169.769C334.266 164.068 343.259 160.08 344.652 159.477C345.461 159.176 345.555 158.179 345.555 157.389C345.686 155.922 344.67 154.529 343.579 154.529ZM261.868 105.386C262.357 105.386 262.658 106.195 262.658 107.587C262.658 116.769 243.674 138.838 234.794 148.339C239.61 129.751 253.984 105.386 261.868 105.386ZM101.361 151.03C104.748 151.03 106.46 152.027 106.46 153.325C106.46 154.416 103.261 155.827 96.5823 155.827C95.5851 155.827 94.7761 155.621 94.08 155.225C95.5663 152.93 98.3697 151.03 101.361 151.03ZM87.382 105.386C87.89 105.386 88.1722 106.195 88.1722 107.587C88.1722 116.769 69.1884 138.838 60.3079 148.339C65.1056 129.751 79.4799 105.386 87.382 105.386ZM207.832 109.186C208.34 109.186 208.623 109.995 208.623 111.388C208.623 118.669 196.149 134.755 187.645 144.539C193.251 128.847 202.339 109.186 207.832 109.186ZM185.161 166.514C183.769 166.514 182.772 165.423 182.772 162.525C182.772 160.926 183.562 157.634 184.766 153.438C185.669 152.441 186.76 151.237 187.87 149.939C188.378 153.043 189.771 155.827 191.765 157.935C189.865 162.413 187.061 166.514 185.161 166.514ZM193.251 153.325C192.649 152.121 192.348 150.635 192.348 149.035C192.348 148.245 192.743 147.643 193.138 147.643C193.533 147.643 193.74 148.546 193.74 149.637C193.759 150.729 193.552 151.933 193.251 153.325ZM307.926 198.969C304.727 198.969 302.827 197.464 302.827 194.077C302.827 186.89 310.616 179.402 319.497 173.306C316.618 186.777 313.514 198.969 307.926 198.969Z" fill="#397AC6"/>
<path d="M50.1828 33.5614C55.1156 35.6028 55.0678 34.059 73.9764 25.415L76.2788 30.7535L56.9497 38.0709C49.7574 39.0785 45.5911 36.2789 43.1431 33.7671L46.2746 31.0566C47.434 32.0939 48.7453 32.9666 50.1828 33.5614Z" fill="#397AC6"/>
<path d="M30.0926 36.2601C34.2735 35.5216 37.754 33.6239 40.4938 30.554L44.0492 33.8214C44.243 33.9995 44.5516 33.9762 44.7427 33.7692L46.1519 32.2422C46.2457 32.1406 46.298 32.0074 46.297 31.8726C46.2961 31.7377 46.242 31.6126 46.1468 31.5252L42.3826 28.0676C43.7291 26.0466 44.8078 23.645 45.6479 20.8579C45.6902 20.7174 45.6725 20.5691 45.5992 20.4507C45.5259 20.3322 45.4041 20.2551 45.2647 20.2387L43.4457 20.0253C43.199 19.9964 42.9578 20.1621 42.8843 20.411C42.2447 22.5768 41.4013 24.5086 40.3771 26.206L33.1314 19.5061C34.9685 18.2628 36.4302 17.1475 37.5127 16.1797L37.5154 16.1772C38.7085 15.0962 39.5889 14.021 40.1177 12.9229C40.65 11.8176 40.8503 10.6556 40.7204 9.42432C40.5521 7.82846 39.7562 6.66149 38.3984 5.92282L38.3954 5.9212C37.0485 5.20171 35.3597 5.03987 33.3858 5.38852C30.8722 5.8325 28.8641 6.836 27.3945 8.42307L27.3929 8.42479C25.922 10.027 25.3036 11.9677 25.5369 14.1798C25.6448 15.2028 25.9776 16.1819 26.5576 17.1086C27.0385 17.8979 27.7002 18.692 28.5153 19.4946C25.3803 21.6403 23.1317 23.5788 21.7853 25.3167C20.346 27.1744 19.6992 29.1093 19.9103 31.1102C20.1311 33.2034 21.2138 34.714 23.0913 35.6443C24.9544 36.5674 27.3066 36.7522 30.0926 36.2601ZM25.8742 24.781L25.8768 24.7786C26.975 23.7764 28.4936 22.6219 30.4413 21.3032L38.5448 28.7287C36.2461 31.3385 33.376 32.9467 29.9484 33.5521C27.8726 33.9188 26.2591 33.7602 25.0482 33.1432L25.0453 33.1417C23.8505 32.5439 23.2136 31.6079 23.0774 30.316C22.9794 29.387 23.14 28.4891 23.5491 27.6386C23.9598 26.7849 24.717 25.8235 25.8742 24.781ZM37.3854 12.3322L37.3854 12.3322L37.3822 12.3384C37.0306 13.0344 36.3597 13.8255 35.3472 14.7049C34.3933 15.5334 33.0103 16.5383 31.1877 17.7329C30.3533 16.9568 29.7362 16.2344 29.3257 15.5768C28.8783 14.8601 28.6163 14.149 28.5534 13.4341L28.5535 13.434L28.5526 13.4254C28.4078 12.0527 28.7797 10.9075 29.658 9.92869C30.5433 8.94208 31.8199 8.28119 33.5595 7.97393C34.8664 7.74309 35.8596 7.86538 36.5931 8.28226C37.3317 8.70206 37.7099 9.28806 37.7925 10.0719C37.8801 10.902 37.7439 11.6445 37.3854 12.3322Z" fill="#397AC6" stroke="#397AC6" stroke-linejoin="round"/>
<path d="M285.94 14.015C283.501 11.7938 280.261 10.6717 276.311 10.6717C274.376 10.6717 272.578 10.9236 270.918 11.4159C270.208 11.0725 269.43 10.8893 268.617 10.8893H264.667C262.308 10.8893 260.27 12.4693 259.629 14.702C258.656 13.8204 257.556 13.0532 256.32 12.435C253.984 11.2671 251.294 10.6717 248.34 10.6717C245.512 10.6717 242.878 11.2442 240.462 12.3205C240.955 11.2557 241.229 10.0764 241.229 8.80546C241.229 6.71019 240.382 4.74087 238.825 3.27533C237.337 1.87849 235.447 1.13428 233.341 1.13428C231.074 1.13428 229.047 1.95864 227.49 3.51577C225.933 5.07291 225.109 7.06513 225.109 9.27488C225.109 9.82446 225.177 10.3626 225.28 10.8893H225.017C224.96 9.77867 224.548 8.70241 223.826 7.83225C222.83 6.6186 221.33 5.90873 219.762 5.90873H215.64C213.121 5.90873 210.968 7.6834 210.476 10.1451L210.327 10.9007C210.064 10.9236 209.801 10.9694 209.537 11.0267C209.148 10.9351 208.747 10.8778 208.335 10.8778H204.213C203.171 10.8778 202.198 11.187 201.362 11.7136C199.53 11.0152 197.469 10.6603 195.225 10.6603C192.935 10.6603 190.783 11.0725 188.756 11.8167C187.898 11.2328 186.89 10.8778 185.814 10.8778H181.646C179.849 10.8778 178.165 11.7938 177.204 13.3166L172.326 20.9878L170.918 14.9424C170.357 12.5609 168.239 10.8664 165.789 10.8664H161.667C160.27 10.8664 158.965 11.4503 157.98 12.4235L157.968 12.4121C155.633 11.2442 152.942 10.6488 149.988 10.6488C146.519 10.6488 143.336 11.4617 140.508 13.0761C139.145 13.8547 137.92 14.7936 136.833 15.8584C136.306 15.1141 135.745 14.4844 135.207 13.9921C132.768 11.7709 129.528 10.6488 125.578 10.6488C123.643 10.6488 121.845 10.9007 120.185 11.3931C119.475 11.0496 118.697 10.8664 117.884 10.8664H113.934C111.529 10.8664 109.468 12.4922 108.861 14.7821C108.598 14.4959 108.346 14.2325 108.094 14.0035C105.656 11.7823 102.415 10.6603 98.4653 10.6603C96.5303 10.6603 94.7327 10.9122 93.0726 11.4045C92.3627 11.061 91.5841 10.8778 90.7712 10.8778H86.9471L87.1532 9.87027C87.4623 8.32458 87.0616 6.72164 86.0655 5.49654C85.0693 4.27145 83.5694 3.57302 81.9894 3.57302H77.6958C75.1884 3.57302 73.0244 5.3477 72.5321 7.80935L66.5097 37.8873C66.2005 39.4329 66.6012 41.0359 67.5974 42.261C68.5935 43.4861 70.0934 44.1845 71.6734 44.1845H75.967C77.1463 44.1845 78.234 43.7838 79.1156 43.1197C80.0201 43.7952 81.1192 44.1845 82.2757 44.1845H86.3975C88.9049 44.1845 91.0689 42.4098 91.5612 39.9482L93.9656 27.9262C94.1374 27.1018 94.458 26.0026 95.0991 25.476C95.3968 25.2241 95.9349 24.892 97.1715 24.892C97.16 24.9607 97.1486 25.0409 97.1257 25.1325L94.5953 37.8987C94.2862 39.4444 94.6869 41.0473 95.6945 42.261C96.6906 43.4746 98.1905 44.1845 99.7705 44.1845H103.892C104.9 44.1845 105.85 43.8868 106.663 43.383C107.476 43.8868 108.415 44.1845 109.4 44.1845H113.521C116.029 44.1845 118.193 42.4098 118.685 39.9482L121.09 27.9262C121.261 27.1018 121.582 26.0026 122.223 25.476C122.521 25.2241 123.059 24.892 124.295 24.892C124.284 24.9607 124.273 25.0409 124.25 25.1325L121.719 37.8987C121.41 39.4444 121.811 41.0473 122.818 42.261C123.815 43.4746 125.314 44.1845 126.894 44.1845H131.016C133.363 44.1845 135.39 42.6274 136.043 40.4062C137.004 41.2763 138.081 42.032 139.283 42.6388C141.63 43.8296 144.321 44.4364 147.298 44.4364C150.767 44.4364 153.961 43.612 156.778 41.9976C158.598 40.9443 160.155 39.6047 161.483 38.0361L161.987 40.1428C162.56 42.5129 164.678 44.1845 167.105 44.1845H171.319C173.116 44.1845 174.799 43.2685 175.761 41.7458L178.875 36.8568C178.944 36.9713 178.978 37.0972 179.047 37.2117C180.41 39.5818 182.333 41.4137 184.749 42.6732C187.016 43.8525 189.581 44.4478 192.374 44.4478C194.206 44.4478 195.958 44.1959 197.607 43.6807C198.305 44.0128 199.072 44.1845 199.851 44.1845H203.801C206.011 44.1845 207.946 42.8106 208.713 40.8069C208.942 41.0702 209.182 41.3107 209.4 41.5168C211.472 43.4288 214.209 44.4364 217.334 44.4364C219.292 44.4364 221.067 44.1044 222.681 43.5319C223.437 43.9326 224.284 44.1731 225.154 44.1731H229.276C231.646 44.1731 233.684 42.5816 234.325 40.3375C235.299 41.2305 236.398 41.9976 237.634 42.6274C239.981 43.8181 242.672 44.4249 245.649 44.4249C249.118 44.4249 252.313 43.6006 255.129 41.9862C255.312 41.8831 255.484 41.7458 255.667 41.6313C255.793 41.8373 255.908 42.0549 256.068 42.2495C257.064 43.4632 258.564 44.1731 260.133 44.1731H264.254C266.762 44.1731 268.926 42.3984 269.418 39.9367L271.823 27.9147C271.994 27.0904 272.315 25.9912 272.956 25.4645C273.254 25.2126 273.792 24.8806 275.028 24.8806C275.017 24.9493 275.006 25.0294 274.983 25.121L272.452 37.8873C272.143 39.4329 272.544 41.0359 273.551 42.2495C274.548 43.4632 276.048 44.1731 277.628 44.1731H281.749C284.257 44.1731 286.421 42.3984 286.913 39.9367L289.466 27.0904C289.695 25.8424 289.81 24.6287 289.81 23.4838C289.821 18.5834 287.715 15.6294 285.94 14.015ZM150.641 28.4986C150.332 29.094 149.942 29.5177 149.427 29.8268C148.889 30.1474 148.294 30.2962 147.561 30.2962C146.645 30.2962 146.256 30.113 146.187 30.0558C146.141 30.01 146.038 29.7352 146.038 29.1627C146.038 28.1666 146.221 27.3422 146.588 26.6438C146.92 26.0256 147.32 25.5905 147.847 25.2699C148.362 24.9607 148.946 24.8119 149.668 24.8119C150.721 24.8119 151.053 25.0294 151.064 25.0294C151.064 25.0294 151.202 25.2699 151.202 25.9454C151.19 26.953 151.007 27.7888 150.641 28.4986ZM196.37 28.4986C196.061 29.094 195.672 29.5177 195.157 29.8268C194.618 30.1474 194.023 30.2962 193.29 30.2962C192.374 30.2962 191.985 30.113 191.916 30.0558C191.871 30.01 191.767 29.7352 191.767 29.1627C191.767 28.1666 191.951 27.3422 192.317 26.6438C192.649 26.0256 193.05 25.5905 193.577 25.2699C194.092 24.9607 194.676 24.8119 195.397 24.8119C196.45 24.8119 196.782 25.0294 196.794 25.0294C196.794 25.0294 196.931 25.2699 196.931 25.9454C196.908 26.953 196.737 27.7888 196.37 28.4986ZM222.384 24.8005H222.59L221.685 29.3803C221.605 29.3803 221.536 29.3803 221.456 29.3803L222.384 24.8005ZM249.015 28.4986C248.706 29.094 248.317 29.5177 247.801 29.8268C247.263 30.1474 246.668 30.2962 245.935 30.2962C245.019 30.2962 244.63 30.113 244.561 30.0558C244.515 30.01 244.412 29.7352 244.412 29.1627C244.412 28.1666 244.596 27.3422 244.962 26.6438C245.294 26.0256 245.695 25.5905 246.221 25.2699C246.737 24.9607 247.321 24.8119 248.042 24.8119C249.095 24.8119 249.427 25.0294 249.439 25.0294C249.439 25.0294 249.576 25.2699 249.576 25.9454C249.553 26.953 249.382 27.7888 249.015 28.4986Z" fill="white"/>
<path d="M284.967 13.3163C282.528 11.0951 279.288 9.973 275.338 9.973C273.403 9.973 271.605 10.2249 269.945 10.7172C269.235 10.3737 268.457 10.1905 267.644 10.1905H263.694C261.335 10.1905 259.297 11.7706 258.656 14.0032C257.683 13.1216 256.583 12.3545 255.347 11.7362C253.011 10.5684 250.321 9.973 247.367 9.973C244.538 9.973 241.905 10.5455 239.489 11.6217C239.982 10.5569 240.256 9.37763 240.256 8.10673C240.256 6.01146 239.409 4.04214 237.852 2.5766C236.364 1.17976 234.474 0.435547 232.368 0.435547C230.101 0.435547 228.074 1.25991 226.517 2.81704C224.96 4.37418 224.135 6.3664 224.135 8.57616C224.135 9.12574 224.204 9.66386 224.307 10.1905H224.044C223.987 9.07994 223.574 8.00368 222.853 7.13352C221.857 5.91987 220.357 5.21 218.788 5.21H214.667C212.148 5.21 209.995 6.98467 209.503 9.44632L209.343 10.202C209.079 10.2249 208.816 10.2707 208.553 10.3279C208.163 10.2363 207.763 10.1791 207.35 10.1791H203.229C202.187 10.1791 201.213 10.4882 200.378 11.0149C198.546 10.3165 196.485 9.96155 194.241 9.96155C191.951 9.96155 189.798 10.3737 187.772 11.118C186.913 10.534 185.905 10.1791 184.829 10.1791H180.662C178.864 10.1791 177.181 11.0951 176.219 12.6178L171.342 20.289L169.933 14.2437C169.372 11.8622 167.254 10.1676 164.804 10.1676H160.682C159.285 10.1676 157.98 10.7516 156.995 11.7248L156.984 11.7133C154.648 10.5455 151.958 9.9501 149.004 9.9501C145.534 9.9501 142.351 10.763 139.523 12.3774C138.161 13.156 136.936 14.0948 135.848 15.1596C135.321 14.4154 134.76 13.7857 134.222 13.2934C131.784 11.0722 128.543 9.9501 124.593 9.9501C122.658 9.9501 120.861 10.202 119.2 10.6943C118.491 10.3508 117.712 10.1676 116.899 10.1676H112.949C110.545 10.1676 108.484 11.7935 107.877 14.0834C107.614 13.7971 107.362 13.5338 107.11 13.3048C104.671 11.0836 101.431 9.96155 97.4807 9.96155C95.5458 9.96155 93.7482 10.2134 92.088 10.7058C91.3781 10.3623 90.5996 10.1791 89.7866 10.1791H85.9854L86.1915 9.17153C86.5006 7.62585 86.0999 6.02291 85.1038 4.79781C84.1077 3.57272 82.6078 2.87429 81.0277 2.87429H76.7342C74.2267 2.87429 72.0628 4.64897 71.5704 7.11062L65.548 37.1885C65.2388 38.7342 65.6396 40.3372 66.6357 41.5623C67.6318 42.7874 69.1317 43.4858 70.7117 43.4858H75.0053C76.1846 43.4858 77.2723 43.085 78.1539 42.421C79.0584 43.0965 80.1576 43.4858 81.314 43.4858H85.4358C87.9433 43.4858 90.1072 41.7111 90.5996 39.2494L93.004 27.2274C93.1757 26.4031 93.4963 25.3039 94.1375 24.7772C94.4351 24.5253 94.9733 24.1933 96.2098 24.1933C96.1984 24.262 96.1869 24.3422 96.164 24.4338L93.6337 37.2C93.3245 38.7457 93.7253 40.3486 94.7328 41.5623C95.7289 42.7759 97.2288 43.4858 98.8089 43.4858H102.931C103.938 43.4858 104.889 43.1881 105.701 42.6843C106.514 43.1881 107.453 43.4858 108.438 43.4858H112.56C115.067 43.4858 117.231 41.7111 117.723 39.2494L120.128 27.2274C120.3 26.4031 120.62 25.3039 121.261 24.7772C121.559 24.5253 122.097 24.1933 123.334 24.1933C123.322 24.262 123.311 24.3422 123.288 24.4338L120.758 37.2C120.448 38.7457 120.849 40.3486 121.857 41.5623C122.853 42.7759 124.353 43.4858 125.933 43.4858H130.055C132.402 43.4858 134.428 41.9286 135.081 39.7074C136.043 40.5776 137.119 41.3333 138.321 41.9401C140.668 43.1308 143.359 43.7377 146.336 43.7377C149.805 43.7377 152.999 42.9133 155.816 41.2989C157.637 40.2456 159.194 38.906 160.522 37.3374L161.026 39.4441C161.598 41.8141 163.716 43.4858 166.144 43.4858H170.357C172.155 43.4858 173.838 42.5698 174.799 41.047L177.914 36.1581C177.982 36.2726 178.017 36.3985 178.085 36.513C179.448 38.8831 181.371 40.715 183.787 41.9744C186.054 43.1537 188.619 43.7491 191.413 43.7491C193.245 43.7491 194.996 43.4972 196.645 42.982C197.344 43.314 198.111 43.4858 198.889 43.4858H202.839C205.049 43.4858 206.984 42.1118 207.751 40.1082C207.98 40.3715 208.221 40.6119 208.438 40.818C210.51 42.7301 213.247 43.7377 216.373 43.7377C218.331 43.7377 220.105 43.4056 221.72 42.8332C222.475 43.2339 223.323 43.4743 224.193 43.4743H228.315C230.685 43.4743 232.723 41.8828 233.364 39.6387C234.337 40.5318 235.436 41.2989 236.673 41.9286C239.02 43.1194 241.71 43.7262 244.687 43.7262C248.157 43.7262 251.351 42.9019 254.168 41.2875C254.351 41.1844 254.522 41.047 254.706 40.9325C254.832 41.1386 254.946 41.3562 255.106 41.5508C256.103 42.7645 257.602 43.4743 259.171 43.4743H263.293C265.8 43.4743 267.964 41.6996 268.457 39.238L270.861 27.216C271.033 26.3916 271.353 25.2925 271.994 24.7658C272.292 24.5139 272.83 24.1819 274.067 24.1819C274.055 24.2506 274.044 24.3307 274.021 24.4223L271.491 37.1885C271.182 38.7342 271.582 40.3372 272.59 41.5508C273.586 42.7645 275.086 43.4743 276.666 43.4743H280.788C283.295 43.4743 285.459 41.6996 285.951 39.238L288.505 26.3916C288.734 25.1436 288.848 23.93 288.848 22.785C288.86 17.8961 286.741 14.9307 284.967 13.3163ZM149.679 27.7999C149.37 28.3953 148.981 28.8189 148.465 29.1281C147.927 29.4487 147.332 29.5975 146.599 29.5975C145.683 29.5975 145.294 29.4143 145.225 29.357C145.179 29.3113 145.076 29.0365 145.076 28.464C145.076 27.4679 145.26 26.6435 145.626 25.9451C145.958 25.3268 146.359 24.8917 146.885 24.5711C147.401 24.262 147.985 24.1132 148.706 24.1132C149.759 24.1132 150.091 24.3307 150.103 24.3307C150.103 24.3307 150.24 24.5712 150.24 25.2467C150.217 26.2657 150.046 27.1015 149.679 27.7999ZM195.397 27.7999C195.088 28.3953 194.699 28.8189 194.183 29.1281C193.645 29.4487 193.05 29.5975 192.317 29.5975C191.401 29.5975 191.012 29.4143 190.943 29.357C190.897 29.3113 190.794 29.0365 190.794 28.464C190.794 27.4679 190.978 26.6435 191.344 25.9451C191.676 25.3268 192.077 24.8917 192.603 24.5711C193.119 24.262 193.703 24.1132 194.424 24.1132C195.477 24.1132 195.809 24.3307 195.821 24.3307C195.821 24.3307 195.958 24.5712 195.958 25.2467C195.947 26.2657 195.764 27.1015 195.397 27.7999ZM221.422 24.1132H221.628L220.723 28.693C220.643 28.693 220.575 28.693 220.494 28.693L221.422 24.1132ZM248.042 27.7999C247.733 28.3953 247.344 28.8189 246.828 29.1281C246.29 29.4487 245.695 29.5975 244.962 29.5975C244.046 29.5975 243.657 29.4143 243.588 29.357C243.542 29.3113 243.439 29.0365 243.439 28.464C243.439 27.4679 243.623 26.6435 243.989 25.9451C244.321 25.3268 244.722 24.8917 245.248 24.5711C245.764 24.262 246.348 24.1132 247.069 24.1132C248.122 24.1132 248.454 24.3307 248.466 24.3307C248.466 24.3307 248.603 24.5712 248.603 25.2467C248.592 26.2657 248.408 27.1015 248.042 27.7999Z" fill="white"/>
<path d="M76.7114 8.14111H81.005L74.994 38.219H70.7004L76.7114 8.14111Z" fill="white"/>
<path d="M103.549 17.2085C104.992 18.5252 105.724 20.3915 105.724 22.7959C105.724 23.6317 105.644 24.5133 105.461 25.4636L102.931 38.2298H98.8089L101.339 25.4636C101.488 24.6851 101.557 24.0553 101.557 23.5744C101.557 22.086 101.11 20.9411 100.229 20.1396C99.3356 19.3381 98.0189 18.9374 96.2786 18.9374C94.0459 18.9374 92.2025 19.5442 90.7599 20.7693C89.3172 21.983 88.344 23.8034 87.8632 26.2078L85.4588 38.2413H81.3369L85.848 15.4682H89.7981L89.2371 18.3878C91.298 16.2925 94.0459 15.2506 97.4922 15.2506C100.08 15.2392 102.106 15.8918 103.549 17.2085Z" fill="white"/>
<path d="M130.673 17.2085C132.116 18.5252 132.848 20.3915 132.848 22.7959C132.848 23.6317 132.768 24.5133 132.585 25.4636L130.055 38.2298H125.933L128.463 25.4636C128.612 24.6851 128.681 24.0553 128.681 23.5744C128.681 22.086 128.234 20.9411 127.353 20.1396C126.46 19.3381 125.143 18.9374 123.403 18.9374C121.17 18.9374 119.327 19.5442 117.884 20.7693C116.441 21.983 115.468 23.8034 114.987 26.2078L112.583 38.2413H108.461L112.972 15.4682H116.922L116.361 18.3878C118.422 16.2925 121.17 15.2506 124.616 15.2506C127.192 15.2392 129.219 15.8918 130.673 17.2085Z" fill="white"/>
<path d="M140.703 37.2572C139.1 36.4443 137.852 35.2879 136.959 33.7994C136.066 32.311 135.631 30.5936 135.631 28.6471C135.631 26.0939 136.203 23.804 137.348 21.766C138.493 19.728 140.084 18.1365 142.122 16.9801C144.161 15.8237 146.45 15.2397 149.004 15.2397C151.156 15.2397 153.034 15.6405 154.637 16.4419C156.24 17.2434 157.476 18.3884 158.358 19.8539C159.228 21.3309 159.675 23.0598 159.675 25.0291C159.675 27.5823 159.102 29.8837 157.957 31.9217C156.812 33.9712 155.232 35.5741 153.206 36.7305C151.191 37.8869 148.901 38.4708 146.347 38.4708C144.183 38.4823 142.306 38.0701 140.703 37.2572ZM151.168 33.6506C152.53 32.8377 153.583 31.6927 154.351 30.2386C155.106 28.7731 155.484 27.1129 155.484 25.2581C155.484 23.2201 154.9 21.6515 153.721 20.5294C152.542 19.4074 150.87 18.8578 148.695 18.8578C147 18.8578 145.489 19.27 144.138 20.0829C142.787 20.8958 141.733 22.0408 140.955 23.4949C140.176 24.9604 139.798 26.6206 139.798 28.4754C139.798 30.4791 140.394 32.0477 141.584 33.1812C142.775 34.3147 144.447 34.8757 146.588 34.8757C148.282 34.8757 149.805 34.4635 151.168 33.6506Z" fill="white"/>
<path d="M184.841 15.4458L170.357 38.2189H166.144L160.682 15.4458H164.804L169.063 33.7078L180.662 15.4458H184.841Z" fill="white"/>
<path d="M207.351 15.4456L202.84 38.2187H198.89L199.451 35.425C198.42 36.3982 197.218 37.1539 195.867 37.6806C194.504 38.2072 193.027 38.4706 191.424 38.4706C189.478 38.4706 187.738 38.0813 186.226 37.2913C184.704 36.5013 183.524 35.3678 182.654 33.8793C181.795 32.3909 181.36 30.6391 181.36 28.6354C181.36 26.0593 181.921 23.7465 183.032 21.7199C184.154 19.6819 185.688 18.0904 187.646 16.9455C189.604 15.8005 191.802 15.228 194.241 15.228C196.187 15.228 197.859 15.5715 199.245 16.2585C200.63 16.9455 201.706 17.9645 202.45 19.3155L203.229 15.4456H207.351ZM196.897 33.6503C198.26 32.8374 199.313 31.6925 200.08 30.2384C200.836 28.7728 201.214 27.1126 201.214 25.2578C201.214 23.2198 200.63 21.6512 199.451 20.5292C198.271 19.4071 196.6 18.8575 194.424 18.8575C192.73 18.8575 191.218 19.2697 189.867 20.0826C188.516 20.8955 187.463 22.0405 186.684 23.4946C185.906 24.9601 185.528 26.6203 185.528 28.4751C185.528 30.4788 186.123 32.0474 187.314 33.1809C188.505 34.3144 190.176 34.8754 192.318 34.8754C194.001 34.8754 195.535 34.4632 196.897 33.6503Z" fill="white"/>
<path d="M214.667 30.96C214.587 31.3951 214.541 31.7958 214.541 32.1622C214.541 33.0782 214.793 33.7766 215.297 34.2689C215.8 34.7612 216.545 35.0017 217.552 35.0017C218.754 35.0017 219.842 34.6467 220.815 33.9254L221.674 37.0626C220.3 38.0129 218.537 38.4823 216.384 38.4823C214.575 38.4823 213.121 37.9786 212.022 36.9595C210.923 35.9405 210.362 34.5437 210.362 32.769C210.362 32.1622 210.419 31.5897 210.533 31.0516L212.984 18.8464H209.114L209.755 15.4459H213.671L214.655 10.4653H218.777L217.793 15.4459H224.33L223.643 18.8464H217.106L214.667 30.96Z" fill="white"/>
<path d="M228.715 15.4462H232.837L228.326 38.2193H224.204L228.715 15.4462ZM230.135 10.3397C229.643 9.84736 229.402 9.26344 229.402 8.57647C229.402 7.775 229.677 7.09947 230.238 6.53845C230.799 5.97742 231.509 5.70264 232.368 5.70264C233.112 5.70264 233.73 5.94307 234.234 6.4125C234.738 6.88193 234.99 7.45441 234.99 8.10704C234.99 9.0001 234.715 9.70997 234.154 10.2595C233.593 10.8091 232.871 11.0725 231.978 11.0725C231.234 11.061 230.616 10.8206 230.135 10.3397Z" fill="white"/>
<path d="M239.066 37.2572C237.463 36.4443 236.215 35.2879 235.322 33.7994C234.429 32.311 233.994 30.5936 233.994 28.6471C233.994 26.0939 234.566 23.804 235.711 21.766C236.856 19.728 238.448 18.1365 240.486 16.9801C242.524 15.8237 244.813 15.2397 247.367 15.2397C249.519 15.2397 251.397 15.6405 253 16.4419C254.603 17.2434 255.839 18.3884 256.721 19.8539C257.591 21.3309 258.038 23.0598 258.038 25.0291C258.038 27.5823 257.465 29.8837 256.32 31.9217C255.175 33.9597 253.595 35.5741 251.569 36.7305C249.554 37.8869 247.264 38.4708 244.71 38.4708C242.546 38.4823 240.669 38.0701 239.066 37.2572ZM249.531 33.6506C250.893 32.8377 251.947 31.6927 252.714 30.2386C253.469 28.7731 253.847 27.1129 253.847 25.2581C253.847 23.2201 253.263 21.6515 252.084 20.5294C250.905 19.4074 249.233 18.8578 247.058 18.8578C245.363 18.8578 243.852 19.27 242.501 20.0829C241.15 20.8958 240.096 22.0408 239.318 23.4949C238.539 24.9604 238.161 26.6206 238.161 28.4754C238.161 30.4791 238.757 32.0477 239.947 33.1812C241.138 34.3147 242.81 34.8757 244.951 34.8757C246.645 34.8757 248.168 34.4635 249.531 33.6506Z" fill="white"/>
<path d="M281.418 17.2085C282.86 18.5252 283.593 20.3915 283.593 22.7959C283.593 23.6317 283.513 24.5133 283.33 25.4636L280.799 38.2298H276.678L279.208 25.4636C279.357 24.6851 279.425 24.0553 279.425 23.5744C279.425 22.086 278.979 20.9411 278.097 20.1396C277.204 19.3381 275.888 18.9374 274.147 18.9374C271.915 18.9374 270.071 19.5442 268.629 20.7693C267.186 21.983 266.213 23.8034 265.732 26.2078L263.327 38.2413H259.206L263.717 15.4682H267.667L267.106 18.3878C269.167 16.2925 271.915 15.2506 275.361 15.2506C277.948 15.2392 279.975 15.8918 281.418 17.2085Z" fill="white"/>
<path d="M83.0431 6.46957C82.5393 5.86274 81.7951 5.50781 81.0051 5.50781H76.7115C75.4521 5.50781 74.3758 6.38942 74.1354 7.62597L68.1129 37.7039C67.9526 38.4825 68.1587 39.2839 68.6625 39.8908C69.1663 40.4976 69.9105 40.8525 70.7005 40.8525H74.9941C76.2535 40.8525 77.3298 39.9709 77.5702 38.7343L83.5812 8.65643C83.753 7.88931 83.5469 7.08784 83.0431 6.46957Z" stroke="#EC161D" stroke-width="1.82564" stroke-miterlimit="10"/>
<path d="M108.358 22.7967C108.358 19.6252 107.339 17.0949 105.324 15.263C103.389 13.4997 100.744 12.5952 97.4693 12.5952C95.3397 12.5952 93.4048 12.9387 91.6873 13.6257C91.195 13.099 90.508 12.8013 89.7753 12.8013H85.8252C84.5657 12.8013 83.4895 13.6944 83.2376 14.9195L78.7265 37.6926C78.5776 38.4711 78.7723 39.2612 79.276 39.8794C79.7798 40.4863 80.524 40.8412 81.3141 40.8412H85.4359C86.6953 40.8412 87.7716 39.9596 88.012 38.723L90.4164 26.701C90.7828 24.9035 91.4583 23.5753 92.4316 22.7624C93.3933 21.9495 94.6528 21.5602 96.2557 21.5602C97.2976 21.5602 98.0647 21.7434 98.4426 22.0869C98.5685 22.2014 98.912 22.5105 98.912 23.5753C98.912 23.7929 98.8776 24.2279 98.7517 24.9493L96.2213 37.7155C96.0725 38.4941 96.2671 39.2955 96.7709 39.9023C97.2747 40.5092 98.0189 40.8641 98.8089 40.8641H102.931C104.19 40.8641 105.266 39.971 105.518 38.7459L108.06 25.9454C108.255 24.8348 108.358 23.7814 108.358 22.7967Z" stroke="#EC161D" stroke-width="1.82564" stroke-miterlimit="10"/>
<path d="M283.192 15.2623C281.257 13.4991 278.613 12.5945 275.338 12.5945C273.208 12.5945 271.273 12.938 269.556 13.625C269.064 13.0983 268.377 12.8006 267.644 12.8006H263.694C262.434 12.8006 261.358 13.6937 261.106 14.9188L259.961 20.7237C259.698 19.9451 259.389 19.1895 258.977 18.491C257.843 16.579 256.229 15.0905 254.168 14.0601C252.199 13.0754 249.909 12.5831 247.355 12.5831C244.356 12.5831 241.596 13.2815 239.18 14.6669C237.532 15.6058 236.135 16.8194 234.956 18.2506L235.414 15.9378C235.562 15.1592 235.368 14.3692 234.864 13.7509C234.692 13.5449 234.498 13.3731 234.28 13.2243C234.91 12.9609 235.482 12.5831 235.975 12.1022C237.039 11.0603 237.612 9.66346 237.612 8.07198C237.612 6.68658 237.062 5.43858 236.032 4.45392C235.047 3.52651 233.776 3.03418 232.357 3.03418C230.799 3.03418 229.425 3.59521 228.372 4.64857C227.319 5.70192 226.758 7.05296 226.758 8.55285C226.758 9.93825 227.273 11.1977 228.258 12.1709C228.487 12.4113 228.738 12.6174 229.002 12.7892H228.704C227.788 12.7892 226.987 13.2701 226.506 13.9914C226.46 13.9112 226.414 13.8311 226.357 13.7509C225.853 13.1441 225.109 12.7892 224.319 12.7892H220.999L221.365 10.9458C221.514 10.1672 221.319 9.37722 220.815 8.75895C220.312 8.15212 219.567 7.79719 218.777 7.79719H214.656C213.396 7.79719 212.32 8.69025 212.068 9.91535L211.495 12.7777H209.744C209.32 12.7777 208.931 12.9151 208.564 13.0983C208.187 12.9037 207.774 12.7777 207.339 12.7777H203.217C202.244 12.7777 201.374 13.3159 200.916 14.1288C200.756 14.0372 200.584 13.9456 200.412 13.8654C198.661 12.9953 196.588 12.5602 194.241 12.5602C191.676 12.5602 189.318 13.1327 187.165 14.2204C187.154 14.1975 187.154 14.1631 187.131 14.1402C186.673 13.293 185.78 12.7777 184.818 12.7777H180.65C179.746 12.7777 178.91 13.2357 178.429 14.0028L170.186 26.9752L167.358 14.8157C167.083 13.625 166.018 12.7777 164.793 12.7777H160.671C159.87 12.7777 159.102 13.1441 158.599 13.7853C158.198 14.2891 158.015 14.9188 158.049 15.5485C157.362 14.9875 156.618 14.4723 155.782 14.0486C153.813 13.064 151.523 12.5716 148.97 12.5716C145.97 12.5716 143.21 13.2701 140.795 14.6555C138.425 16.0065 136.547 17.8842 135.173 20.2199C134.761 18.2163 133.856 16.5332 132.414 15.2279C130.479 13.4647 127.834 12.5602 124.559 12.5602C122.43 12.5602 120.495 12.9037 118.777 13.5906C118.285 13.064 117.598 12.7663 116.865 12.7663H112.915C111.656 12.7663 110.579 13.6593 110.327 14.8844L105.816 37.6576C105.667 38.4361 105.862 39.2261 106.366 39.8444C106.87 40.4512 107.614 40.8062 108.404 40.8062H112.526C113.785 40.8062 114.861 39.9246 115.102 38.688L117.506 26.666C117.873 24.8684 118.548 23.5403 119.521 22.7274C120.483 21.9145 121.743 21.5252 123.346 21.5252C124.387 21.5252 125.155 21.7084 125.532 22.0519C125.658 22.1663 126.002 22.4755 126.002 23.5403C126.002 23.7578 125.967 24.1815 125.842 24.9142L123.311 37.6805C123.162 38.459 123.357 39.2605 123.861 39.8673C124.365 40.4741 125.109 40.8291 125.899 40.8291H130.021C131.28 40.8291 132.356 39.936 132.608 38.7109L133.73 33.0319C133.982 33.7533 134.291 34.4631 134.681 35.1158C135.826 37.0278 137.44 38.5277 139.489 39.5696C141.459 40.5772 143.76 41.081 146.313 41.081C149.313 41.081 152.061 40.3826 154.477 38.9857C156.904 37.5889 158.839 35.631 160.213 33.1808C160.751 32.219 161.152 31.1886 161.484 30.1352L163.568 38.814C163.854 39.9933 164.907 40.8291 166.132 40.8291H170.346C171.25 40.8291 172.086 40.3711 172.567 39.604L178.784 29.8261C178.944 31.7954 179.448 33.593 180.353 35.1616C181.463 37.0851 183.02 38.585 184.99 39.5925C186.879 40.5772 189.031 41.0695 191.402 41.0695C193.325 41.0695 195.146 40.7375 196.806 40.0963C196.874 40.0734 196.932 40.0505 197 40.0162C197.493 40.5199 198.168 40.8062 198.878 40.8062H202.828C204.088 40.8062 205.164 39.9131 205.416 38.688L208.839 21.3992C208.931 21.4107 209.011 21.4336 209.103 21.4336H209.755L207.946 30.4673C207.797 31.1886 207.717 31.9442 207.717 32.7343C207.717 35.2303 208.587 37.3484 210.225 38.8598C211.828 40.3368 213.888 41.081 216.373 41.081C218.571 41.081 220.483 40.6344 222.109 39.7872C222.132 39.8101 222.144 39.833 222.155 39.8559C222.659 40.4627 223.403 40.8176 224.193 40.8176H228.315C229.574 40.8176 230.651 39.9246 230.902 38.6995L232.059 32.8602C232.322 33.6388 232.643 34.4059 233.066 35.1043C234.211 37.0164 235.826 38.5163 237.875 39.5582C239.845 40.5657 242.146 41.0695 244.699 41.0695C247.699 41.0695 250.447 40.3711 252.863 38.9743C254.5 38.0354 255.874 36.8217 257.042 35.402L256.595 37.669C256.446 38.4476 256.641 39.2376 257.145 39.8559C257.649 40.4627 258.393 40.8176 259.183 40.8176H263.305C264.564 40.8176 265.64 39.936 265.881 38.6995L268.285 26.6775C268.652 24.8799 269.327 23.5517 270.3 22.7388C271.262 21.9259 272.521 21.5366 274.124 21.5366C275.166 21.5366 275.933 21.7198 276.311 22.0633C276.437 22.1778 276.781 22.4869 276.781 23.5517C276.781 23.7693 276.746 24.2044 276.62 24.9257L274.09 37.6919C273.941 38.4705 274.136 39.2719 274.64 39.8788C275.143 40.4856 275.888 40.8405 276.678 40.8405H280.799C282.059 40.8405 283.135 39.9475 283.387 38.7224L285.929 25.9218C286.124 24.8226 286.227 23.7693 286.227 22.7846C286.227 19.6246 285.208 17.0942 283.192 15.2623ZM152.015 29.0132C151.477 30.0436 150.756 30.8222 149.817 31.3832C148.867 31.9557 147.813 32.2305 146.6 32.2305C145.134 32.2305 144.092 31.9099 143.405 31.2573C142.993 30.868 142.443 30.1467 142.443 28.4636C142.443 27.0209 142.718 25.7958 143.291 24.7081C143.84 23.6662 144.573 22.8762 145.512 22.3152C146.451 21.7427 147.493 21.4679 148.706 21.4679C150.172 21.4679 151.259 21.7885 151.924 22.4182C152.153 22.6358 152.862 23.3113 152.862 25.2348C152.851 26.6889 152.576 27.9255 152.015 29.0132ZM197.733 29.0132C197.195 30.0436 196.474 30.8222 195.535 31.3832C194.585 31.9557 193.531 32.2305 192.318 32.2305C190.852 32.2305 189.81 31.9099 189.123 31.2573C188.711 30.868 188.161 30.1467 188.161 28.4636C188.161 27.0209 188.436 25.7958 189.009 24.7081C189.558 23.6662 190.291 22.8762 191.23 22.3152C192.169 21.7427 193.211 21.4679 194.424 21.4679C195.89 21.4679 196.977 21.7885 197.642 22.4182C197.871 22.6358 198.58 23.3113 198.58 25.2348C198.58 26.6889 198.306 27.9255 197.733 29.0132ZM219.247 31.8068C218.72 32.1961 218.182 32.3679 217.541 32.3679C217.381 32.3679 217.255 32.3564 217.174 32.345C217.174 32.2992 217.163 32.2419 217.163 32.1618C217.163 31.9671 217.186 31.7267 217.243 31.4863L219.27 21.4794H223.643C224.101 21.4794 224.525 21.3305 224.903 21.113L222.716 32.1274C222.43 31.8183 222.075 31.5893 221.663 31.4405C221.376 31.3374 221.09 31.2916 220.792 31.2916C220.254 31.2916 219.705 31.4748 219.247 31.8068ZM250.378 29.0132C249.84 30.0436 249.119 30.8222 248.18 31.3832C247.229 31.9557 246.176 32.2305 244.962 32.2305C243.497 32.2305 242.455 31.9099 241.768 31.2573C241.356 30.868 240.806 30.1467 240.806 28.4636C240.806 27.0209 241.081 25.7958 241.654 24.7081C242.203 23.6662 242.936 22.8762 243.875 22.3152C244.814 21.7427 245.856 21.4679 247.069 21.4679C248.535 21.4679 249.622 21.7885 250.286 22.4182C250.515 22.6358 251.225 23.3113 251.225 25.2348C251.225 26.6889 250.939 27.9255 250.378 29.0132Z" stroke="#EC161D" stroke-width="1.82564" stroke-miterlimit="10"/>
</svg>
