<svg width="32" height="32" fill="none" xmlns="http://www.w3.org/2000/svg"><path d="M29.633 0H2.36C1.06 0 .001 1.033.001 2.307v27.384C.001 30.965 1.059 32 2.361 32h27.272C30.938 32 32 30.965 32 29.69V2.308C32 1.033 30.938 0 29.633 0z" fill="#007BB5"/><path d="M4.742 11.996h4.75v15.271h-4.75v-15.27zm2.377-7.59a2.753 2.753 0 11-.004 5.505 2.753 2.753 0 01.004-5.506zm5.351 7.59h4.55v2.088h.065c.633-1.2 2.182-2.466 4.49-2.466 4.806 0 5.694 3.161 5.694 7.274v8.375h-4.745v-7.426c0-1.77-.03-4.049-2.466-4.049-2.47 0-2.847 1.93-2.847 3.922v7.553h-4.74v-15.27z" fill="#fff"/></svg>