<svg width="32" height="24" fill="none" xmlns="http://www.w3.org/2000/svg"><path d="M31.68 5.602s-.312-2.205-1.272-3.176c-1.216-1.275-2.58-1.281-3.206-1.356C22.724.747 16.007.747 16.007.747h-.014s-6.717 0-11.195.323c-.626.075-1.99.081-3.206 1.356C.632 3.396.32 5.602.32 5.602S0 8.192 0 10.78v2.428c0 2.59.32 5.179.32 5.179s.312 2.205 1.272 3.176c1.217 1.275 2.816 1.234 3.528 1.368 2.56.245 10.88.321 10.88.321s6.724-.01 11.202-.334c.625-.074 1.99-.08 3.206-1.355.96-.971 1.272-3.176 1.272-3.176s.32-2.59.32-5.18V10.78c0-2.59-.32-5.18-.32-5.18z" fill="#DC2217"/><path d="M12.697 16.15l-.002-8.99 8.647 4.51-8.645 4.48z" fill="#fff"/></svg>